%TF.GenerationSoftware,KiCad,Pcbnew,(5.1.9)-1*%
%TF.CreationDate,2021-07-09T22:50:26+02:00*%
%TF.ProjectId,hyperboard,68797065-7262-46f6-9172-642e6b696361,rev?*%
%TF.SameCoordinates,Original*%
%TF.FileFunction,Paste,Top*%
%TF.FilePolarity,Positive*%
%FSLAX46Y46*%
G04 Gerber Fmt 4.6, Leading zero omitted, Abs format (unit mm)*
G04 Created by KiCad (PCBNEW (5.1.9)-1) date 2021-07-09 22:50:26*
%MOMM*%
%LPD*%
G01*
G04 APERTURE LIST*
%ADD10R,1.800000X1.100000*%
%ADD11R,0.900000X0.700000*%
%ADD12R,0.600000X0.510000*%
%ADD13R,0.375000X0.500000*%
%ADD14R,0.300000X0.650000*%
%ADD15R,0.270000X1.000000*%
%ADD16R,1.400000X1.200000*%
%ADD17R,0.630000X0.820000*%
%ADD18R,0.350000X0.650000*%
%ADD19R,0.740000X2.790000*%
G04 APERTURE END LIST*
D10*
%TO.C,SW1*%
X126350000Y-139850000D03*
X120150000Y-139850000D03*
X126350000Y-136150000D03*
X120150000Y-136150000D03*
%TD*%
D11*
%TO.C,SW2*%
X126000000Y-147550000D03*
X120000000Y-147550000D03*
D12*
X123000000Y-146195000D03*
X124000000Y-146195000D03*
X122000000Y-146195000D03*
%TD*%
D13*
%TO.C,U3*%
X137462500Y-133900000D03*
X138537500Y-133900000D03*
D14*
X138000000Y-135675000D03*
X138000000Y-133825000D03*
D13*
X138537500Y-135600000D03*
X137462500Y-135600000D03*
%TD*%
%TO.C,C9*%
G36*
G01*
X143250000Y-132925000D02*
X142750000Y-132925000D01*
G75*
G02*
X142525000Y-132700000I0J225000D01*
G01*
X142525000Y-132250000D01*
G75*
G02*
X142750000Y-132025000I225000J0D01*
G01*
X143250000Y-132025000D01*
G75*
G02*
X143475000Y-132250000I0J-225000D01*
G01*
X143475000Y-132700000D01*
G75*
G02*
X143250000Y-132925000I-225000J0D01*
G01*
G37*
G36*
G01*
X143250000Y-134475000D02*
X142750000Y-134475000D01*
G75*
G02*
X142525000Y-134250000I0J225000D01*
G01*
X142525000Y-133800000D01*
G75*
G02*
X142750000Y-133575000I225000J0D01*
G01*
X143250000Y-133575000D01*
G75*
G02*
X143475000Y-133800000I0J-225000D01*
G01*
X143475000Y-134250000D01*
G75*
G02*
X143250000Y-134475000I-225000J0D01*
G01*
G37*
%TD*%
D15*
%TO.C,J5*%
X135375000Y-140035000D03*
X135875000Y-140035000D03*
X136375000Y-140035000D03*
X136875000Y-140035000D03*
X137375000Y-140035000D03*
X137875000Y-140035000D03*
X138375000Y-140035000D03*
X138875000Y-140035000D03*
X139375000Y-140035000D03*
X139875000Y-140035000D03*
X140375000Y-140035000D03*
X140875000Y-140035000D03*
X140625000Y-141685000D03*
X140125000Y-141685000D03*
X139625000Y-141685000D03*
X139125000Y-141685000D03*
X138625000Y-141685000D03*
X138125000Y-141685000D03*
X137625000Y-141685000D03*
X137125000Y-141685000D03*
X136625000Y-141685000D03*
X136125000Y-141685000D03*
X135625000Y-141685000D03*
X135125000Y-141685000D03*
%TD*%
%TO.C,U1*%
G36*
G01*
X130600000Y-110300000D02*
X130600000Y-108850000D01*
G75*
G02*
X130675000Y-108775000I75000J0D01*
G01*
X130825000Y-108775000D01*
G75*
G02*
X130900000Y-108850000I0J-75000D01*
G01*
X130900000Y-110300000D01*
G75*
G02*
X130825000Y-110375000I-75000J0D01*
G01*
X130675000Y-110375000D01*
G75*
G02*
X130600000Y-110300000I0J75000D01*
G01*
G37*
G36*
G01*
X131100000Y-110300000D02*
X131100000Y-108850000D01*
G75*
G02*
X131175000Y-108775000I75000J0D01*
G01*
X131325000Y-108775000D01*
G75*
G02*
X131400000Y-108850000I0J-75000D01*
G01*
X131400000Y-110300000D01*
G75*
G02*
X131325000Y-110375000I-75000J0D01*
G01*
X131175000Y-110375000D01*
G75*
G02*
X131100000Y-110300000I0J75000D01*
G01*
G37*
G36*
G01*
X131600000Y-110300000D02*
X131600000Y-108850000D01*
G75*
G02*
X131675000Y-108775000I75000J0D01*
G01*
X131825000Y-108775000D01*
G75*
G02*
X131900000Y-108850000I0J-75000D01*
G01*
X131900000Y-110300000D01*
G75*
G02*
X131825000Y-110375000I-75000J0D01*
G01*
X131675000Y-110375000D01*
G75*
G02*
X131600000Y-110300000I0J75000D01*
G01*
G37*
G36*
G01*
X132100000Y-110300000D02*
X132100000Y-108850000D01*
G75*
G02*
X132175000Y-108775000I75000J0D01*
G01*
X132325000Y-108775000D01*
G75*
G02*
X132400000Y-108850000I0J-75000D01*
G01*
X132400000Y-110300000D01*
G75*
G02*
X132325000Y-110375000I-75000J0D01*
G01*
X132175000Y-110375000D01*
G75*
G02*
X132100000Y-110300000I0J75000D01*
G01*
G37*
G36*
G01*
X132600000Y-110300000D02*
X132600000Y-108850000D01*
G75*
G02*
X132675000Y-108775000I75000J0D01*
G01*
X132825000Y-108775000D01*
G75*
G02*
X132900000Y-108850000I0J-75000D01*
G01*
X132900000Y-110300000D01*
G75*
G02*
X132825000Y-110375000I-75000J0D01*
G01*
X132675000Y-110375000D01*
G75*
G02*
X132600000Y-110300000I0J75000D01*
G01*
G37*
G36*
G01*
X133100000Y-110300000D02*
X133100000Y-108850000D01*
G75*
G02*
X133175000Y-108775000I75000J0D01*
G01*
X133325000Y-108775000D01*
G75*
G02*
X133400000Y-108850000I0J-75000D01*
G01*
X133400000Y-110300000D01*
G75*
G02*
X133325000Y-110375000I-75000J0D01*
G01*
X133175000Y-110375000D01*
G75*
G02*
X133100000Y-110300000I0J75000D01*
G01*
G37*
G36*
G01*
X133600000Y-110300000D02*
X133600000Y-108850000D01*
G75*
G02*
X133675000Y-108775000I75000J0D01*
G01*
X133825000Y-108775000D01*
G75*
G02*
X133900000Y-108850000I0J-75000D01*
G01*
X133900000Y-110300000D01*
G75*
G02*
X133825000Y-110375000I-75000J0D01*
G01*
X133675000Y-110375000D01*
G75*
G02*
X133600000Y-110300000I0J75000D01*
G01*
G37*
G36*
G01*
X134100000Y-110300000D02*
X134100000Y-108850000D01*
G75*
G02*
X134175000Y-108775000I75000J0D01*
G01*
X134325000Y-108775000D01*
G75*
G02*
X134400000Y-108850000I0J-75000D01*
G01*
X134400000Y-110300000D01*
G75*
G02*
X134325000Y-110375000I-75000J0D01*
G01*
X134175000Y-110375000D01*
G75*
G02*
X134100000Y-110300000I0J75000D01*
G01*
G37*
G36*
G01*
X134600000Y-110300000D02*
X134600000Y-108850000D01*
G75*
G02*
X134675000Y-108775000I75000J0D01*
G01*
X134825000Y-108775000D01*
G75*
G02*
X134900000Y-108850000I0J-75000D01*
G01*
X134900000Y-110300000D01*
G75*
G02*
X134825000Y-110375000I-75000J0D01*
G01*
X134675000Y-110375000D01*
G75*
G02*
X134600000Y-110300000I0J75000D01*
G01*
G37*
G36*
G01*
X135100000Y-110300000D02*
X135100000Y-108850000D01*
G75*
G02*
X135175000Y-108775000I75000J0D01*
G01*
X135325000Y-108775000D01*
G75*
G02*
X135400000Y-108850000I0J-75000D01*
G01*
X135400000Y-110300000D01*
G75*
G02*
X135325000Y-110375000I-75000J0D01*
G01*
X135175000Y-110375000D01*
G75*
G02*
X135100000Y-110300000I0J75000D01*
G01*
G37*
G36*
G01*
X135600000Y-110300000D02*
X135600000Y-108850000D01*
G75*
G02*
X135675000Y-108775000I75000J0D01*
G01*
X135825000Y-108775000D01*
G75*
G02*
X135900000Y-108850000I0J-75000D01*
G01*
X135900000Y-110300000D01*
G75*
G02*
X135825000Y-110375000I-75000J0D01*
G01*
X135675000Y-110375000D01*
G75*
G02*
X135600000Y-110300000I0J75000D01*
G01*
G37*
G36*
G01*
X136100000Y-110300000D02*
X136100000Y-108850000D01*
G75*
G02*
X136175000Y-108775000I75000J0D01*
G01*
X136325000Y-108775000D01*
G75*
G02*
X136400000Y-108850000I0J-75000D01*
G01*
X136400000Y-110300000D01*
G75*
G02*
X136325000Y-110375000I-75000J0D01*
G01*
X136175000Y-110375000D01*
G75*
G02*
X136100000Y-110300000I0J75000D01*
G01*
G37*
G36*
G01*
X136600000Y-110300000D02*
X136600000Y-108850000D01*
G75*
G02*
X136675000Y-108775000I75000J0D01*
G01*
X136825000Y-108775000D01*
G75*
G02*
X136900000Y-108850000I0J-75000D01*
G01*
X136900000Y-110300000D01*
G75*
G02*
X136825000Y-110375000I-75000J0D01*
G01*
X136675000Y-110375000D01*
G75*
G02*
X136600000Y-110300000I0J75000D01*
G01*
G37*
G36*
G01*
X137100000Y-110300000D02*
X137100000Y-108850000D01*
G75*
G02*
X137175000Y-108775000I75000J0D01*
G01*
X137325000Y-108775000D01*
G75*
G02*
X137400000Y-108850000I0J-75000D01*
G01*
X137400000Y-110300000D01*
G75*
G02*
X137325000Y-110375000I-75000J0D01*
G01*
X137175000Y-110375000D01*
G75*
G02*
X137100000Y-110300000I0J75000D01*
G01*
G37*
G36*
G01*
X137600000Y-110300000D02*
X137600000Y-108850000D01*
G75*
G02*
X137675000Y-108775000I75000J0D01*
G01*
X137825000Y-108775000D01*
G75*
G02*
X137900000Y-108850000I0J-75000D01*
G01*
X137900000Y-110300000D01*
G75*
G02*
X137825000Y-110375000I-75000J0D01*
G01*
X137675000Y-110375000D01*
G75*
G02*
X137600000Y-110300000I0J75000D01*
G01*
G37*
G36*
G01*
X138100000Y-110300000D02*
X138100000Y-108850000D01*
G75*
G02*
X138175000Y-108775000I75000J0D01*
G01*
X138325000Y-108775000D01*
G75*
G02*
X138400000Y-108850000I0J-75000D01*
G01*
X138400000Y-110300000D01*
G75*
G02*
X138325000Y-110375000I-75000J0D01*
G01*
X138175000Y-110375000D01*
G75*
G02*
X138100000Y-110300000I0J75000D01*
G01*
G37*
G36*
G01*
X138600000Y-110300000D02*
X138600000Y-108850000D01*
G75*
G02*
X138675000Y-108775000I75000J0D01*
G01*
X138825000Y-108775000D01*
G75*
G02*
X138900000Y-108850000I0J-75000D01*
G01*
X138900000Y-110300000D01*
G75*
G02*
X138825000Y-110375000I-75000J0D01*
G01*
X138675000Y-110375000D01*
G75*
G02*
X138600000Y-110300000I0J75000D01*
G01*
G37*
G36*
G01*
X139100000Y-110300000D02*
X139100000Y-108850000D01*
G75*
G02*
X139175000Y-108775000I75000J0D01*
G01*
X139325000Y-108775000D01*
G75*
G02*
X139400000Y-108850000I0J-75000D01*
G01*
X139400000Y-110300000D01*
G75*
G02*
X139325000Y-110375000I-75000J0D01*
G01*
X139175000Y-110375000D01*
G75*
G02*
X139100000Y-110300000I0J75000D01*
G01*
G37*
G36*
G01*
X139600000Y-110300000D02*
X139600000Y-108850000D01*
G75*
G02*
X139675000Y-108775000I75000J0D01*
G01*
X139825000Y-108775000D01*
G75*
G02*
X139900000Y-108850000I0J-75000D01*
G01*
X139900000Y-110300000D01*
G75*
G02*
X139825000Y-110375000I-75000J0D01*
G01*
X139675000Y-110375000D01*
G75*
G02*
X139600000Y-110300000I0J75000D01*
G01*
G37*
G36*
G01*
X140100000Y-110300000D02*
X140100000Y-108850000D01*
G75*
G02*
X140175000Y-108775000I75000J0D01*
G01*
X140325000Y-108775000D01*
G75*
G02*
X140400000Y-108850000I0J-75000D01*
G01*
X140400000Y-110300000D01*
G75*
G02*
X140325000Y-110375000I-75000J0D01*
G01*
X140175000Y-110375000D01*
G75*
G02*
X140100000Y-110300000I0J75000D01*
G01*
G37*
G36*
G01*
X140600000Y-110300000D02*
X140600000Y-108850000D01*
G75*
G02*
X140675000Y-108775000I75000J0D01*
G01*
X140825000Y-108775000D01*
G75*
G02*
X140900000Y-108850000I0J-75000D01*
G01*
X140900000Y-110300000D01*
G75*
G02*
X140825000Y-110375000I-75000J0D01*
G01*
X140675000Y-110375000D01*
G75*
G02*
X140600000Y-110300000I0J75000D01*
G01*
G37*
G36*
G01*
X141100000Y-110300000D02*
X141100000Y-108850000D01*
G75*
G02*
X141175000Y-108775000I75000J0D01*
G01*
X141325000Y-108775000D01*
G75*
G02*
X141400000Y-108850000I0J-75000D01*
G01*
X141400000Y-110300000D01*
G75*
G02*
X141325000Y-110375000I-75000J0D01*
G01*
X141175000Y-110375000D01*
G75*
G02*
X141100000Y-110300000I0J75000D01*
G01*
G37*
G36*
G01*
X141600000Y-110300000D02*
X141600000Y-108850000D01*
G75*
G02*
X141675000Y-108775000I75000J0D01*
G01*
X141825000Y-108775000D01*
G75*
G02*
X141900000Y-108850000I0J-75000D01*
G01*
X141900000Y-110300000D01*
G75*
G02*
X141825000Y-110375000I-75000J0D01*
G01*
X141675000Y-110375000D01*
G75*
G02*
X141600000Y-110300000I0J75000D01*
G01*
G37*
G36*
G01*
X142100000Y-110300000D02*
X142100000Y-108850000D01*
G75*
G02*
X142175000Y-108775000I75000J0D01*
G01*
X142325000Y-108775000D01*
G75*
G02*
X142400000Y-108850000I0J-75000D01*
G01*
X142400000Y-110300000D01*
G75*
G02*
X142325000Y-110375000I-75000J0D01*
G01*
X142175000Y-110375000D01*
G75*
G02*
X142100000Y-110300000I0J75000D01*
G01*
G37*
G36*
G01*
X142600000Y-110300000D02*
X142600000Y-108850000D01*
G75*
G02*
X142675000Y-108775000I75000J0D01*
G01*
X142825000Y-108775000D01*
G75*
G02*
X142900000Y-108850000I0J-75000D01*
G01*
X142900000Y-110300000D01*
G75*
G02*
X142825000Y-110375000I-75000J0D01*
G01*
X142675000Y-110375000D01*
G75*
G02*
X142600000Y-110300000I0J75000D01*
G01*
G37*
G36*
G01*
X143625000Y-111325000D02*
X143625000Y-111175000D01*
G75*
G02*
X143700000Y-111100000I75000J0D01*
G01*
X145150000Y-111100000D01*
G75*
G02*
X145225000Y-111175000I0J-75000D01*
G01*
X145225000Y-111325000D01*
G75*
G02*
X145150000Y-111400000I-75000J0D01*
G01*
X143700000Y-111400000D01*
G75*
G02*
X143625000Y-111325000I0J75000D01*
G01*
G37*
G36*
G01*
X143625000Y-111825000D02*
X143625000Y-111675000D01*
G75*
G02*
X143700000Y-111600000I75000J0D01*
G01*
X145150000Y-111600000D01*
G75*
G02*
X145225000Y-111675000I0J-75000D01*
G01*
X145225000Y-111825000D01*
G75*
G02*
X145150000Y-111900000I-75000J0D01*
G01*
X143700000Y-111900000D01*
G75*
G02*
X143625000Y-111825000I0J75000D01*
G01*
G37*
G36*
G01*
X143625000Y-112325000D02*
X143625000Y-112175000D01*
G75*
G02*
X143700000Y-112100000I75000J0D01*
G01*
X145150000Y-112100000D01*
G75*
G02*
X145225000Y-112175000I0J-75000D01*
G01*
X145225000Y-112325000D01*
G75*
G02*
X145150000Y-112400000I-75000J0D01*
G01*
X143700000Y-112400000D01*
G75*
G02*
X143625000Y-112325000I0J75000D01*
G01*
G37*
G36*
G01*
X143625000Y-112825000D02*
X143625000Y-112675000D01*
G75*
G02*
X143700000Y-112600000I75000J0D01*
G01*
X145150000Y-112600000D01*
G75*
G02*
X145225000Y-112675000I0J-75000D01*
G01*
X145225000Y-112825000D01*
G75*
G02*
X145150000Y-112900000I-75000J0D01*
G01*
X143700000Y-112900000D01*
G75*
G02*
X143625000Y-112825000I0J75000D01*
G01*
G37*
G36*
G01*
X143625000Y-113325000D02*
X143625000Y-113175000D01*
G75*
G02*
X143700000Y-113100000I75000J0D01*
G01*
X145150000Y-113100000D01*
G75*
G02*
X145225000Y-113175000I0J-75000D01*
G01*
X145225000Y-113325000D01*
G75*
G02*
X145150000Y-113400000I-75000J0D01*
G01*
X143700000Y-113400000D01*
G75*
G02*
X143625000Y-113325000I0J75000D01*
G01*
G37*
G36*
G01*
X143625000Y-113825000D02*
X143625000Y-113675000D01*
G75*
G02*
X143700000Y-113600000I75000J0D01*
G01*
X145150000Y-113600000D01*
G75*
G02*
X145225000Y-113675000I0J-75000D01*
G01*
X145225000Y-113825000D01*
G75*
G02*
X145150000Y-113900000I-75000J0D01*
G01*
X143700000Y-113900000D01*
G75*
G02*
X143625000Y-113825000I0J75000D01*
G01*
G37*
G36*
G01*
X143625000Y-114325000D02*
X143625000Y-114175000D01*
G75*
G02*
X143700000Y-114100000I75000J0D01*
G01*
X145150000Y-114100000D01*
G75*
G02*
X145225000Y-114175000I0J-75000D01*
G01*
X145225000Y-114325000D01*
G75*
G02*
X145150000Y-114400000I-75000J0D01*
G01*
X143700000Y-114400000D01*
G75*
G02*
X143625000Y-114325000I0J75000D01*
G01*
G37*
G36*
G01*
X143625000Y-114825000D02*
X143625000Y-114675000D01*
G75*
G02*
X143700000Y-114600000I75000J0D01*
G01*
X145150000Y-114600000D01*
G75*
G02*
X145225000Y-114675000I0J-75000D01*
G01*
X145225000Y-114825000D01*
G75*
G02*
X145150000Y-114900000I-75000J0D01*
G01*
X143700000Y-114900000D01*
G75*
G02*
X143625000Y-114825000I0J75000D01*
G01*
G37*
G36*
G01*
X143625000Y-115325000D02*
X143625000Y-115175000D01*
G75*
G02*
X143700000Y-115100000I75000J0D01*
G01*
X145150000Y-115100000D01*
G75*
G02*
X145225000Y-115175000I0J-75000D01*
G01*
X145225000Y-115325000D01*
G75*
G02*
X145150000Y-115400000I-75000J0D01*
G01*
X143700000Y-115400000D01*
G75*
G02*
X143625000Y-115325000I0J75000D01*
G01*
G37*
G36*
G01*
X143625000Y-115825000D02*
X143625000Y-115675000D01*
G75*
G02*
X143700000Y-115600000I75000J0D01*
G01*
X145150000Y-115600000D01*
G75*
G02*
X145225000Y-115675000I0J-75000D01*
G01*
X145225000Y-115825000D01*
G75*
G02*
X145150000Y-115900000I-75000J0D01*
G01*
X143700000Y-115900000D01*
G75*
G02*
X143625000Y-115825000I0J75000D01*
G01*
G37*
G36*
G01*
X143625000Y-116325000D02*
X143625000Y-116175000D01*
G75*
G02*
X143700000Y-116100000I75000J0D01*
G01*
X145150000Y-116100000D01*
G75*
G02*
X145225000Y-116175000I0J-75000D01*
G01*
X145225000Y-116325000D01*
G75*
G02*
X145150000Y-116400000I-75000J0D01*
G01*
X143700000Y-116400000D01*
G75*
G02*
X143625000Y-116325000I0J75000D01*
G01*
G37*
G36*
G01*
X143625000Y-116825000D02*
X143625000Y-116675000D01*
G75*
G02*
X143700000Y-116600000I75000J0D01*
G01*
X145150000Y-116600000D01*
G75*
G02*
X145225000Y-116675000I0J-75000D01*
G01*
X145225000Y-116825000D01*
G75*
G02*
X145150000Y-116900000I-75000J0D01*
G01*
X143700000Y-116900000D01*
G75*
G02*
X143625000Y-116825000I0J75000D01*
G01*
G37*
G36*
G01*
X143625000Y-117325000D02*
X143625000Y-117175000D01*
G75*
G02*
X143700000Y-117100000I75000J0D01*
G01*
X145150000Y-117100000D01*
G75*
G02*
X145225000Y-117175000I0J-75000D01*
G01*
X145225000Y-117325000D01*
G75*
G02*
X145150000Y-117400000I-75000J0D01*
G01*
X143700000Y-117400000D01*
G75*
G02*
X143625000Y-117325000I0J75000D01*
G01*
G37*
G36*
G01*
X143625000Y-117825000D02*
X143625000Y-117675000D01*
G75*
G02*
X143700000Y-117600000I75000J0D01*
G01*
X145150000Y-117600000D01*
G75*
G02*
X145225000Y-117675000I0J-75000D01*
G01*
X145225000Y-117825000D01*
G75*
G02*
X145150000Y-117900000I-75000J0D01*
G01*
X143700000Y-117900000D01*
G75*
G02*
X143625000Y-117825000I0J75000D01*
G01*
G37*
G36*
G01*
X143625000Y-118325000D02*
X143625000Y-118175000D01*
G75*
G02*
X143700000Y-118100000I75000J0D01*
G01*
X145150000Y-118100000D01*
G75*
G02*
X145225000Y-118175000I0J-75000D01*
G01*
X145225000Y-118325000D01*
G75*
G02*
X145150000Y-118400000I-75000J0D01*
G01*
X143700000Y-118400000D01*
G75*
G02*
X143625000Y-118325000I0J75000D01*
G01*
G37*
G36*
G01*
X143625000Y-118825000D02*
X143625000Y-118675000D01*
G75*
G02*
X143700000Y-118600000I75000J0D01*
G01*
X145150000Y-118600000D01*
G75*
G02*
X145225000Y-118675000I0J-75000D01*
G01*
X145225000Y-118825000D01*
G75*
G02*
X145150000Y-118900000I-75000J0D01*
G01*
X143700000Y-118900000D01*
G75*
G02*
X143625000Y-118825000I0J75000D01*
G01*
G37*
G36*
G01*
X143625000Y-119325000D02*
X143625000Y-119175000D01*
G75*
G02*
X143700000Y-119100000I75000J0D01*
G01*
X145150000Y-119100000D01*
G75*
G02*
X145225000Y-119175000I0J-75000D01*
G01*
X145225000Y-119325000D01*
G75*
G02*
X145150000Y-119400000I-75000J0D01*
G01*
X143700000Y-119400000D01*
G75*
G02*
X143625000Y-119325000I0J75000D01*
G01*
G37*
G36*
G01*
X143625000Y-119825000D02*
X143625000Y-119675000D01*
G75*
G02*
X143700000Y-119600000I75000J0D01*
G01*
X145150000Y-119600000D01*
G75*
G02*
X145225000Y-119675000I0J-75000D01*
G01*
X145225000Y-119825000D01*
G75*
G02*
X145150000Y-119900000I-75000J0D01*
G01*
X143700000Y-119900000D01*
G75*
G02*
X143625000Y-119825000I0J75000D01*
G01*
G37*
G36*
G01*
X143625000Y-120325000D02*
X143625000Y-120175000D01*
G75*
G02*
X143700000Y-120100000I75000J0D01*
G01*
X145150000Y-120100000D01*
G75*
G02*
X145225000Y-120175000I0J-75000D01*
G01*
X145225000Y-120325000D01*
G75*
G02*
X145150000Y-120400000I-75000J0D01*
G01*
X143700000Y-120400000D01*
G75*
G02*
X143625000Y-120325000I0J75000D01*
G01*
G37*
G36*
G01*
X143625000Y-120825000D02*
X143625000Y-120675000D01*
G75*
G02*
X143700000Y-120600000I75000J0D01*
G01*
X145150000Y-120600000D01*
G75*
G02*
X145225000Y-120675000I0J-75000D01*
G01*
X145225000Y-120825000D01*
G75*
G02*
X145150000Y-120900000I-75000J0D01*
G01*
X143700000Y-120900000D01*
G75*
G02*
X143625000Y-120825000I0J75000D01*
G01*
G37*
G36*
G01*
X143625000Y-121325000D02*
X143625000Y-121175000D01*
G75*
G02*
X143700000Y-121100000I75000J0D01*
G01*
X145150000Y-121100000D01*
G75*
G02*
X145225000Y-121175000I0J-75000D01*
G01*
X145225000Y-121325000D01*
G75*
G02*
X145150000Y-121400000I-75000J0D01*
G01*
X143700000Y-121400000D01*
G75*
G02*
X143625000Y-121325000I0J75000D01*
G01*
G37*
G36*
G01*
X143625000Y-121825000D02*
X143625000Y-121675000D01*
G75*
G02*
X143700000Y-121600000I75000J0D01*
G01*
X145150000Y-121600000D01*
G75*
G02*
X145225000Y-121675000I0J-75000D01*
G01*
X145225000Y-121825000D01*
G75*
G02*
X145150000Y-121900000I-75000J0D01*
G01*
X143700000Y-121900000D01*
G75*
G02*
X143625000Y-121825000I0J75000D01*
G01*
G37*
G36*
G01*
X143625000Y-122325000D02*
X143625000Y-122175000D01*
G75*
G02*
X143700000Y-122100000I75000J0D01*
G01*
X145150000Y-122100000D01*
G75*
G02*
X145225000Y-122175000I0J-75000D01*
G01*
X145225000Y-122325000D01*
G75*
G02*
X145150000Y-122400000I-75000J0D01*
G01*
X143700000Y-122400000D01*
G75*
G02*
X143625000Y-122325000I0J75000D01*
G01*
G37*
G36*
G01*
X143625000Y-122825000D02*
X143625000Y-122675000D01*
G75*
G02*
X143700000Y-122600000I75000J0D01*
G01*
X145150000Y-122600000D01*
G75*
G02*
X145225000Y-122675000I0J-75000D01*
G01*
X145225000Y-122825000D01*
G75*
G02*
X145150000Y-122900000I-75000J0D01*
G01*
X143700000Y-122900000D01*
G75*
G02*
X143625000Y-122825000I0J75000D01*
G01*
G37*
G36*
G01*
X143625000Y-123325000D02*
X143625000Y-123175000D01*
G75*
G02*
X143700000Y-123100000I75000J0D01*
G01*
X145150000Y-123100000D01*
G75*
G02*
X145225000Y-123175000I0J-75000D01*
G01*
X145225000Y-123325000D01*
G75*
G02*
X145150000Y-123400000I-75000J0D01*
G01*
X143700000Y-123400000D01*
G75*
G02*
X143625000Y-123325000I0J75000D01*
G01*
G37*
G36*
G01*
X142600000Y-125650000D02*
X142600000Y-124200000D01*
G75*
G02*
X142675000Y-124125000I75000J0D01*
G01*
X142825000Y-124125000D01*
G75*
G02*
X142900000Y-124200000I0J-75000D01*
G01*
X142900000Y-125650000D01*
G75*
G02*
X142825000Y-125725000I-75000J0D01*
G01*
X142675000Y-125725000D01*
G75*
G02*
X142600000Y-125650000I0J75000D01*
G01*
G37*
G36*
G01*
X142100000Y-125650000D02*
X142100000Y-124200000D01*
G75*
G02*
X142175000Y-124125000I75000J0D01*
G01*
X142325000Y-124125000D01*
G75*
G02*
X142400000Y-124200000I0J-75000D01*
G01*
X142400000Y-125650000D01*
G75*
G02*
X142325000Y-125725000I-75000J0D01*
G01*
X142175000Y-125725000D01*
G75*
G02*
X142100000Y-125650000I0J75000D01*
G01*
G37*
G36*
G01*
X141600000Y-125650000D02*
X141600000Y-124200000D01*
G75*
G02*
X141675000Y-124125000I75000J0D01*
G01*
X141825000Y-124125000D01*
G75*
G02*
X141900000Y-124200000I0J-75000D01*
G01*
X141900000Y-125650000D01*
G75*
G02*
X141825000Y-125725000I-75000J0D01*
G01*
X141675000Y-125725000D01*
G75*
G02*
X141600000Y-125650000I0J75000D01*
G01*
G37*
G36*
G01*
X141100000Y-125650000D02*
X141100000Y-124200000D01*
G75*
G02*
X141175000Y-124125000I75000J0D01*
G01*
X141325000Y-124125000D01*
G75*
G02*
X141400000Y-124200000I0J-75000D01*
G01*
X141400000Y-125650000D01*
G75*
G02*
X141325000Y-125725000I-75000J0D01*
G01*
X141175000Y-125725000D01*
G75*
G02*
X141100000Y-125650000I0J75000D01*
G01*
G37*
G36*
G01*
X140600000Y-125650000D02*
X140600000Y-124200000D01*
G75*
G02*
X140675000Y-124125000I75000J0D01*
G01*
X140825000Y-124125000D01*
G75*
G02*
X140900000Y-124200000I0J-75000D01*
G01*
X140900000Y-125650000D01*
G75*
G02*
X140825000Y-125725000I-75000J0D01*
G01*
X140675000Y-125725000D01*
G75*
G02*
X140600000Y-125650000I0J75000D01*
G01*
G37*
G36*
G01*
X140100000Y-125650000D02*
X140100000Y-124200000D01*
G75*
G02*
X140175000Y-124125000I75000J0D01*
G01*
X140325000Y-124125000D01*
G75*
G02*
X140400000Y-124200000I0J-75000D01*
G01*
X140400000Y-125650000D01*
G75*
G02*
X140325000Y-125725000I-75000J0D01*
G01*
X140175000Y-125725000D01*
G75*
G02*
X140100000Y-125650000I0J75000D01*
G01*
G37*
G36*
G01*
X139600000Y-125650000D02*
X139600000Y-124200000D01*
G75*
G02*
X139675000Y-124125000I75000J0D01*
G01*
X139825000Y-124125000D01*
G75*
G02*
X139900000Y-124200000I0J-75000D01*
G01*
X139900000Y-125650000D01*
G75*
G02*
X139825000Y-125725000I-75000J0D01*
G01*
X139675000Y-125725000D01*
G75*
G02*
X139600000Y-125650000I0J75000D01*
G01*
G37*
G36*
G01*
X139100000Y-125650000D02*
X139100000Y-124200000D01*
G75*
G02*
X139175000Y-124125000I75000J0D01*
G01*
X139325000Y-124125000D01*
G75*
G02*
X139400000Y-124200000I0J-75000D01*
G01*
X139400000Y-125650000D01*
G75*
G02*
X139325000Y-125725000I-75000J0D01*
G01*
X139175000Y-125725000D01*
G75*
G02*
X139100000Y-125650000I0J75000D01*
G01*
G37*
G36*
G01*
X138600000Y-125650000D02*
X138600000Y-124200000D01*
G75*
G02*
X138675000Y-124125000I75000J0D01*
G01*
X138825000Y-124125000D01*
G75*
G02*
X138900000Y-124200000I0J-75000D01*
G01*
X138900000Y-125650000D01*
G75*
G02*
X138825000Y-125725000I-75000J0D01*
G01*
X138675000Y-125725000D01*
G75*
G02*
X138600000Y-125650000I0J75000D01*
G01*
G37*
G36*
G01*
X138100000Y-125650000D02*
X138100000Y-124200000D01*
G75*
G02*
X138175000Y-124125000I75000J0D01*
G01*
X138325000Y-124125000D01*
G75*
G02*
X138400000Y-124200000I0J-75000D01*
G01*
X138400000Y-125650000D01*
G75*
G02*
X138325000Y-125725000I-75000J0D01*
G01*
X138175000Y-125725000D01*
G75*
G02*
X138100000Y-125650000I0J75000D01*
G01*
G37*
G36*
G01*
X137600000Y-125650000D02*
X137600000Y-124200000D01*
G75*
G02*
X137675000Y-124125000I75000J0D01*
G01*
X137825000Y-124125000D01*
G75*
G02*
X137900000Y-124200000I0J-75000D01*
G01*
X137900000Y-125650000D01*
G75*
G02*
X137825000Y-125725000I-75000J0D01*
G01*
X137675000Y-125725000D01*
G75*
G02*
X137600000Y-125650000I0J75000D01*
G01*
G37*
G36*
G01*
X137100000Y-125650000D02*
X137100000Y-124200000D01*
G75*
G02*
X137175000Y-124125000I75000J0D01*
G01*
X137325000Y-124125000D01*
G75*
G02*
X137400000Y-124200000I0J-75000D01*
G01*
X137400000Y-125650000D01*
G75*
G02*
X137325000Y-125725000I-75000J0D01*
G01*
X137175000Y-125725000D01*
G75*
G02*
X137100000Y-125650000I0J75000D01*
G01*
G37*
G36*
G01*
X136600000Y-125650000D02*
X136600000Y-124200000D01*
G75*
G02*
X136675000Y-124125000I75000J0D01*
G01*
X136825000Y-124125000D01*
G75*
G02*
X136900000Y-124200000I0J-75000D01*
G01*
X136900000Y-125650000D01*
G75*
G02*
X136825000Y-125725000I-75000J0D01*
G01*
X136675000Y-125725000D01*
G75*
G02*
X136600000Y-125650000I0J75000D01*
G01*
G37*
G36*
G01*
X136100000Y-125650000D02*
X136100000Y-124200000D01*
G75*
G02*
X136175000Y-124125000I75000J0D01*
G01*
X136325000Y-124125000D01*
G75*
G02*
X136400000Y-124200000I0J-75000D01*
G01*
X136400000Y-125650000D01*
G75*
G02*
X136325000Y-125725000I-75000J0D01*
G01*
X136175000Y-125725000D01*
G75*
G02*
X136100000Y-125650000I0J75000D01*
G01*
G37*
G36*
G01*
X135600000Y-125650000D02*
X135600000Y-124200000D01*
G75*
G02*
X135675000Y-124125000I75000J0D01*
G01*
X135825000Y-124125000D01*
G75*
G02*
X135900000Y-124200000I0J-75000D01*
G01*
X135900000Y-125650000D01*
G75*
G02*
X135825000Y-125725000I-75000J0D01*
G01*
X135675000Y-125725000D01*
G75*
G02*
X135600000Y-125650000I0J75000D01*
G01*
G37*
G36*
G01*
X135100000Y-125650000D02*
X135100000Y-124200000D01*
G75*
G02*
X135175000Y-124125000I75000J0D01*
G01*
X135325000Y-124125000D01*
G75*
G02*
X135400000Y-124200000I0J-75000D01*
G01*
X135400000Y-125650000D01*
G75*
G02*
X135325000Y-125725000I-75000J0D01*
G01*
X135175000Y-125725000D01*
G75*
G02*
X135100000Y-125650000I0J75000D01*
G01*
G37*
G36*
G01*
X134600000Y-125650000D02*
X134600000Y-124200000D01*
G75*
G02*
X134675000Y-124125000I75000J0D01*
G01*
X134825000Y-124125000D01*
G75*
G02*
X134900000Y-124200000I0J-75000D01*
G01*
X134900000Y-125650000D01*
G75*
G02*
X134825000Y-125725000I-75000J0D01*
G01*
X134675000Y-125725000D01*
G75*
G02*
X134600000Y-125650000I0J75000D01*
G01*
G37*
G36*
G01*
X134100000Y-125650000D02*
X134100000Y-124200000D01*
G75*
G02*
X134175000Y-124125000I75000J0D01*
G01*
X134325000Y-124125000D01*
G75*
G02*
X134400000Y-124200000I0J-75000D01*
G01*
X134400000Y-125650000D01*
G75*
G02*
X134325000Y-125725000I-75000J0D01*
G01*
X134175000Y-125725000D01*
G75*
G02*
X134100000Y-125650000I0J75000D01*
G01*
G37*
G36*
G01*
X133600000Y-125650000D02*
X133600000Y-124200000D01*
G75*
G02*
X133675000Y-124125000I75000J0D01*
G01*
X133825000Y-124125000D01*
G75*
G02*
X133900000Y-124200000I0J-75000D01*
G01*
X133900000Y-125650000D01*
G75*
G02*
X133825000Y-125725000I-75000J0D01*
G01*
X133675000Y-125725000D01*
G75*
G02*
X133600000Y-125650000I0J75000D01*
G01*
G37*
G36*
G01*
X133100000Y-125650000D02*
X133100000Y-124200000D01*
G75*
G02*
X133175000Y-124125000I75000J0D01*
G01*
X133325000Y-124125000D01*
G75*
G02*
X133400000Y-124200000I0J-75000D01*
G01*
X133400000Y-125650000D01*
G75*
G02*
X133325000Y-125725000I-75000J0D01*
G01*
X133175000Y-125725000D01*
G75*
G02*
X133100000Y-125650000I0J75000D01*
G01*
G37*
G36*
G01*
X132600000Y-125650000D02*
X132600000Y-124200000D01*
G75*
G02*
X132675000Y-124125000I75000J0D01*
G01*
X132825000Y-124125000D01*
G75*
G02*
X132900000Y-124200000I0J-75000D01*
G01*
X132900000Y-125650000D01*
G75*
G02*
X132825000Y-125725000I-75000J0D01*
G01*
X132675000Y-125725000D01*
G75*
G02*
X132600000Y-125650000I0J75000D01*
G01*
G37*
G36*
G01*
X132100000Y-125650000D02*
X132100000Y-124200000D01*
G75*
G02*
X132175000Y-124125000I75000J0D01*
G01*
X132325000Y-124125000D01*
G75*
G02*
X132400000Y-124200000I0J-75000D01*
G01*
X132400000Y-125650000D01*
G75*
G02*
X132325000Y-125725000I-75000J0D01*
G01*
X132175000Y-125725000D01*
G75*
G02*
X132100000Y-125650000I0J75000D01*
G01*
G37*
G36*
G01*
X131600000Y-125650000D02*
X131600000Y-124200000D01*
G75*
G02*
X131675000Y-124125000I75000J0D01*
G01*
X131825000Y-124125000D01*
G75*
G02*
X131900000Y-124200000I0J-75000D01*
G01*
X131900000Y-125650000D01*
G75*
G02*
X131825000Y-125725000I-75000J0D01*
G01*
X131675000Y-125725000D01*
G75*
G02*
X131600000Y-125650000I0J75000D01*
G01*
G37*
G36*
G01*
X131100000Y-125650000D02*
X131100000Y-124200000D01*
G75*
G02*
X131175000Y-124125000I75000J0D01*
G01*
X131325000Y-124125000D01*
G75*
G02*
X131400000Y-124200000I0J-75000D01*
G01*
X131400000Y-125650000D01*
G75*
G02*
X131325000Y-125725000I-75000J0D01*
G01*
X131175000Y-125725000D01*
G75*
G02*
X131100000Y-125650000I0J75000D01*
G01*
G37*
G36*
G01*
X130600000Y-125650000D02*
X130600000Y-124200000D01*
G75*
G02*
X130675000Y-124125000I75000J0D01*
G01*
X130825000Y-124125000D01*
G75*
G02*
X130900000Y-124200000I0J-75000D01*
G01*
X130900000Y-125650000D01*
G75*
G02*
X130825000Y-125725000I-75000J0D01*
G01*
X130675000Y-125725000D01*
G75*
G02*
X130600000Y-125650000I0J75000D01*
G01*
G37*
G36*
G01*
X128275000Y-123325000D02*
X128275000Y-123175000D01*
G75*
G02*
X128350000Y-123100000I75000J0D01*
G01*
X129800000Y-123100000D01*
G75*
G02*
X129875000Y-123175000I0J-75000D01*
G01*
X129875000Y-123325000D01*
G75*
G02*
X129800000Y-123400000I-75000J0D01*
G01*
X128350000Y-123400000D01*
G75*
G02*
X128275000Y-123325000I0J75000D01*
G01*
G37*
G36*
G01*
X128275000Y-122825000D02*
X128275000Y-122675000D01*
G75*
G02*
X128350000Y-122600000I75000J0D01*
G01*
X129800000Y-122600000D01*
G75*
G02*
X129875000Y-122675000I0J-75000D01*
G01*
X129875000Y-122825000D01*
G75*
G02*
X129800000Y-122900000I-75000J0D01*
G01*
X128350000Y-122900000D01*
G75*
G02*
X128275000Y-122825000I0J75000D01*
G01*
G37*
G36*
G01*
X128275000Y-122325000D02*
X128275000Y-122175000D01*
G75*
G02*
X128350000Y-122100000I75000J0D01*
G01*
X129800000Y-122100000D01*
G75*
G02*
X129875000Y-122175000I0J-75000D01*
G01*
X129875000Y-122325000D01*
G75*
G02*
X129800000Y-122400000I-75000J0D01*
G01*
X128350000Y-122400000D01*
G75*
G02*
X128275000Y-122325000I0J75000D01*
G01*
G37*
G36*
G01*
X128275000Y-121825000D02*
X128275000Y-121675000D01*
G75*
G02*
X128350000Y-121600000I75000J0D01*
G01*
X129800000Y-121600000D01*
G75*
G02*
X129875000Y-121675000I0J-75000D01*
G01*
X129875000Y-121825000D01*
G75*
G02*
X129800000Y-121900000I-75000J0D01*
G01*
X128350000Y-121900000D01*
G75*
G02*
X128275000Y-121825000I0J75000D01*
G01*
G37*
G36*
G01*
X128275000Y-121325000D02*
X128275000Y-121175000D01*
G75*
G02*
X128350000Y-121100000I75000J0D01*
G01*
X129800000Y-121100000D01*
G75*
G02*
X129875000Y-121175000I0J-75000D01*
G01*
X129875000Y-121325000D01*
G75*
G02*
X129800000Y-121400000I-75000J0D01*
G01*
X128350000Y-121400000D01*
G75*
G02*
X128275000Y-121325000I0J75000D01*
G01*
G37*
G36*
G01*
X128275000Y-120825000D02*
X128275000Y-120675000D01*
G75*
G02*
X128350000Y-120600000I75000J0D01*
G01*
X129800000Y-120600000D01*
G75*
G02*
X129875000Y-120675000I0J-75000D01*
G01*
X129875000Y-120825000D01*
G75*
G02*
X129800000Y-120900000I-75000J0D01*
G01*
X128350000Y-120900000D01*
G75*
G02*
X128275000Y-120825000I0J75000D01*
G01*
G37*
G36*
G01*
X128275000Y-120325000D02*
X128275000Y-120175000D01*
G75*
G02*
X128350000Y-120100000I75000J0D01*
G01*
X129800000Y-120100000D01*
G75*
G02*
X129875000Y-120175000I0J-75000D01*
G01*
X129875000Y-120325000D01*
G75*
G02*
X129800000Y-120400000I-75000J0D01*
G01*
X128350000Y-120400000D01*
G75*
G02*
X128275000Y-120325000I0J75000D01*
G01*
G37*
G36*
G01*
X128275000Y-119825000D02*
X128275000Y-119675000D01*
G75*
G02*
X128350000Y-119600000I75000J0D01*
G01*
X129800000Y-119600000D01*
G75*
G02*
X129875000Y-119675000I0J-75000D01*
G01*
X129875000Y-119825000D01*
G75*
G02*
X129800000Y-119900000I-75000J0D01*
G01*
X128350000Y-119900000D01*
G75*
G02*
X128275000Y-119825000I0J75000D01*
G01*
G37*
G36*
G01*
X128275000Y-119325000D02*
X128275000Y-119175000D01*
G75*
G02*
X128350000Y-119100000I75000J0D01*
G01*
X129800000Y-119100000D01*
G75*
G02*
X129875000Y-119175000I0J-75000D01*
G01*
X129875000Y-119325000D01*
G75*
G02*
X129800000Y-119400000I-75000J0D01*
G01*
X128350000Y-119400000D01*
G75*
G02*
X128275000Y-119325000I0J75000D01*
G01*
G37*
G36*
G01*
X128275000Y-118825000D02*
X128275000Y-118675000D01*
G75*
G02*
X128350000Y-118600000I75000J0D01*
G01*
X129800000Y-118600000D01*
G75*
G02*
X129875000Y-118675000I0J-75000D01*
G01*
X129875000Y-118825000D01*
G75*
G02*
X129800000Y-118900000I-75000J0D01*
G01*
X128350000Y-118900000D01*
G75*
G02*
X128275000Y-118825000I0J75000D01*
G01*
G37*
G36*
G01*
X128275000Y-118325000D02*
X128275000Y-118175000D01*
G75*
G02*
X128350000Y-118100000I75000J0D01*
G01*
X129800000Y-118100000D01*
G75*
G02*
X129875000Y-118175000I0J-75000D01*
G01*
X129875000Y-118325000D01*
G75*
G02*
X129800000Y-118400000I-75000J0D01*
G01*
X128350000Y-118400000D01*
G75*
G02*
X128275000Y-118325000I0J75000D01*
G01*
G37*
G36*
G01*
X128275000Y-117825000D02*
X128275000Y-117675000D01*
G75*
G02*
X128350000Y-117600000I75000J0D01*
G01*
X129800000Y-117600000D01*
G75*
G02*
X129875000Y-117675000I0J-75000D01*
G01*
X129875000Y-117825000D01*
G75*
G02*
X129800000Y-117900000I-75000J0D01*
G01*
X128350000Y-117900000D01*
G75*
G02*
X128275000Y-117825000I0J75000D01*
G01*
G37*
G36*
G01*
X128275000Y-117325000D02*
X128275000Y-117175000D01*
G75*
G02*
X128350000Y-117100000I75000J0D01*
G01*
X129800000Y-117100000D01*
G75*
G02*
X129875000Y-117175000I0J-75000D01*
G01*
X129875000Y-117325000D01*
G75*
G02*
X129800000Y-117400000I-75000J0D01*
G01*
X128350000Y-117400000D01*
G75*
G02*
X128275000Y-117325000I0J75000D01*
G01*
G37*
G36*
G01*
X128275000Y-116825000D02*
X128275000Y-116675000D01*
G75*
G02*
X128350000Y-116600000I75000J0D01*
G01*
X129800000Y-116600000D01*
G75*
G02*
X129875000Y-116675000I0J-75000D01*
G01*
X129875000Y-116825000D01*
G75*
G02*
X129800000Y-116900000I-75000J0D01*
G01*
X128350000Y-116900000D01*
G75*
G02*
X128275000Y-116825000I0J75000D01*
G01*
G37*
G36*
G01*
X128275000Y-116325000D02*
X128275000Y-116175000D01*
G75*
G02*
X128350000Y-116100000I75000J0D01*
G01*
X129800000Y-116100000D01*
G75*
G02*
X129875000Y-116175000I0J-75000D01*
G01*
X129875000Y-116325000D01*
G75*
G02*
X129800000Y-116400000I-75000J0D01*
G01*
X128350000Y-116400000D01*
G75*
G02*
X128275000Y-116325000I0J75000D01*
G01*
G37*
G36*
G01*
X128275000Y-115825000D02*
X128275000Y-115675000D01*
G75*
G02*
X128350000Y-115600000I75000J0D01*
G01*
X129800000Y-115600000D01*
G75*
G02*
X129875000Y-115675000I0J-75000D01*
G01*
X129875000Y-115825000D01*
G75*
G02*
X129800000Y-115900000I-75000J0D01*
G01*
X128350000Y-115900000D01*
G75*
G02*
X128275000Y-115825000I0J75000D01*
G01*
G37*
G36*
G01*
X128275000Y-115325000D02*
X128275000Y-115175000D01*
G75*
G02*
X128350000Y-115100000I75000J0D01*
G01*
X129800000Y-115100000D01*
G75*
G02*
X129875000Y-115175000I0J-75000D01*
G01*
X129875000Y-115325000D01*
G75*
G02*
X129800000Y-115400000I-75000J0D01*
G01*
X128350000Y-115400000D01*
G75*
G02*
X128275000Y-115325000I0J75000D01*
G01*
G37*
G36*
G01*
X128275000Y-114825000D02*
X128275000Y-114675000D01*
G75*
G02*
X128350000Y-114600000I75000J0D01*
G01*
X129800000Y-114600000D01*
G75*
G02*
X129875000Y-114675000I0J-75000D01*
G01*
X129875000Y-114825000D01*
G75*
G02*
X129800000Y-114900000I-75000J0D01*
G01*
X128350000Y-114900000D01*
G75*
G02*
X128275000Y-114825000I0J75000D01*
G01*
G37*
G36*
G01*
X128275000Y-114325000D02*
X128275000Y-114175000D01*
G75*
G02*
X128350000Y-114100000I75000J0D01*
G01*
X129800000Y-114100000D01*
G75*
G02*
X129875000Y-114175000I0J-75000D01*
G01*
X129875000Y-114325000D01*
G75*
G02*
X129800000Y-114400000I-75000J0D01*
G01*
X128350000Y-114400000D01*
G75*
G02*
X128275000Y-114325000I0J75000D01*
G01*
G37*
G36*
G01*
X128275000Y-113825000D02*
X128275000Y-113675000D01*
G75*
G02*
X128350000Y-113600000I75000J0D01*
G01*
X129800000Y-113600000D01*
G75*
G02*
X129875000Y-113675000I0J-75000D01*
G01*
X129875000Y-113825000D01*
G75*
G02*
X129800000Y-113900000I-75000J0D01*
G01*
X128350000Y-113900000D01*
G75*
G02*
X128275000Y-113825000I0J75000D01*
G01*
G37*
G36*
G01*
X128275000Y-113325000D02*
X128275000Y-113175000D01*
G75*
G02*
X128350000Y-113100000I75000J0D01*
G01*
X129800000Y-113100000D01*
G75*
G02*
X129875000Y-113175000I0J-75000D01*
G01*
X129875000Y-113325000D01*
G75*
G02*
X129800000Y-113400000I-75000J0D01*
G01*
X128350000Y-113400000D01*
G75*
G02*
X128275000Y-113325000I0J75000D01*
G01*
G37*
G36*
G01*
X128275000Y-112825000D02*
X128275000Y-112675000D01*
G75*
G02*
X128350000Y-112600000I75000J0D01*
G01*
X129800000Y-112600000D01*
G75*
G02*
X129875000Y-112675000I0J-75000D01*
G01*
X129875000Y-112825000D01*
G75*
G02*
X129800000Y-112900000I-75000J0D01*
G01*
X128350000Y-112900000D01*
G75*
G02*
X128275000Y-112825000I0J75000D01*
G01*
G37*
G36*
G01*
X128275000Y-112325000D02*
X128275000Y-112175000D01*
G75*
G02*
X128350000Y-112100000I75000J0D01*
G01*
X129800000Y-112100000D01*
G75*
G02*
X129875000Y-112175000I0J-75000D01*
G01*
X129875000Y-112325000D01*
G75*
G02*
X129800000Y-112400000I-75000J0D01*
G01*
X128350000Y-112400000D01*
G75*
G02*
X128275000Y-112325000I0J75000D01*
G01*
G37*
G36*
G01*
X128275000Y-111825000D02*
X128275000Y-111675000D01*
G75*
G02*
X128350000Y-111600000I75000J0D01*
G01*
X129800000Y-111600000D01*
G75*
G02*
X129875000Y-111675000I0J-75000D01*
G01*
X129875000Y-111825000D01*
G75*
G02*
X129800000Y-111900000I-75000J0D01*
G01*
X128350000Y-111900000D01*
G75*
G02*
X128275000Y-111825000I0J75000D01*
G01*
G37*
G36*
G01*
X128275000Y-111325000D02*
X128275000Y-111175000D01*
G75*
G02*
X128350000Y-111100000I75000J0D01*
G01*
X129800000Y-111100000D01*
G75*
G02*
X129875000Y-111175000I0J-75000D01*
G01*
X129875000Y-111325000D01*
G75*
G02*
X129800000Y-111400000I-75000J0D01*
G01*
X128350000Y-111400000D01*
G75*
G02*
X128275000Y-111325000I0J75000D01*
G01*
G37*
%TD*%
%TO.C,C17*%
G36*
G01*
X127170000Y-114300000D02*
X126830000Y-114300000D01*
G75*
G02*
X126690000Y-114160000I0J140000D01*
G01*
X126690000Y-113880000D01*
G75*
G02*
X126830000Y-113740000I140000J0D01*
G01*
X127170000Y-113740000D01*
G75*
G02*
X127310000Y-113880000I0J-140000D01*
G01*
X127310000Y-114160000D01*
G75*
G02*
X127170000Y-114300000I-140000J0D01*
G01*
G37*
G36*
G01*
X127170000Y-115260000D02*
X126830000Y-115260000D01*
G75*
G02*
X126690000Y-115120000I0J140000D01*
G01*
X126690000Y-114840000D01*
G75*
G02*
X126830000Y-114700000I140000J0D01*
G01*
X127170000Y-114700000D01*
G75*
G02*
X127310000Y-114840000I0J-140000D01*
G01*
X127310000Y-115120000D01*
G75*
G02*
X127170000Y-115260000I-140000J0D01*
G01*
G37*
%TD*%
%TO.C,C16*%
G36*
G01*
X127170000Y-112760000D02*
X126830000Y-112760000D01*
G75*
G02*
X126690000Y-112620000I0J140000D01*
G01*
X126690000Y-112340000D01*
G75*
G02*
X126830000Y-112200000I140000J0D01*
G01*
X127170000Y-112200000D01*
G75*
G02*
X127310000Y-112340000I0J-140000D01*
G01*
X127310000Y-112620000D01*
G75*
G02*
X127170000Y-112760000I-140000J0D01*
G01*
G37*
G36*
G01*
X127170000Y-111800000D02*
X126830000Y-111800000D01*
G75*
G02*
X126690000Y-111660000I0J140000D01*
G01*
X126690000Y-111380000D01*
G75*
G02*
X126830000Y-111240000I140000J0D01*
G01*
X127170000Y-111240000D01*
G75*
G02*
X127310000Y-111380000I0J-140000D01*
G01*
X127310000Y-111660000D01*
G75*
G02*
X127170000Y-111800000I-140000J0D01*
G01*
G37*
%TD*%
%TO.C,C6*%
G36*
G01*
X124050000Y-120830000D02*
X124050000Y-121170000D01*
G75*
G02*
X123910000Y-121310000I-140000J0D01*
G01*
X123630000Y-121310000D01*
G75*
G02*
X123490000Y-121170000I0J140000D01*
G01*
X123490000Y-120830000D01*
G75*
G02*
X123630000Y-120690000I140000J0D01*
G01*
X123910000Y-120690000D01*
G75*
G02*
X124050000Y-120830000I0J-140000D01*
G01*
G37*
G36*
G01*
X125010000Y-120830000D02*
X125010000Y-121170000D01*
G75*
G02*
X124870000Y-121310000I-140000J0D01*
G01*
X124590000Y-121310000D01*
G75*
G02*
X124450000Y-121170000I0J140000D01*
G01*
X124450000Y-120830000D01*
G75*
G02*
X124590000Y-120690000I140000J0D01*
G01*
X124870000Y-120690000D01*
G75*
G02*
X125010000Y-120830000I0J-140000D01*
G01*
G37*
%TD*%
%TO.C,C7*%
G36*
G01*
X124050000Y-119580000D02*
X124050000Y-119920000D01*
G75*
G02*
X123910000Y-120060000I-140000J0D01*
G01*
X123630000Y-120060000D01*
G75*
G02*
X123490000Y-119920000I0J140000D01*
G01*
X123490000Y-119580000D01*
G75*
G02*
X123630000Y-119440000I140000J0D01*
G01*
X123910000Y-119440000D01*
G75*
G02*
X124050000Y-119580000I0J-140000D01*
G01*
G37*
G36*
G01*
X125010000Y-119580000D02*
X125010000Y-119920000D01*
G75*
G02*
X124870000Y-120060000I-140000J0D01*
G01*
X124590000Y-120060000D01*
G75*
G02*
X124450000Y-119920000I0J140000D01*
G01*
X124450000Y-119580000D01*
G75*
G02*
X124590000Y-119440000I140000J0D01*
G01*
X124870000Y-119440000D01*
G75*
G02*
X125010000Y-119580000I0J-140000D01*
G01*
G37*
%TD*%
%TO.C,L1*%
G36*
G01*
X124440000Y-118672500D02*
X124440000Y-118327500D01*
G75*
G02*
X124587500Y-118180000I147500J0D01*
G01*
X124882500Y-118180000D01*
G75*
G02*
X125030000Y-118327500I0J-147500D01*
G01*
X125030000Y-118672500D01*
G75*
G02*
X124882500Y-118820000I-147500J0D01*
G01*
X124587500Y-118820000D01*
G75*
G02*
X124440000Y-118672500I0J147500D01*
G01*
G37*
G36*
G01*
X123470000Y-118672500D02*
X123470000Y-118327500D01*
G75*
G02*
X123617500Y-118180000I147500J0D01*
G01*
X123912500Y-118180000D01*
G75*
G02*
X124060000Y-118327500I0J-147500D01*
G01*
X124060000Y-118672500D01*
G75*
G02*
X123912500Y-118820000I-147500J0D01*
G01*
X123617500Y-118820000D01*
G75*
G02*
X123470000Y-118672500I0J147500D01*
G01*
G37*
%TD*%
%TO.C,R4*%
G36*
G01*
X145025000Y-136075000D02*
X144475000Y-136075000D01*
G75*
G02*
X144275000Y-135875000I0J200000D01*
G01*
X144275000Y-135475000D01*
G75*
G02*
X144475000Y-135275000I200000J0D01*
G01*
X145025000Y-135275000D01*
G75*
G02*
X145225000Y-135475000I0J-200000D01*
G01*
X145225000Y-135875000D01*
G75*
G02*
X145025000Y-136075000I-200000J0D01*
G01*
G37*
G36*
G01*
X145025000Y-137725000D02*
X144475000Y-137725000D01*
G75*
G02*
X144275000Y-137525000I0J200000D01*
G01*
X144275000Y-137125000D01*
G75*
G02*
X144475000Y-136925000I200000J0D01*
G01*
X145025000Y-136925000D01*
G75*
G02*
X145225000Y-137125000I0J-200000D01*
G01*
X145225000Y-137525000D01*
G75*
G02*
X145025000Y-137725000I-200000J0D01*
G01*
G37*
%TD*%
%TO.C,C8*%
G36*
G01*
X133830000Y-134430000D02*
X134170000Y-134430000D01*
G75*
G02*
X134310000Y-134570000I0J-140000D01*
G01*
X134310000Y-134850000D01*
G75*
G02*
X134170000Y-134990000I-140000J0D01*
G01*
X133830000Y-134990000D01*
G75*
G02*
X133690000Y-134850000I0J140000D01*
G01*
X133690000Y-134570000D01*
G75*
G02*
X133830000Y-134430000I140000J0D01*
G01*
G37*
G36*
G01*
X133830000Y-133470000D02*
X134170000Y-133470000D01*
G75*
G02*
X134310000Y-133610000I0J-140000D01*
G01*
X134310000Y-133890000D01*
G75*
G02*
X134170000Y-134030000I-140000J0D01*
G01*
X133830000Y-134030000D01*
G75*
G02*
X133690000Y-133890000I0J140000D01*
G01*
X133690000Y-133610000D01*
G75*
G02*
X133830000Y-133470000I140000J0D01*
G01*
G37*
%TD*%
D16*
%TO.C,Y1*%
X123850000Y-114850000D03*
X121650000Y-114850000D03*
X121650000Y-113150000D03*
X123850000Y-113150000D03*
%TD*%
D17*
%TO.C,U2*%
X141150000Y-134750000D03*
X140350000Y-134750000D03*
D18*
X140100000Y-133700000D03*
X140750000Y-133700000D03*
X141400000Y-133700000D03*
X141400000Y-135800000D03*
X140750000Y-135800000D03*
X140100000Y-135800000D03*
%TD*%
%TO.C,R8*%
G36*
G01*
X146775000Y-139325000D02*
X146225000Y-139325000D01*
G75*
G02*
X146025000Y-139125000I0J200000D01*
G01*
X146025000Y-138725000D01*
G75*
G02*
X146225000Y-138525000I200000J0D01*
G01*
X146775000Y-138525000D01*
G75*
G02*
X146975000Y-138725000I0J-200000D01*
G01*
X146975000Y-139125000D01*
G75*
G02*
X146775000Y-139325000I-200000J0D01*
G01*
G37*
G36*
G01*
X146775000Y-140975000D02*
X146225000Y-140975000D01*
G75*
G02*
X146025000Y-140775000I0J200000D01*
G01*
X146025000Y-140375000D01*
G75*
G02*
X146225000Y-140175000I200000J0D01*
G01*
X146775000Y-140175000D01*
G75*
G02*
X146975000Y-140375000I0J-200000D01*
G01*
X146975000Y-140775000D01*
G75*
G02*
X146775000Y-140975000I-200000J0D01*
G01*
G37*
%TD*%
%TO.C,R7*%
G36*
G01*
X145025000Y-139325000D02*
X144475000Y-139325000D01*
G75*
G02*
X144275000Y-139125000I0J200000D01*
G01*
X144275000Y-138725000D01*
G75*
G02*
X144475000Y-138525000I200000J0D01*
G01*
X145025000Y-138525000D01*
G75*
G02*
X145225000Y-138725000I0J-200000D01*
G01*
X145225000Y-139125000D01*
G75*
G02*
X145025000Y-139325000I-200000J0D01*
G01*
G37*
G36*
G01*
X145025000Y-140975000D02*
X144475000Y-140975000D01*
G75*
G02*
X144275000Y-140775000I0J200000D01*
G01*
X144275000Y-140375000D01*
G75*
G02*
X144475000Y-140175000I200000J0D01*
G01*
X145025000Y-140175000D01*
G75*
G02*
X145225000Y-140375000I0J-200000D01*
G01*
X145225000Y-140775000D01*
G75*
G02*
X145025000Y-140975000I-200000J0D01*
G01*
G37*
%TD*%
%TO.C,R2*%
G36*
G01*
X131525000Y-139325000D02*
X130975000Y-139325000D01*
G75*
G02*
X130775000Y-139125000I0J200000D01*
G01*
X130775000Y-138725000D01*
G75*
G02*
X130975000Y-138525000I200000J0D01*
G01*
X131525000Y-138525000D01*
G75*
G02*
X131725000Y-138725000I0J-200000D01*
G01*
X131725000Y-139125000D01*
G75*
G02*
X131525000Y-139325000I-200000J0D01*
G01*
G37*
G36*
G01*
X131525000Y-140975000D02*
X130975000Y-140975000D01*
G75*
G02*
X130775000Y-140775000I0J200000D01*
G01*
X130775000Y-140375000D01*
G75*
G02*
X130975000Y-140175000I200000J0D01*
G01*
X131525000Y-140175000D01*
G75*
G02*
X131725000Y-140375000I0J-200000D01*
G01*
X131725000Y-140775000D01*
G75*
G02*
X131525000Y-140975000I-200000J0D01*
G01*
G37*
%TD*%
%TO.C,R6*%
G36*
G01*
X125825000Y-124725000D02*
X125825000Y-125275000D01*
G75*
G02*
X125625000Y-125475000I-200000J0D01*
G01*
X125225000Y-125475000D01*
G75*
G02*
X125025000Y-125275000I0J200000D01*
G01*
X125025000Y-124725000D01*
G75*
G02*
X125225000Y-124525000I200000J0D01*
G01*
X125625000Y-124525000D01*
G75*
G02*
X125825000Y-124725000I0J-200000D01*
G01*
G37*
G36*
G01*
X127475000Y-124725000D02*
X127475000Y-125275000D01*
G75*
G02*
X127275000Y-125475000I-200000J0D01*
G01*
X126875000Y-125475000D01*
G75*
G02*
X126675000Y-125275000I0J200000D01*
G01*
X126675000Y-124725000D01*
G75*
G02*
X126875000Y-124525000I200000J0D01*
G01*
X127275000Y-124525000D01*
G75*
G02*
X127475000Y-124725000I0J-200000D01*
G01*
G37*
%TD*%
%TO.C,R5*%
G36*
G01*
X142725000Y-136925000D02*
X143275000Y-136925000D01*
G75*
G02*
X143475000Y-137125000I0J-200000D01*
G01*
X143475000Y-137525000D01*
G75*
G02*
X143275000Y-137725000I-200000J0D01*
G01*
X142725000Y-137725000D01*
G75*
G02*
X142525000Y-137525000I0J200000D01*
G01*
X142525000Y-137125000D01*
G75*
G02*
X142725000Y-136925000I200000J0D01*
G01*
G37*
G36*
G01*
X142725000Y-135275000D02*
X143275000Y-135275000D01*
G75*
G02*
X143475000Y-135475000I0J-200000D01*
G01*
X143475000Y-135875000D01*
G75*
G02*
X143275000Y-136075000I-200000J0D01*
G01*
X142725000Y-136075000D01*
G75*
G02*
X142525000Y-135875000I0J200000D01*
G01*
X142525000Y-135475000D01*
G75*
G02*
X142725000Y-135275000I200000J0D01*
G01*
G37*
%TD*%
%TO.C,R3*%
G36*
G01*
X146225000Y-136925000D02*
X146775000Y-136925000D01*
G75*
G02*
X146975000Y-137125000I0J-200000D01*
G01*
X146975000Y-137525000D01*
G75*
G02*
X146775000Y-137725000I-200000J0D01*
G01*
X146225000Y-137725000D01*
G75*
G02*
X146025000Y-137525000I0J200000D01*
G01*
X146025000Y-137125000D01*
G75*
G02*
X146225000Y-136925000I200000J0D01*
G01*
G37*
G36*
G01*
X146225000Y-135275000D02*
X146775000Y-135275000D01*
G75*
G02*
X146975000Y-135475000I0J-200000D01*
G01*
X146975000Y-135875000D01*
G75*
G02*
X146775000Y-136075000I-200000J0D01*
G01*
X146225000Y-136075000D01*
G75*
G02*
X146025000Y-135875000I0J200000D01*
G01*
X146025000Y-135475000D01*
G75*
G02*
X146225000Y-135275000I200000J0D01*
G01*
G37*
%TD*%
%TO.C,R9*%
G36*
G01*
X124175000Y-143775000D02*
X124175000Y-143225000D01*
G75*
G02*
X124375000Y-143025000I200000J0D01*
G01*
X124775000Y-143025000D01*
G75*
G02*
X124975000Y-143225000I0J-200000D01*
G01*
X124975000Y-143775000D01*
G75*
G02*
X124775000Y-143975000I-200000J0D01*
G01*
X124375000Y-143975000D01*
G75*
G02*
X124175000Y-143775000I0J200000D01*
G01*
G37*
G36*
G01*
X122525000Y-143775000D02*
X122525000Y-143225000D01*
G75*
G02*
X122725000Y-143025000I200000J0D01*
G01*
X123125000Y-143025000D01*
G75*
G02*
X123325000Y-143225000I0J-200000D01*
G01*
X123325000Y-143775000D01*
G75*
G02*
X123125000Y-143975000I-200000J0D01*
G01*
X122725000Y-143975000D01*
G75*
G02*
X122525000Y-143775000I0J200000D01*
G01*
G37*
%TD*%
%TO.C,R1*%
G36*
G01*
X122925000Y-117025000D02*
X122925000Y-116475000D01*
G75*
G02*
X123125000Y-116275000I200000J0D01*
G01*
X123525000Y-116275000D01*
G75*
G02*
X123725000Y-116475000I0J-200000D01*
G01*
X123725000Y-117025000D01*
G75*
G02*
X123525000Y-117225000I-200000J0D01*
G01*
X123125000Y-117225000D01*
G75*
G02*
X122925000Y-117025000I0J200000D01*
G01*
G37*
G36*
G01*
X121275000Y-117025000D02*
X121275000Y-116475000D01*
G75*
G02*
X121475000Y-116275000I200000J0D01*
G01*
X121875000Y-116275000D01*
G75*
G02*
X122075000Y-116475000I0J-200000D01*
G01*
X122075000Y-117025000D01*
G75*
G02*
X121875000Y-117225000I-200000J0D01*
G01*
X121475000Y-117225000D01*
G75*
G02*
X121275000Y-117025000I0J200000D01*
G01*
G37*
%TD*%
D19*
%TO.C,J2*%
X135040000Y-89715000D03*
X135040000Y-93785000D03*
X133770000Y-89715000D03*
X133770000Y-93785000D03*
X132500000Y-89715000D03*
X132500000Y-93785000D03*
X131230000Y-89715000D03*
X131230000Y-93785000D03*
X129960000Y-89715000D03*
X129960000Y-93785000D03*
%TD*%
%TO.C,FB1*%
G36*
G01*
X135368750Y-133312500D02*
X136131250Y-133312500D01*
G75*
G02*
X136350000Y-133531250I0J-218750D01*
G01*
X136350000Y-133968750D01*
G75*
G02*
X136131250Y-134187500I-218750J0D01*
G01*
X135368750Y-134187500D01*
G75*
G02*
X135150000Y-133968750I0J218750D01*
G01*
X135150000Y-133531250D01*
G75*
G02*
X135368750Y-133312500I218750J0D01*
G01*
G37*
G36*
G01*
X135368750Y-135437500D02*
X136131250Y-135437500D01*
G75*
G02*
X136350000Y-135656250I0J-218750D01*
G01*
X136350000Y-136093750D01*
G75*
G02*
X136131250Y-136312500I-218750J0D01*
G01*
X135368750Y-136312500D01*
G75*
G02*
X135150000Y-136093750I0J218750D01*
G01*
X135150000Y-135656250D01*
G75*
G02*
X135368750Y-135437500I218750J0D01*
G01*
G37*
%TD*%
%TO.C,D1*%
G36*
G01*
X133200000Y-137456250D02*
X133200000Y-136543750D01*
G75*
G02*
X133443750Y-136300000I243750J0D01*
G01*
X133931250Y-136300000D01*
G75*
G02*
X134175000Y-136543750I0J-243750D01*
G01*
X134175000Y-137456250D01*
G75*
G02*
X133931250Y-137700000I-243750J0D01*
G01*
X133443750Y-137700000D01*
G75*
G02*
X133200000Y-137456250I0J243750D01*
G01*
G37*
G36*
G01*
X131325000Y-137456250D02*
X131325000Y-136543750D01*
G75*
G02*
X131568750Y-136300000I243750J0D01*
G01*
X132056250Y-136300000D01*
G75*
G02*
X132300000Y-136543750I0J-243750D01*
G01*
X132300000Y-137456250D01*
G75*
G02*
X132056250Y-137700000I-243750J0D01*
G01*
X131568750Y-137700000D01*
G75*
G02*
X131325000Y-137456250I0J243750D01*
G01*
G37*
%TD*%
%TO.C,D2*%
G36*
G01*
X123956250Y-123300000D02*
X123043750Y-123300000D01*
G75*
G02*
X122800000Y-123056250I0J243750D01*
G01*
X122800000Y-122568750D01*
G75*
G02*
X123043750Y-122325000I243750J0D01*
G01*
X123956250Y-122325000D01*
G75*
G02*
X124200000Y-122568750I0J-243750D01*
G01*
X124200000Y-123056250D01*
G75*
G02*
X123956250Y-123300000I-243750J0D01*
G01*
G37*
G36*
G01*
X123956250Y-125175000D02*
X123043750Y-125175000D01*
G75*
G02*
X122800000Y-124931250I0J243750D01*
G01*
X122800000Y-124443750D01*
G75*
G02*
X123043750Y-124200000I243750J0D01*
G01*
X123956250Y-124200000D01*
G75*
G02*
X124200000Y-124443750I0J-243750D01*
G01*
X124200000Y-124931250D01*
G75*
G02*
X123956250Y-125175000I-243750J0D01*
G01*
G37*
%TD*%
%TO.C,C15*%
G36*
G01*
X141800000Y-107330000D02*
X141800000Y-107670000D01*
G75*
G02*
X141660000Y-107810000I-140000J0D01*
G01*
X141380000Y-107810000D01*
G75*
G02*
X141240000Y-107670000I0J140000D01*
G01*
X141240000Y-107330000D01*
G75*
G02*
X141380000Y-107190000I140000J0D01*
G01*
X141660000Y-107190000D01*
G75*
G02*
X141800000Y-107330000I0J-140000D01*
G01*
G37*
G36*
G01*
X142760000Y-107330000D02*
X142760000Y-107670000D01*
G75*
G02*
X142620000Y-107810000I-140000J0D01*
G01*
X142340000Y-107810000D01*
G75*
G02*
X142200000Y-107670000I0J140000D01*
G01*
X142200000Y-107330000D01*
G75*
G02*
X142340000Y-107190000I140000J0D01*
G01*
X142620000Y-107190000D01*
G75*
G02*
X142760000Y-107330000I0J-140000D01*
G01*
G37*
%TD*%
%TO.C,C14*%
G36*
G01*
X146670000Y-120050000D02*
X146330000Y-120050000D01*
G75*
G02*
X146190000Y-119910000I0J140000D01*
G01*
X146190000Y-119630000D01*
G75*
G02*
X146330000Y-119490000I140000J0D01*
G01*
X146670000Y-119490000D01*
G75*
G02*
X146810000Y-119630000I0J-140000D01*
G01*
X146810000Y-119910000D01*
G75*
G02*
X146670000Y-120050000I-140000J0D01*
G01*
G37*
G36*
G01*
X146670000Y-121010000D02*
X146330000Y-121010000D01*
G75*
G02*
X146190000Y-120870000I0J140000D01*
G01*
X146190000Y-120590000D01*
G75*
G02*
X146330000Y-120450000I140000J0D01*
G01*
X146670000Y-120450000D01*
G75*
G02*
X146810000Y-120590000I0J-140000D01*
G01*
X146810000Y-120870000D01*
G75*
G02*
X146670000Y-121010000I-140000J0D01*
G01*
G37*
%TD*%
%TO.C,C13*%
G36*
G01*
X127170000Y-122280000D02*
X126830000Y-122280000D01*
G75*
G02*
X126690000Y-122140000I0J140000D01*
G01*
X126690000Y-121860000D01*
G75*
G02*
X126830000Y-121720000I140000J0D01*
G01*
X127170000Y-121720000D01*
G75*
G02*
X127310000Y-121860000I0J-140000D01*
G01*
X127310000Y-122140000D01*
G75*
G02*
X127170000Y-122280000I-140000J0D01*
G01*
G37*
G36*
G01*
X127170000Y-123240000D02*
X126830000Y-123240000D01*
G75*
G02*
X126690000Y-123100000I0J140000D01*
G01*
X126690000Y-122820000D01*
G75*
G02*
X126830000Y-122680000I140000J0D01*
G01*
X127170000Y-122680000D01*
G75*
G02*
X127310000Y-122820000I0J-140000D01*
G01*
X127310000Y-123100000D01*
G75*
G02*
X127170000Y-123240000I-140000J0D01*
G01*
G37*
%TD*%
%TO.C,C5*%
G36*
G01*
X119750000Y-113675000D02*
X119250000Y-113675000D01*
G75*
G02*
X119025000Y-113450000I0J225000D01*
G01*
X119025000Y-113000000D01*
G75*
G02*
X119250000Y-112775000I225000J0D01*
G01*
X119750000Y-112775000D01*
G75*
G02*
X119975000Y-113000000I0J-225000D01*
G01*
X119975000Y-113450000D01*
G75*
G02*
X119750000Y-113675000I-225000J0D01*
G01*
G37*
G36*
G01*
X119750000Y-115225000D02*
X119250000Y-115225000D01*
G75*
G02*
X119025000Y-115000000I0J225000D01*
G01*
X119025000Y-114550000D01*
G75*
G02*
X119250000Y-114325000I225000J0D01*
G01*
X119750000Y-114325000D01*
G75*
G02*
X119975000Y-114550000I0J-225000D01*
G01*
X119975000Y-115000000D01*
G75*
G02*
X119750000Y-115225000I-225000J0D01*
G01*
G37*
%TD*%
%TO.C,C12*%
G36*
G01*
X127170000Y-118800000D02*
X126830000Y-118800000D01*
G75*
G02*
X126690000Y-118660000I0J140000D01*
G01*
X126690000Y-118380000D01*
G75*
G02*
X126830000Y-118240000I140000J0D01*
G01*
X127170000Y-118240000D01*
G75*
G02*
X127310000Y-118380000I0J-140000D01*
G01*
X127310000Y-118660000D01*
G75*
G02*
X127170000Y-118800000I-140000J0D01*
G01*
G37*
G36*
G01*
X127170000Y-119760000D02*
X126830000Y-119760000D01*
G75*
G02*
X126690000Y-119620000I0J140000D01*
G01*
X126690000Y-119340000D01*
G75*
G02*
X126830000Y-119200000I140000J0D01*
G01*
X127170000Y-119200000D01*
G75*
G02*
X127310000Y-119340000I0J-140000D01*
G01*
X127310000Y-119620000D01*
G75*
G02*
X127170000Y-119760000I-140000J0D01*
G01*
G37*
%TD*%
%TO.C,C4*%
G36*
G01*
X145000000Y-107425000D02*
X144500000Y-107425000D01*
G75*
G02*
X144275000Y-107200000I0J225000D01*
G01*
X144275000Y-106750000D01*
G75*
G02*
X144500000Y-106525000I225000J0D01*
G01*
X145000000Y-106525000D01*
G75*
G02*
X145225000Y-106750000I0J-225000D01*
G01*
X145225000Y-107200000D01*
G75*
G02*
X145000000Y-107425000I-225000J0D01*
G01*
G37*
G36*
G01*
X145000000Y-108975000D02*
X144500000Y-108975000D01*
G75*
G02*
X144275000Y-108750000I0J225000D01*
G01*
X144275000Y-108300000D01*
G75*
G02*
X144500000Y-108075000I225000J0D01*
G01*
X145000000Y-108075000D01*
G75*
G02*
X145225000Y-108300000I0J-225000D01*
G01*
X145225000Y-108750000D01*
G75*
G02*
X145000000Y-108975000I-225000J0D01*
G01*
G37*
%TD*%
%TO.C,C3*%
G36*
G01*
X128830000Y-137700000D02*
X129170000Y-137700000D01*
G75*
G02*
X129310000Y-137840000I0J-140000D01*
G01*
X129310000Y-138120000D01*
G75*
G02*
X129170000Y-138260000I-140000J0D01*
G01*
X128830000Y-138260000D01*
G75*
G02*
X128690000Y-138120000I0J140000D01*
G01*
X128690000Y-137840000D01*
G75*
G02*
X128830000Y-137700000I140000J0D01*
G01*
G37*
G36*
G01*
X128830000Y-136740000D02*
X129170000Y-136740000D01*
G75*
G02*
X129310000Y-136880000I0J-140000D01*
G01*
X129310000Y-137160000D01*
G75*
G02*
X129170000Y-137300000I-140000J0D01*
G01*
X128830000Y-137300000D01*
G75*
G02*
X128690000Y-137160000I0J140000D01*
G01*
X128690000Y-136880000D01*
G75*
G02*
X128830000Y-136740000I140000J0D01*
G01*
G37*
%TD*%
%TO.C,C11*%
G36*
G01*
X140760000Y-126830000D02*
X140760000Y-127170000D01*
G75*
G02*
X140620000Y-127310000I-140000J0D01*
G01*
X140340000Y-127310000D01*
G75*
G02*
X140200000Y-127170000I0J140000D01*
G01*
X140200000Y-126830000D01*
G75*
G02*
X140340000Y-126690000I140000J0D01*
G01*
X140620000Y-126690000D01*
G75*
G02*
X140760000Y-126830000I0J-140000D01*
G01*
G37*
G36*
G01*
X139800000Y-126830000D02*
X139800000Y-127170000D01*
G75*
G02*
X139660000Y-127310000I-140000J0D01*
G01*
X139380000Y-127310000D01*
G75*
G02*
X139240000Y-127170000I0J140000D01*
G01*
X139240000Y-126830000D01*
G75*
G02*
X139380000Y-126690000I140000J0D01*
G01*
X139660000Y-126690000D01*
G75*
G02*
X139800000Y-126830000I0J-140000D01*
G01*
G37*
%TD*%
%TO.C,C2*%
G36*
G01*
X122400000Y-111000000D02*
X122400000Y-111500000D01*
G75*
G02*
X122175000Y-111725000I-225000J0D01*
G01*
X121725000Y-111725000D01*
G75*
G02*
X121500000Y-111500000I0J225000D01*
G01*
X121500000Y-111000000D01*
G75*
G02*
X121725000Y-110775000I225000J0D01*
G01*
X122175000Y-110775000D01*
G75*
G02*
X122400000Y-111000000I0J-225000D01*
G01*
G37*
G36*
G01*
X123950000Y-111000000D02*
X123950000Y-111500000D01*
G75*
G02*
X123725000Y-111725000I-225000J0D01*
G01*
X123275000Y-111725000D01*
G75*
G02*
X123050000Y-111500000I0J225000D01*
G01*
X123050000Y-111000000D01*
G75*
G02*
X123275000Y-110775000I225000J0D01*
G01*
X123725000Y-110775000D01*
G75*
G02*
X123950000Y-111000000I0J-225000D01*
G01*
G37*
%TD*%
%TO.C,C1*%
G36*
G01*
X137250000Y-128075000D02*
X137750000Y-128075000D01*
G75*
G02*
X137975000Y-128300000I0J-225000D01*
G01*
X137975000Y-128750000D01*
G75*
G02*
X137750000Y-128975000I-225000J0D01*
G01*
X137250000Y-128975000D01*
G75*
G02*
X137025000Y-128750000I0J225000D01*
G01*
X137025000Y-128300000D01*
G75*
G02*
X137250000Y-128075000I225000J0D01*
G01*
G37*
G36*
G01*
X137250000Y-126525000D02*
X137750000Y-126525000D01*
G75*
G02*
X137975000Y-126750000I0J-225000D01*
G01*
X137975000Y-127200000D01*
G75*
G02*
X137750000Y-127425000I-225000J0D01*
G01*
X137250000Y-127425000D01*
G75*
G02*
X137025000Y-127200000I0J225000D01*
G01*
X137025000Y-126750000D01*
G75*
G02*
X137250000Y-126525000I225000J0D01*
G01*
G37*
%TD*%
%TO.C,C10*%
G36*
G01*
X139675000Y-128250000D02*
X139675000Y-128750000D01*
G75*
G02*
X139450000Y-128975000I-225000J0D01*
G01*
X139000000Y-128975000D01*
G75*
G02*
X138775000Y-128750000I0J225000D01*
G01*
X138775000Y-128250000D01*
G75*
G02*
X139000000Y-128025000I225000J0D01*
G01*
X139450000Y-128025000D01*
G75*
G02*
X139675000Y-128250000I0J-225000D01*
G01*
G37*
G36*
G01*
X141225000Y-128250000D02*
X141225000Y-128750000D01*
G75*
G02*
X141000000Y-128975000I-225000J0D01*
G01*
X140550000Y-128975000D01*
G75*
G02*
X140325000Y-128750000I0J225000D01*
G01*
X140325000Y-128250000D01*
G75*
G02*
X140550000Y-128025000I225000J0D01*
G01*
X141000000Y-128025000D01*
G75*
G02*
X141225000Y-128250000I0J-225000D01*
G01*
G37*
%TD*%
M02*
