%TF.GenerationSoftware,KiCad,Pcbnew,(5.1.9)-1*%
%TF.CreationDate,2021-07-09T22:50:26+02:00*%
%TF.ProjectId,hyperboard,68797065-7262-46f6-9172-642e6b696361,rev?*%
%TF.SameCoordinates,Original*%
%TF.FileFunction,Copper,L4,Bot*%
%TF.FilePolarity,Positive*%
%FSLAX46Y46*%
G04 Gerber Fmt 4.6, Leading zero omitted, Abs format (unit mm)*
G04 Created by KiCad (PCBNEW (5.1.9)-1) date 2021-07-09 22:50:26*
%MOMM*%
%LPD*%
G01*
G04 APERTURE LIST*
%TA.AperFunction,ComponentPad*%
%ADD10O,1.200000X2.500000*%
%TD*%
%TA.AperFunction,ComponentPad*%
%ADD11C,1.550000*%
%TD*%
%TA.AperFunction,ComponentPad*%
%ADD12O,1.700000X1.700000*%
%TD*%
%TA.AperFunction,ComponentPad*%
%ADD13R,1.700000X1.700000*%
%TD*%
%TA.AperFunction,ViaPad*%
%ADD14C,0.450000*%
%TD*%
%TA.AperFunction,Conductor*%
%ADD15C,0.127000*%
%TD*%
%TA.AperFunction,Conductor*%
%ADD16C,0.200000*%
%TD*%
G04 APERTURE END LIST*
D10*
%TO.P,J5,2*%
%TO.N,GND*%
X142320000Y-140700000D03*
%TO.P,J5,1*%
X133680000Y-140700000D03*
%TO.P,J5,3*%
X133680000Y-145750000D03*
%TO.P,J5,4*%
X142320000Y-145750000D03*
%TD*%
D11*
%TO.P,J3,40*%
%TO.N,GND*%
X112750000Y-89740000D03*
%TO.P,J3,39*%
%TO.N,+3V3*%
X110210000Y-89740000D03*
%TO.P,J3,38*%
%TO.N,GND*%
X112750000Y-92280000D03*
%TO.P,J3,37*%
%TO.N,+3V3*%
X110210000Y-92280000D03*
%TO.P,J3,36*%
%TO.N,PB5*%
X112750000Y-94820000D03*
%TO.P,J3,35*%
%TO.N,PD7*%
X110210000Y-94820000D03*
%TO.P,J3,34*%
%TO.N,PB4*%
X112750000Y-97360000D03*
%TO.P,J3,33*%
%TO.N,PD6*%
X110210000Y-97360000D03*
%TO.P,J3,32*%
%TO.N,PB2*%
X112750000Y-99900000D03*
%TO.P,J3,31*%
%TO.N,PD5*%
X110210000Y-99900000D03*
%TO.P,J3,30*%
%TO.N,PB1*%
X112750000Y-102440000D03*
%TO.P,J3,29*%
%TO.N,PD4*%
X110210000Y-102440000D03*
%TO.P,J3,28*%
%TO.N,PB0*%
X112750000Y-104980000D03*
%TO.P,J3,27*%
%TO.N,PD3*%
X110210000Y-104980000D03*
%TO.P,J3,26*%
%TO.N,PA15*%
X112750000Y-107520000D03*
%TO.P,J3,25*%
%TO.N,PD2*%
X110210000Y-107520000D03*
%TO.P,J3,24*%
%TO.N,PA10*%
X112750000Y-110060000D03*
%TO.P,J3,23*%
%TO.N,PD1*%
X110210000Y-110060000D03*
%TO.P,J3,22*%
%TO.N,PA9*%
X112750000Y-112600000D03*
%TO.P,J3,21*%
%TO.N,PD0*%
X110210000Y-112600000D03*
%TO.P,J3,20*%
%TO.N,PA8*%
X112750000Y-115140000D03*
%TO.P,J3,19*%
%TO.N,PC15*%
X110210000Y-115140000D03*
%TO.P,J3,18*%
%TO.N,PA7*%
X112750000Y-117680000D03*
%TO.P,J3,17*%
%TO.N,PC14*%
X110210000Y-117680000D03*
%TO.P,J3,16*%
%TO.N,PA6*%
X112750000Y-120220000D03*
%TO.P,J3,15*%
%TO.N,PC13*%
X110210000Y-120220000D03*
%TO.P,J3,14*%
%TO.N,PA5*%
X112750000Y-122760000D03*
%TO.P,J3,13*%
%TO.N,PC12*%
X110210000Y-122760000D03*
%TO.P,J3,12*%
%TO.N,PA4*%
X112750000Y-125300000D03*
%TO.P,J3,11*%
%TO.N,PC11*%
X110210000Y-125300000D03*
%TO.P,J3,10*%
%TO.N,PA3*%
X112750000Y-127840000D03*
%TO.P,J3,9*%
%TO.N,PC10*%
X110210000Y-127840000D03*
%TO.P,J3,8*%
%TO.N,PA2*%
X112750000Y-130380000D03*
%TO.P,J3,7*%
%TO.N,PC9*%
X110210000Y-130380000D03*
%TO.P,J3,6*%
%TO.N,PA1*%
X112750000Y-132920000D03*
%TO.P,J3,5*%
%TO.N,PC8*%
X110210000Y-132920000D03*
%TO.P,J3,4*%
%TO.N,GND*%
X112750000Y-135460000D03*
%TO.P,J3,3*%
%TO.N,+3V3*%
X110210000Y-135460000D03*
%TO.P,J3,2*%
%TO.N,GND*%
X112750000Y-138000000D03*
%TO.P,J3,1*%
%TO.N,+3V3*%
X110210000Y-138000000D03*
%TD*%
%TO.P,J4,40*%
%TO.N,GND*%
X161790000Y-89740000D03*
%TO.P,J4,39*%
%TO.N,+3V3*%
X159250000Y-89740000D03*
%TO.P,J4,38*%
%TO.N,GND*%
X161790000Y-92280000D03*
%TO.P,J4,37*%
%TO.N,+3V3*%
X159250000Y-92280000D03*
%TO.P,J4,36*%
%TO.N,PC7*%
X161790000Y-94820000D03*
%TO.P,J4,35*%
%TO.N,Net-(J4-Pad35)*%
X159250000Y-94820000D03*
%TO.P,J4,34*%
%TO.N,PC6*%
X161790000Y-97360000D03*
%TO.P,J4,33*%
%TO.N,PE15*%
X159250000Y-97360000D03*
%TO.P,J4,32*%
%TO.N,PC3*%
X161790000Y-99900000D03*
%TO.P,J4,31*%
%TO.N,PE14*%
X159250000Y-99900000D03*
%TO.P,J4,30*%
%TO.N,PC2*%
X161790000Y-102440000D03*
%TO.P,J4,29*%
%TO.N,PE13*%
X159250000Y-102440000D03*
%TO.P,J4,28*%
%TO.N,PC1*%
X161790000Y-104980000D03*
%TO.P,J4,27*%
%TO.N,PE12*%
X159250000Y-104980000D03*
%TO.P,J4,26*%
%TO.N,PC0*%
X161790000Y-107520000D03*
%TO.P,J4,25*%
%TO.N,PE11*%
X159250000Y-107520000D03*
%TO.P,J4,24*%
%TO.N,PB15*%
X161790000Y-110060000D03*
%TO.P,J4,23*%
%TO.N,PE10*%
X159250000Y-110060000D03*
%TO.P,J4,22*%
%TO.N,PB14*%
X161790000Y-112600000D03*
%TO.P,J4,21*%
%TO.N,PE9*%
X159250000Y-112600000D03*
%TO.P,J4,20*%
%TO.N,PB13*%
X161790000Y-115140000D03*
%TO.P,J4,19*%
%TO.N,PE8*%
X159250000Y-115140000D03*
%TO.P,J4,18*%
%TO.N,PB12*%
X161790000Y-117680000D03*
%TO.P,J4,17*%
%TO.N,PE7*%
X159250000Y-117680000D03*
%TO.P,J4,16*%
%TO.N,PB11*%
X161790000Y-120220000D03*
%TO.P,J4,15*%
%TO.N,PE2*%
X159250000Y-120220000D03*
%TO.P,J4,14*%
%TO.N,PB10*%
X161790000Y-122760000D03*
%TO.P,J4,13*%
%TO.N,PD15*%
X159250000Y-122760000D03*
%TO.P,J4,12*%
%TO.N,PB9*%
X161790000Y-125300000D03*
%TO.P,J4,11*%
%TO.N,PD14*%
X159250000Y-125300000D03*
%TO.P,J4,10*%
%TO.N,PB8*%
X161790000Y-127840000D03*
%TO.P,J4,9*%
%TO.N,PD10*%
X159250000Y-127840000D03*
%TO.P,J4,8*%
%TO.N,PB7*%
X161790000Y-130380000D03*
%TO.P,J4,7*%
%TO.N,PD9*%
X159250000Y-130380000D03*
%TO.P,J4,6*%
%TO.N,PB6*%
X161790000Y-132920000D03*
%TO.P,J4,5*%
%TO.N,PD8*%
X159250000Y-132920000D03*
%TO.P,J4,4*%
%TO.N,GND*%
X161790000Y-135460000D03*
%TO.P,J4,3*%
%TO.N,+3V3*%
X159250000Y-135460000D03*
%TO.P,J4,2*%
%TO.N,GND*%
X161790000Y-138000000D03*
%TO.P,J4,1*%
%TO.N,+3V3*%
X159250000Y-138000000D03*
%TD*%
D12*
%TO.P,J1,6*%
%TO.N,DSIHOST_D1N*%
X146920000Y-89560000D03*
%TO.P,J1,5*%
%TO.N,DSIHOST_D1P*%
X146920000Y-92100000D03*
%TO.P,J1,4*%
%TO.N,DSIHOST_CKN*%
X149460000Y-89560000D03*
%TO.P,J1,3*%
%TO.N,DSIHOST_CKP*%
X149460000Y-92100000D03*
%TO.P,J1,2*%
%TO.N,DSIHOST_D0N*%
X152000000Y-89560000D03*
D13*
%TO.P,J1,1*%
%TO.N,DSIHOST_D0P*%
X152000000Y-92100000D03*
%TD*%
D14*
%TO.N,+3V3*%
X123750000Y-117750000D03*
X141000000Y-129500000D03*
X126250000Y-119500000D03*
X127000000Y-123750000D03*
X146500000Y-121500000D03*
X143250000Y-107500000D03*
X127000000Y-115750000D03*
X126250000Y-112500000D03*
X133500000Y-138250000D03*
X130250000Y-109500000D03*
X130000000Y-95750000D03*
X141250000Y-117500000D03*
X144000000Y-133000000D03*
X122000000Y-145500000D03*
%TO.N,GND*%
X138000000Y-135000000D03*
X134000000Y-135500000D03*
X123750000Y-121750000D03*
X139000000Y-129500000D03*
X126250000Y-118500000D03*
X127000000Y-121250000D03*
X146500000Y-119000000D03*
X140750000Y-107500000D03*
X127000000Y-113250000D03*
X126250000Y-111500000D03*
X143750000Y-106250000D03*
X118500000Y-112250000D03*
X140000000Y-136750000D03*
X131250000Y-95750000D03*
X128130000Y-136150000D03*
%TO.N,NRST*%
X132000000Y-119000000D03*
X132000000Y-116250000D03*
X130500000Y-111750000D03*
X129000000Y-110250000D03*
%TO.N,Net-(FB1-Pad2)*%
X136750000Y-136875000D03*
%TO.N,DSIHOST_D1N*%
X143250000Y-116750000D03*
X153000000Y-111250000D03*
X153000000Y-99750000D03*
%TO.N,DSIHOST_D1P*%
X142500000Y-117250000D03*
X153500000Y-110750000D03*
X153500000Y-99250000D03*
%TO.N,DSIHOST_CKN*%
X143250000Y-118250000D03*
X154000000Y-111250000D03*
X154000000Y-99750000D03*
%TO.N,DSIHOST_CKP*%
X142500000Y-118750000D03*
X154500000Y-110750000D03*
X154500000Y-99250000D03*
%TO.N,DSIHOST_D0N*%
X142500000Y-119750000D03*
X154500000Y-110000000D03*
X155000000Y-99750000D03*
%TO.N,DSIHOST_D0P*%
X143250000Y-120250000D03*
X155084500Y-109509999D03*
X155500000Y-99250000D03*
%TO.N,SWO*%
X134250000Y-98250000D03*
X132500000Y-87750000D03*
%TO.N,SWCLK*%
X141250000Y-108250000D03*
X131250000Y-87750000D03*
%TO.N,SWDIO*%
X130000000Y-97250000D03*
X130000000Y-87750000D03*
%TO.N,PB5*%
X133750000Y-105500000D03*
%TO.N,PD7*%
X135250000Y-106000000D03*
%TO.N,PB4*%
X134250000Y-106250000D03*
%TO.N,PD6*%
X135750000Y-105500000D03*
%TO.N,PB2*%
X117250000Y-112000000D03*
X133250000Y-123500000D03*
%TO.N,PD5*%
X136250000Y-106000000D03*
%TO.N,PB1*%
X116750000Y-113000000D03*
X132750000Y-122750000D03*
%TO.N,PD4*%
X136750000Y-106500000D03*
%TO.N,PB0*%
X116250000Y-112000000D03*
X132250000Y-123500000D03*
%TO.N,PD3*%
X137250000Y-107000000D03*
%TO.N,PA15*%
X128250000Y-108145450D03*
X131500000Y-105000000D03*
X137500000Y-105000000D03*
%TO.N,PD2*%
X137750000Y-107500000D03*
%TO.N,PA10*%
X115500000Y-110250000D03*
X135000000Y-113250000D03*
%TO.N,PD1*%
X138250000Y-106250000D03*
%TO.N,PA9*%
X115500000Y-111000000D03*
X135000000Y-114000000D03*
%TO.N,PD0*%
X138750000Y-106750000D03*
%TO.N,PA8*%
X135000000Y-114750000D03*
X115500000Y-111750000D03*
%TO.N,PC15*%
X130500000Y-115750000D03*
X118500000Y-116000000D03*
%TO.N,PA7*%
X131750000Y-128750000D03*
X128750000Y-130750000D03*
X118000000Y-125000000D03*
X118000000Y-126250000D03*
%TO.N,PC14*%
X131250000Y-115250000D03*
X118500000Y-116750000D03*
%TO.N,PA6*%
X131250000Y-129500000D03*
X128750000Y-131500000D03*
X117250000Y-125000000D03*
X117250000Y-126250000D03*
%TO.N,PC13*%
X131206197Y-114543803D03*
X118500000Y-117500000D03*
%TO.N,PA5*%
X130750000Y-130250000D03*
X128750000Y-132250000D03*
X116500000Y-126250000D03*
X116500000Y-125000000D03*
%TO.N,PC12*%
X139250000Y-107250000D03*
%TO.N,PC11*%
X139750000Y-107750000D03*
%TO.N,PA3*%
X130750000Y-122250000D03*
%TO.N,PC10*%
X140250000Y-108250000D03*
%TO.N,PA2*%
X130750000Y-121250000D03*
%TO.N,PC9*%
X135000000Y-115500000D03*
%TO.N,PA1*%
X131750000Y-121250000D03*
X115750000Y-132750000D03*
%TO.N,PC8*%
X134500000Y-116250000D03*
%TO.N,PC7*%
X146500000Y-117500000D03*
X151750000Y-109750000D03*
%TO.N,PC6*%
X145750000Y-117000000D03*
X152500000Y-109750000D03*
%TO.N,PE15*%
X139250000Y-122000000D03*
X150000000Y-111750000D03*
%TO.N,PC3*%
X137000000Y-117000000D03*
X149000000Y-111250000D03*
X149000000Y-109250000D03*
%TO.N,PE14*%
X140000000Y-121500000D03*
X149250000Y-112250000D03*
%TO.N,PC2*%
X137000000Y-116250000D03*
X149750000Y-110750000D03*
X149750000Y-109250000D03*
%TO.N,PE13*%
X140750000Y-121000000D03*
X150000000Y-112750000D03*
%TO.N,PC1*%
X137000000Y-115500000D03*
X150500000Y-110250000D03*
X150500000Y-109250000D03*
%TO.N,PE12*%
X141500000Y-120500000D03*
X150750000Y-113250000D03*
%TO.N,PC0*%
X137000000Y-114750000D03*
%TO.N,PE11*%
X139500000Y-117500000D03*
X150000000Y-113750000D03*
%TO.N,PB15*%
X142250000Y-123500000D03*
%TO.N,PE10*%
X140250000Y-117000000D03*
X149250000Y-114250000D03*
%TO.N,PB14*%
X141750000Y-122750000D03*
%TO.N,PE9*%
X141000000Y-116500000D03*
X148500000Y-114750000D03*
%TO.N,PB13*%
X141250000Y-123500000D03*
%TO.N,PE8*%
X141750000Y-116000000D03*
X147750000Y-115250000D03*
%TO.N,PB12*%
X140750000Y-122750000D03*
%TO.N,PE7*%
X142500000Y-115500000D03*
X148500000Y-115750000D03*
%TO.N,PB11*%
X138750000Y-122750000D03*
%TO.N,PE2*%
X150500000Y-107750000D03*
X134250000Y-111500000D03*
X151250000Y-111250000D03*
X151250000Y-116250000D03*
%TO.N,PB10*%
X138250000Y-123500000D03*
%TO.N,PB9*%
X137000000Y-117750000D03*
X135500000Y-117750000D03*
X131250000Y-111000000D03*
%TO.N,PB8*%
X131750000Y-111750000D03*
X137000000Y-118500000D03*
X135750000Y-118500000D03*
%TO.N,PB7*%
X137000000Y-119250000D03*
X136000000Y-119250000D03*
X132750000Y-111750000D03*
%TO.N,PB6*%
X133250000Y-111000000D03*
%TO.N,Net-(J5-PadA6)*%
X138250000Y-142750000D03*
X138790500Y-139182998D03*
%TO.N,Net-(J5-PadA7)*%
X137500000Y-136750000D03*
X137500000Y-142750000D03*
X138500000Y-137750000D03*
%TO.N,Net-(J5-PadA5)*%
X143500000Y-140500000D03*
X137354000Y-139250000D03*
%TO.N,BOOT0*%
X135000000Y-111000000D03*
X132250000Y-111000000D03*
X132750000Y-116250000D03*
X132750000Y-119000000D03*
%TO.N,USB_D+*%
X149350000Y-129265500D03*
X149350000Y-126801588D03*
X149500000Y-123250000D03*
X149350000Y-120984500D03*
%TO.N,USB_D-*%
X148650000Y-129265500D03*
X148650000Y-126801588D03*
X148500000Y-123250000D03*
X148650000Y-120984500D03*
%TD*%
D15*
%TO.N,NRST*%
X132000000Y-119000000D02*
X132000000Y-116250000D01*
X130500000Y-111750000D02*
X129000000Y-110250000D01*
%TO.N,DSIHOST_D1N*%
X143250000Y-116750000D02*
X144775834Y-116750000D01*
X144775834Y-116750000D02*
X146195345Y-118169511D01*
X146195345Y-118169511D02*
X150500000Y-118169511D01*
X153000000Y-115833390D02*
X153000000Y-111250000D01*
X150663880Y-118169510D02*
X153000000Y-115833390D01*
X150500000Y-118169511D02*
X150663880Y-118169510D01*
X145879499Y-90600501D02*
X146920000Y-89560000D01*
X145879499Y-92629499D02*
X145879499Y-90600501D01*
X153000000Y-99750000D02*
X145879499Y-92629499D01*
%TO.N,DSIHOST_D1P*%
X146090131Y-118423521D02*
X150500000Y-118423521D01*
X144916610Y-117250000D02*
X146090131Y-118423521D01*
X142500000Y-117250000D02*
X144916610Y-117250000D01*
X150500000Y-118423521D02*
X150769093Y-118423521D01*
X150769093Y-118423521D02*
X153500000Y-115692614D01*
X153500000Y-115692614D02*
X153500000Y-110750000D01*
X146920000Y-92670000D02*
X146920000Y-92100000D01*
X153500000Y-99250000D02*
X146920000Y-92670000D01*
%TO.N,DSIHOST_CKN*%
X143250000Y-118250000D02*
X144500000Y-119500000D01*
X144500000Y-119500000D02*
X149250000Y-119500000D01*
X150051838Y-119500000D02*
X154000000Y-115551838D01*
X149250000Y-119500000D02*
X150051838Y-119500000D01*
X154000000Y-115551838D02*
X154000000Y-111250000D01*
X148419499Y-90600501D02*
X149460000Y-89560000D01*
X154000000Y-98179942D02*
X148419499Y-92599441D01*
X148419499Y-92599441D02*
X148419499Y-90600501D01*
X154000000Y-99750000D02*
X154000000Y-98179942D01*
%TO.N,DSIHOST_CKP*%
X142500000Y-118750000D02*
X143390776Y-118750000D01*
X143390776Y-118750000D02*
X144394786Y-119754010D01*
X144394786Y-119754010D02*
X149250000Y-119754010D01*
X150157053Y-119754009D02*
X154500000Y-115411062D01*
X149250000Y-119754010D02*
X150157053Y-119754009D01*
X154500000Y-115411062D02*
X154500000Y-110750000D01*
X149460000Y-93100776D02*
X149460000Y-92100000D01*
X154500000Y-98140776D02*
X149460000Y-93100776D01*
X154500000Y-99250000D02*
X154500000Y-98140776D01*
%TO.N,DSIHOST_D0N*%
X150262266Y-120008020D02*
X154915501Y-115354785D01*
X149250000Y-120008020D02*
X150262266Y-120008020D01*
X144031552Y-119750000D02*
X144289572Y-120008020D01*
X142500000Y-119750000D02*
X144031552Y-119750000D01*
X144289572Y-120008020D02*
X149250000Y-120008020D01*
X154500000Y-110135058D02*
X154500000Y-110000000D01*
X154915501Y-110550559D02*
X154500000Y-110135058D01*
X154915501Y-115354785D02*
X154915501Y-110550559D01*
X150959499Y-90600501D02*
X152000000Y-89560000D01*
X150959499Y-93102401D02*
X150959499Y-90600501D01*
X155000000Y-97142902D02*
X150959499Y-93102401D01*
X155000000Y-99750000D02*
X155000000Y-97142902D01*
%TO.N,DSIHOST_D0P*%
X143250000Y-120250000D02*
X143500000Y-120500000D01*
X144000000Y-120500000D02*
X144237970Y-120262030D01*
X143500000Y-120500000D02*
X144000000Y-120500000D01*
X144237970Y-120262030D02*
X149250000Y-120262030D01*
X150367481Y-120262029D02*
X155169511Y-115459999D01*
X149250000Y-120262030D02*
X150367481Y-120262029D01*
X155169511Y-109595010D02*
X155084500Y-109509999D01*
X155169511Y-115459999D02*
X155169511Y-109595010D01*
X152000000Y-92100000D02*
X152600000Y-92100000D01*
X152000000Y-92100000D02*
X152000000Y-93500000D01*
X155500000Y-97000000D02*
X155500000Y-99250000D01*
X152000000Y-93500000D02*
X155500000Y-97000000D01*
%TO.N,SWO*%
X132500000Y-96500000D02*
X132500000Y-87750000D01*
X134250000Y-98250000D02*
X132500000Y-96500000D01*
%TO.N,SWCLK*%
X141250000Y-107385058D02*
X141250000Y-108250000D01*
X130834499Y-96969557D02*
X141250000Y-107385058D01*
X130834499Y-88165501D02*
X130834499Y-96969557D01*
X131250000Y-87750000D02*
X130834499Y-88165501D01*
%TO.N,SWDIO*%
X129584499Y-96834499D02*
X130000000Y-97250000D01*
X129584499Y-88165501D02*
X129584499Y-96834499D01*
X130000000Y-87750000D02*
X129584499Y-88165501D01*
%TO.N,PB5*%
X115520050Y-97590050D02*
X112750000Y-94820000D01*
X115520050Y-104520050D02*
X115520050Y-97590050D01*
X116951880Y-105951880D02*
X115520050Y-104520050D01*
X133298120Y-105951880D02*
X116951880Y-105951880D01*
X133750000Y-105500000D02*
X133298120Y-105951880D01*
%TO.N,PD7*%
X111175501Y-95785501D02*
X110210000Y-94820000D01*
X115266040Y-98447098D02*
X112604443Y-95785501D01*
X112604443Y-95785501D02*
X111175501Y-95785501D01*
X116705890Y-106205890D02*
X115266040Y-104766040D01*
X115266040Y-104766040D02*
X115266040Y-98447098D01*
X133679168Y-106205890D02*
X116705890Y-106205890D01*
X135084499Y-105834499D02*
X134050559Y-105834499D01*
X134050559Y-105834499D02*
X133679168Y-106205890D01*
X135250000Y-106000000D02*
X135084499Y-105834499D01*
%TO.N,PB4*%
X115012030Y-99622030D02*
X112750000Y-97360000D01*
X115012030Y-105012030D02*
X115012030Y-99622030D01*
X116459900Y-106459900D02*
X115012030Y-105012030D01*
X134040100Y-106459900D02*
X116459900Y-106459900D01*
X134250000Y-106250000D02*
X134040100Y-106459900D01*
%TO.N,PD6*%
X111175501Y-98325501D02*
X110210000Y-97360000D01*
X112604443Y-98325501D02*
X111175501Y-98325501D01*
X114758020Y-100479078D02*
X112604443Y-98325501D01*
X114758020Y-105258020D02*
X114758020Y-100479078D01*
X116213910Y-106713910D02*
X114758020Y-105258020D01*
X135500000Y-106713910D02*
X116213910Y-106713910D01*
X135750000Y-106463910D02*
X135500000Y-106713910D01*
X135750000Y-105500000D02*
X135750000Y-106463910D01*
%TO.N,PB2*%
X130883949Y-118915501D02*
X117915501Y-118915501D01*
X133250000Y-121281552D02*
X130883949Y-118915501D01*
X133250000Y-123500000D02*
X133250000Y-121281552D01*
X117250000Y-118250000D02*
X117250000Y-112000000D01*
X117915501Y-118915501D02*
X117250000Y-118250000D01*
%TO.N,PD5*%
X111175501Y-100865501D02*
X110210000Y-99900000D01*
X113365501Y-100865501D02*
X111175501Y-100865501D01*
X114504010Y-105504010D02*
X114504010Y-102004010D01*
X115967920Y-106967920D02*
X114504010Y-105504010D01*
X114504010Y-102004010D02*
X113365501Y-100865501D01*
X136000000Y-106967920D02*
X115967920Y-106967920D01*
X136250000Y-106717920D02*
X136000000Y-106967920D01*
X136250000Y-106000000D02*
X136250000Y-106717920D01*
%TO.N,PB1*%
X132750000Y-121140776D02*
X131605214Y-119995990D01*
X132750000Y-122750000D02*
X132750000Y-121140776D01*
X131605214Y-119995990D02*
X117495990Y-119995990D01*
X116750000Y-119250000D02*
X116750000Y-113000000D01*
X117495990Y-119995990D02*
X116750000Y-119250000D01*
%TO.N,PD4*%
X113155501Y-103405501D02*
X111175501Y-103405501D01*
X114250000Y-104500000D02*
X113155501Y-103405501D01*
X114250000Y-105750000D02*
X114250000Y-104500000D01*
X115721930Y-107221930D02*
X114250000Y-105750000D01*
X136500000Y-107221930D02*
X115721930Y-107221930D01*
X136750000Y-106971930D02*
X136500000Y-107221930D01*
X111175501Y-103405501D02*
X110210000Y-102440000D01*
X136750000Y-106500000D02*
X136750000Y-106971930D01*
%TO.N,PB0*%
X116250000Y-112000000D02*
X116250000Y-119500000D01*
X116250000Y-119500000D02*
X117000000Y-120250000D01*
X117000000Y-120250000D02*
X131500000Y-120250000D01*
X132250000Y-121000000D02*
X132250000Y-123500000D01*
X131500000Y-120250000D02*
X132250000Y-121000000D01*
%TO.N,PD3*%
X111175501Y-105945501D02*
X110210000Y-104980000D01*
X113945501Y-105945501D02*
X111175501Y-105945501D01*
X115475940Y-107475940D02*
X113945501Y-105945501D01*
X137000000Y-107475940D02*
X115475940Y-107475940D01*
X137250000Y-107225940D02*
X137000000Y-107475940D01*
X137250000Y-107000000D02*
X137250000Y-107225940D01*
%TO.N,PA15*%
X128250000Y-108145450D02*
X127895450Y-108145450D01*
X127733960Y-107983960D02*
X115124735Y-107983959D01*
X127895450Y-108145450D02*
X127733960Y-107983960D01*
X114660776Y-107520000D02*
X112750000Y-107520000D01*
X115124735Y-107983959D02*
X114660776Y-107520000D01*
X137500000Y-105000000D02*
X131500000Y-105000000D01*
%TO.N,PD2*%
X111230000Y-106500000D02*
X110210000Y-107520000D01*
X114000000Y-106500000D02*
X111230000Y-106500000D01*
X115229950Y-107729950D02*
X114000000Y-106500000D01*
X137520050Y-107729950D02*
X115229950Y-107729950D01*
X137750000Y-107500000D02*
X137520050Y-107729950D01*
%TO.N,PA10*%
X115500000Y-110250000D02*
X115750000Y-110500000D01*
X115750000Y-110500000D02*
X128500000Y-110500000D01*
X131250000Y-113250000D02*
X135000000Y-113250000D01*
X128500000Y-110500000D02*
X131250000Y-113250000D01*
%TO.N,PD1*%
X111709049Y-108560951D02*
X110210000Y-110060000D01*
X128449441Y-108560951D02*
X111709049Y-108560951D01*
X129026432Y-107983960D02*
X128449441Y-108560951D01*
X138000000Y-107983960D02*
X129026432Y-107983960D01*
X138250000Y-107733960D02*
X138000000Y-107983960D01*
X138250000Y-106250000D02*
X138250000Y-107733960D01*
%TO.N,PA9*%
X115500000Y-111000000D02*
X115745990Y-110754010D01*
X115745990Y-110754010D02*
X128394786Y-110754010D01*
X131640776Y-114000000D02*
X135000000Y-114000000D01*
X128394786Y-110754010D02*
X131640776Y-114000000D01*
%TO.N,PD0*%
X111175501Y-111634499D02*
X110210000Y-112600000D01*
X113115501Y-111634499D02*
X111175501Y-111634499D01*
X114000000Y-110750000D02*
X113115501Y-111634499D01*
X114685039Y-108814961D02*
X114000000Y-109500000D01*
X114000000Y-109500000D02*
X114000000Y-110750000D01*
X128554655Y-108814961D02*
X114685039Y-108814961D01*
X129131646Y-108237970D02*
X128554655Y-108814961D01*
X138750000Y-107987970D02*
X138500000Y-108237970D01*
X138500000Y-108237970D02*
X129131646Y-108237970D01*
X138750000Y-106750000D02*
X138750000Y-107987970D01*
%TO.N,PA8*%
X135000000Y-114750000D02*
X131991980Y-114750000D01*
X131991980Y-114741980D02*
X128258020Y-111008020D01*
X131991980Y-114750000D02*
X131991980Y-114741980D01*
X116241980Y-111008020D02*
X115500000Y-111750000D01*
X128258020Y-111008020D02*
X116241980Y-111008020D01*
%TO.N,PC15*%
X130500000Y-115750000D02*
X129750000Y-116500000D01*
X119000000Y-116500000D02*
X118500000Y-116000000D01*
X129750000Y-116500000D02*
X119000000Y-116500000D01*
%TO.N,PA7*%
X131750000Y-128750000D02*
X130750000Y-128750000D01*
X130750000Y-128750000D02*
X128750000Y-130750000D01*
X118000000Y-125000000D02*
X118000000Y-126250000D01*
%TO.N,PC14*%
X131250000Y-115614942D02*
X130110932Y-116754010D01*
X131250000Y-115250000D02*
X131250000Y-115614942D01*
X118504010Y-116754010D02*
X118500000Y-116750000D01*
X130110932Y-116754010D02*
X118504010Y-116754010D01*
%TO.N,PA6*%
X130750000Y-129500000D02*
X128750000Y-131500000D01*
X131250000Y-129500000D02*
X130750000Y-129500000D01*
X117250000Y-125000000D02*
X117250000Y-126250000D01*
%TO.N,PC13*%
X131665501Y-115558665D02*
X130216146Y-117008020D01*
X131665501Y-115003107D02*
X131665501Y-115558665D01*
X131206197Y-114543803D02*
X131665501Y-115003107D01*
X130216146Y-117008020D02*
X119000000Y-117008020D01*
X118991980Y-117008020D02*
X118500000Y-117500000D01*
X119000000Y-117008020D02*
X118991980Y-117008020D01*
%TO.N,PA5*%
X130750000Y-130250000D02*
X128750000Y-132250000D01*
X116500000Y-126250000D02*
X116500000Y-125250000D01*
X116500000Y-125250000D02*
X116500000Y-125000000D01*
%TO.N,PC12*%
X112604443Y-121794499D02*
X111175501Y-121794499D01*
X114254010Y-120144932D02*
X112604443Y-121794499D01*
X114254010Y-109745990D02*
X114254010Y-120144932D01*
X114931029Y-109068971D02*
X114254010Y-109745990D01*
X128659869Y-109068971D02*
X114931029Y-109068971D01*
X129236860Y-108491980D02*
X128659869Y-109068971D01*
X139000000Y-108491980D02*
X129236860Y-108491980D01*
X111175501Y-121794499D02*
X110210000Y-122760000D01*
X139250000Y-108241980D02*
X139000000Y-108491980D01*
X139250000Y-107250000D02*
X139250000Y-108241980D01*
%TO.N,PC11*%
X112915501Y-124334499D02*
X111175501Y-124334499D01*
X111175501Y-124334499D02*
X110210000Y-125300000D01*
X115177019Y-109322981D02*
X114508020Y-109991980D01*
X114508020Y-122741980D02*
X112915501Y-124334499D01*
X128765083Y-109322981D02*
X115177019Y-109322981D01*
X114508020Y-109991980D02*
X114508020Y-122741980D01*
X129342074Y-108745990D02*
X128765083Y-109322981D01*
X139250000Y-108745990D02*
X129342074Y-108745990D01*
X139750000Y-108245990D02*
X139250000Y-108745990D01*
X139750000Y-107750000D02*
X139750000Y-108245990D01*
%TO.N,PA3*%
X116660000Y-131750000D02*
X112750000Y-127840000D01*
X125250000Y-131750000D02*
X116660000Y-131750000D01*
X128250000Y-128750000D02*
X125250000Y-131750000D01*
X128250000Y-124750000D02*
X128250000Y-128750000D01*
X130750000Y-122250000D02*
X128250000Y-124750000D01*
%TO.N,PC10*%
X114762030Y-110237970D02*
X114762030Y-124716912D01*
X115423009Y-109576991D02*
X114762030Y-110237970D01*
X128870297Y-109576991D02*
X115423009Y-109576991D01*
X112604443Y-126874499D02*
X111175501Y-126874499D01*
X114762030Y-124716912D02*
X112604443Y-126874499D01*
X129447288Y-109000000D02*
X128870297Y-109576991D01*
X139500000Y-109000000D02*
X129447288Y-109000000D01*
X111175501Y-126874499D02*
X110210000Y-127840000D01*
X140250000Y-108250000D02*
X139500000Y-109000000D01*
%TO.N,PA2*%
X130614942Y-123000000D02*
X130359224Y-123000000D01*
X131165501Y-122449441D02*
X130614942Y-123000000D01*
X131165501Y-121665501D02*
X131165501Y-122449441D01*
X130750000Y-121250000D02*
X131165501Y-121665501D01*
X130359224Y-123000000D02*
X128504010Y-124855214D01*
X128504010Y-124855214D02*
X128504009Y-128855215D01*
X128504009Y-128855215D02*
X125355214Y-132004010D01*
X114374010Y-132004010D02*
X112750000Y-130380000D01*
X125355214Y-132004010D02*
X114374010Y-132004010D01*
%TO.N,PC9*%
X113954499Y-131954499D02*
X115745990Y-133745990D01*
X111784499Y-131954499D02*
X113954499Y-131954499D01*
X110210000Y-130380000D02*
X111784499Y-131954499D01*
X115745990Y-133745990D02*
X128144786Y-133745990D01*
X128144786Y-133745990D02*
X134000000Y-127890776D01*
X134635058Y-115500000D02*
X135000000Y-115500000D01*
X134000000Y-116135058D02*
X134635058Y-115500000D01*
X134000000Y-127890776D02*
X134000000Y-116135058D01*
%TO.N,PA1*%
X130720156Y-123254010D02*
X130464438Y-123254010D01*
X131750000Y-122224166D02*
X130720156Y-123254010D01*
X131750000Y-121250000D02*
X131750000Y-122224166D01*
X130464438Y-123254010D02*
X128758019Y-124960429D01*
X124968448Y-132750000D02*
X115750000Y-132750000D01*
X128758018Y-128960430D02*
X124968448Y-132750000D01*
X128758019Y-124960429D02*
X128758018Y-128960430D01*
%TO.N,PC8*%
X111290000Y-134000000D02*
X110210000Y-132920000D01*
X128250000Y-134000000D02*
X111290000Y-134000000D01*
X134500000Y-127750000D02*
X128250000Y-134000000D01*
X134500000Y-116250000D02*
X134500000Y-127750000D01*
%TO.N,PC7*%
X146500000Y-117500000D02*
X150614942Y-117500000D01*
X151750000Y-116364942D02*
X151750000Y-109750000D01*
X150614942Y-117500000D02*
X151750000Y-116364942D01*
%TO.N,PC6*%
X145750000Y-117364942D02*
X146300559Y-117915501D01*
X145750000Y-117000000D02*
X145750000Y-117364942D01*
X152500000Y-115974166D02*
X152500000Y-109750000D01*
X150558665Y-117915501D02*
X152500000Y-115974166D01*
X146300559Y-117915501D02*
X150558665Y-117915501D01*
%TO.N,PE15*%
X139250000Y-122000000D02*
X138254010Y-122000000D01*
X138004010Y-121750000D02*
X138004010Y-118004010D01*
X138254010Y-122000000D02*
X138004010Y-121750000D01*
X138004010Y-118004010D02*
X138004013Y-117616477D01*
X141517512Y-112717920D02*
X143282080Y-112717920D01*
X138004012Y-116231420D02*
X141517512Y-112717920D01*
X138004013Y-117616477D02*
X138004012Y-116231420D01*
X142902570Y-112717920D02*
X143282080Y-112717920D01*
X149135058Y-111750000D02*
X150000000Y-111750000D01*
X148167138Y-112717920D02*
X149135058Y-111750000D01*
X143282080Y-112717920D02*
X148167138Y-112717920D01*
%TO.N,PC3*%
X148620490Y-111250000D02*
X149000000Y-111250000D01*
X149000000Y-109250000D02*
X149917531Y-108332469D01*
X149917531Y-108332469D02*
X156699083Y-108332469D01*
X156699083Y-108332469D02*
X157241980Y-107789572D01*
X160824499Y-100865501D02*
X161790000Y-99900000D01*
X159134499Y-100865501D02*
X160824499Y-100865501D01*
X157241980Y-102758020D02*
X159134499Y-100865501D01*
X157241980Y-107789572D02*
X157241980Y-102758020D01*
X137750003Y-116126205D02*
X141412298Y-112463910D01*
X137750003Y-116249997D02*
X137750003Y-116126205D01*
X141412298Y-112463910D02*
X143286090Y-112463910D01*
X143286090Y-112463910D02*
X147406580Y-112463910D01*
X142786090Y-112463910D02*
X143286090Y-112463910D01*
X137000000Y-117000000D02*
X137500000Y-117000000D01*
X137500000Y-117000000D02*
X137750000Y-116750000D01*
X137750000Y-116126208D02*
X137750003Y-116126205D01*
X137750000Y-116750000D02*
X137750000Y-116126208D01*
X148609224Y-111250000D02*
X148620490Y-111250000D01*
X147406580Y-112452644D02*
X148609224Y-111250000D01*
X147406580Y-112463910D02*
X147406580Y-112452644D01*
%TO.N,PE14*%
X138258021Y-116336635D02*
X141622726Y-112971930D01*
X138258020Y-118000000D02*
X138258022Y-117721692D01*
X138258022Y-117721692D02*
X138258021Y-116336635D01*
X138258020Y-121250000D02*
X138258020Y-118000000D01*
X138508020Y-121500000D02*
X138258020Y-121250000D01*
X140000000Y-121500000D02*
X138508020Y-121500000D01*
X148528070Y-112971930D02*
X149250000Y-112250000D01*
X141622726Y-112971930D02*
X148528070Y-112971930D01*
%TO.N,PC2*%
X148750000Y-110750000D02*
X149750000Y-110750000D01*
X149750000Y-109250000D02*
X150413521Y-108586479D01*
X150413521Y-108586479D02*
X156804297Y-108586479D01*
X157495990Y-107894786D02*
X157495990Y-104504010D01*
X156804297Y-108586479D02*
X157495990Y-107894786D01*
X160824499Y-103405501D02*
X161790000Y-102440000D01*
X158594499Y-103405501D02*
X160824499Y-103405501D01*
X157495990Y-104504010D02*
X158594499Y-103405501D01*
X141040100Y-112209900D02*
X142959900Y-112209900D01*
X137000000Y-116250000D02*
X141040100Y-112209900D01*
X142959900Y-112209900D02*
X147290100Y-112209900D01*
X142680876Y-112209900D02*
X142959900Y-112209900D01*
X147290100Y-112209900D02*
X148750000Y-110750000D01*
%TO.N,PE13*%
X141727940Y-113225940D02*
X149549894Y-113225940D01*
X138512030Y-116441850D02*
X141727940Y-113225940D01*
X138512030Y-120750000D02*
X138512030Y-116441850D01*
X138762030Y-121000000D02*
X138512030Y-120750000D01*
X140750000Y-121000000D02*
X138762030Y-121000000D01*
X150000000Y-112775834D02*
X150000000Y-112750000D01*
X149549894Y-113225940D02*
X150000000Y-112775834D01*
%TO.N,PC1*%
X148890776Y-110250000D02*
X150500000Y-110250000D01*
X160824499Y-105945501D02*
X161790000Y-104980000D01*
X159395557Y-105945501D02*
X160824499Y-105945501D01*
X156909511Y-108840489D02*
X157750000Y-108000000D01*
X150909511Y-108840489D02*
X156909511Y-108840489D01*
X157750000Y-107591058D02*
X159395557Y-105945501D01*
X157750000Y-108000000D02*
X157750000Y-107591058D01*
X150500000Y-109250000D02*
X150909511Y-108840489D01*
X140544110Y-111955890D02*
X143044110Y-111955890D01*
X137000000Y-115500000D02*
X140544110Y-111955890D01*
X143044110Y-111955890D02*
X147184886Y-111955890D01*
X142575662Y-111955890D02*
X143044110Y-111955890D01*
X147184886Y-111955890D02*
X148890776Y-110250000D01*
%TO.N,PE12*%
X149885058Y-113250000D02*
X150750000Y-113250000D01*
X149655108Y-113479950D02*
X149885058Y-113250000D01*
X141833154Y-113479950D02*
X149655108Y-113479950D01*
X138766040Y-116547064D02*
X141833154Y-113479950D01*
X138766040Y-120250000D02*
X138766040Y-116547064D01*
X139016040Y-120500000D02*
X138766040Y-120250000D01*
X141500000Y-120500000D02*
X139016040Y-120500000D01*
%TO.N,PC0*%
X160215501Y-109094499D02*
X161790000Y-107520000D01*
X151405501Y-109094499D02*
X160215501Y-109094499D01*
X150750000Y-109750000D02*
X151405501Y-109094499D01*
X149031552Y-109750000D02*
X150750000Y-109750000D01*
X140048120Y-111701880D02*
X143298120Y-111701880D01*
X137000000Y-114750000D02*
X140048120Y-111701880D01*
X143298120Y-111701880D02*
X147079672Y-111701880D01*
X142470448Y-111701880D02*
X143298120Y-111701880D01*
X147079672Y-111701880D02*
X149031552Y-109750000D01*
%TO.N,PE11*%
X149983960Y-113733960D02*
X150000000Y-113750000D01*
X141938368Y-113733960D02*
X149983960Y-113733960D01*
X139500000Y-116172328D02*
X141938368Y-113733960D01*
X139500000Y-116172328D02*
X139500000Y-117500000D01*
%TO.N,PB15*%
X159395557Y-111025501D02*
X160824499Y-111025501D01*
X156679348Y-123524532D02*
X156679348Y-113741710D01*
X156679348Y-113741710D02*
X159395557Y-111025501D01*
X156453880Y-123750000D02*
X156679348Y-123524532D01*
X142500000Y-123750000D02*
X156453880Y-123750000D01*
X160824499Y-111025501D02*
X161790000Y-110060000D01*
X142250000Y-123500000D02*
X142500000Y-123750000D01*
%TO.N,PE10*%
X148987970Y-113987970D02*
X149250000Y-114250000D01*
X142043582Y-113987970D02*
X148987970Y-113987970D01*
X140250000Y-115781552D02*
X142043582Y-113987970D01*
X140250000Y-115781552D02*
X140250000Y-117000000D01*
%TO.N,PB14*%
X160824499Y-113565501D02*
X161790000Y-112600000D01*
X156933358Y-116027700D02*
X159395557Y-113565501D01*
X156933358Y-123629746D02*
X156933358Y-116027700D01*
X159395557Y-113565501D02*
X160824499Y-113565501D01*
X156559094Y-124004010D02*
X156933358Y-123629746D01*
X142139068Y-124004010D02*
X156559094Y-124004010D01*
X141750000Y-123614942D02*
X142139068Y-124004010D01*
X141750000Y-122750000D02*
X141750000Y-123614942D01*
%TO.N,PE9*%
X147991980Y-114241980D02*
X148500000Y-114750000D01*
X142148796Y-114241980D02*
X147991980Y-114241980D01*
X141000000Y-115390776D02*
X142148796Y-114241980D01*
X141000000Y-115390776D02*
X141000000Y-116500000D01*
%TO.N,PB13*%
X160824499Y-116105501D02*
X161790000Y-115140000D01*
X159395557Y-116105501D02*
X160824499Y-116105501D01*
X157187368Y-118313690D02*
X159395557Y-116105501D01*
X157187368Y-123734960D02*
X157187368Y-118313690D01*
X156664308Y-124258020D02*
X157187368Y-123734960D01*
X142008020Y-124258020D02*
X156664308Y-124258020D01*
X141250000Y-123500000D02*
X142008020Y-124258020D01*
%TO.N,PE8*%
X147745990Y-115245990D02*
X147750000Y-115250000D01*
X147750000Y-114750000D02*
X147750000Y-115250000D01*
X147495990Y-114495990D02*
X147750000Y-114750000D01*
X142254010Y-114495990D02*
X147495990Y-114495990D01*
X141750000Y-115000000D02*
X142254010Y-114495990D01*
X141750000Y-115000000D02*
X141750000Y-116000000D01*
%TO.N,PB12*%
X159395557Y-118645501D02*
X160824499Y-118645501D01*
X160824499Y-118645501D02*
X161790000Y-117680000D01*
X157441378Y-123840174D02*
X157441378Y-120599680D01*
X156769522Y-124512030D02*
X157441378Y-123840174D01*
X141647088Y-124512030D02*
X156769522Y-124512030D01*
X157441378Y-120599680D02*
X159395557Y-118645501D01*
X140750000Y-123614942D02*
X141647088Y-124512030D01*
X140750000Y-122750000D02*
X140750000Y-123614942D01*
%TO.N,PE7*%
X143750000Y-115500000D02*
X146750000Y-115500000D01*
X147000000Y-115750000D02*
X148500000Y-115750000D01*
X146750000Y-115500000D02*
X147000000Y-115750000D01*
X143750000Y-115500000D02*
X142500000Y-115500000D01*
%TO.N,PB11*%
X160824499Y-121185501D02*
X161790000Y-120220000D01*
X159395557Y-121185501D02*
X160824499Y-121185501D01*
X157695388Y-122885670D02*
X159395557Y-121185501D01*
X157695388Y-123945388D02*
X157695388Y-122885670D01*
X156874736Y-124766040D02*
X157695388Y-123945388D01*
X140766040Y-124766040D02*
X156874736Y-124766040D01*
X138750000Y-122750000D02*
X140766040Y-124766040D01*
%TO.N,PE2*%
X149885058Y-107750000D02*
X150500000Y-107750000D01*
X146385058Y-111250000D02*
X149885058Y-107750000D01*
X134250000Y-111500000D02*
X139250000Y-111500000D01*
X139500000Y-111250000D02*
X146385058Y-111250000D01*
X139250000Y-111500000D02*
X139500000Y-111250000D01*
X151250000Y-111250000D02*
X151250000Y-116250000D01*
%TO.N,PB10*%
X160824499Y-123725501D02*
X161790000Y-122760000D01*
X158274499Y-123725501D02*
X160824499Y-123725501D01*
X156979950Y-125020050D02*
X158274499Y-123725501D01*
X139770050Y-125020050D02*
X156979950Y-125020050D01*
X138250000Y-123500000D02*
X139770050Y-125020050D01*
%TO.N,PB9*%
X131250000Y-112250000D02*
X131250000Y-111000000D01*
X135250000Y-112750000D02*
X131750000Y-112750000D01*
X131750000Y-112750000D02*
X131250000Y-112250000D01*
X135737970Y-113237970D02*
X135250000Y-112750000D01*
X135500000Y-117750000D02*
X135737970Y-117512030D01*
X135737970Y-113237970D02*
X135737970Y-117512030D01*
X160824499Y-126265501D02*
X161790000Y-125300000D01*
X158015501Y-126265501D02*
X160824499Y-126265501D01*
X157024060Y-125274060D02*
X158015501Y-126265501D01*
X139409118Y-125274060D02*
X157024060Y-125274060D01*
X137750000Y-123614942D02*
X139409118Y-125274060D01*
X137750000Y-118500000D02*
X137750000Y-123614942D01*
X137000000Y-117750000D02*
X137750000Y-118500000D01*
%TO.N,PB8*%
X160469510Y-126519510D02*
X157910286Y-126519510D01*
X161790000Y-127840000D02*
X160469510Y-126519510D01*
X157910286Y-126519510D02*
X156918846Y-125528070D01*
X139303903Y-125528069D02*
X137495990Y-123720156D01*
X156918846Y-125528070D02*
X139303903Y-125528069D01*
X137495990Y-123720156D02*
X137495990Y-122000000D01*
X137495990Y-122000000D02*
X137495990Y-120995990D01*
X135355215Y-112495991D02*
X135991980Y-113132756D01*
X131995990Y-112495990D02*
X135355215Y-112495991D01*
X131750000Y-112250000D02*
X131995990Y-112495990D01*
X131750000Y-111750000D02*
X131750000Y-112250000D01*
X137495990Y-118995990D02*
X137000000Y-118500000D01*
X137495990Y-120995990D02*
X137495990Y-118995990D01*
X135991980Y-118258020D02*
X135991980Y-113132756D01*
X135750000Y-118500000D02*
X135991980Y-118258020D01*
%TO.N,PB7*%
X136245990Y-119004010D02*
X136000000Y-119250000D01*
X135460430Y-112241982D02*
X136245990Y-113027542D01*
X132991981Y-112241981D02*
X135460430Y-112241982D01*
X132750000Y-112000000D02*
X132991981Y-112241981D01*
X132750000Y-111750000D02*
X132750000Y-112000000D01*
X136245990Y-119004010D02*
X136245990Y-113027542D01*
X137241980Y-123825370D02*
X137241980Y-119491980D01*
X156813631Y-125782079D02*
X139198688Y-125782078D01*
X137241980Y-119491980D02*
X137000000Y-119250000D01*
X157750000Y-127768942D02*
X157750000Y-126718448D01*
X139198688Y-125782078D02*
X137241980Y-123825370D01*
X159395557Y-129414499D02*
X157750000Y-127768942D01*
X157750000Y-126718448D02*
X156813631Y-125782079D01*
X160824499Y-129414499D02*
X159395557Y-129414499D01*
X161790000Y-130380000D02*
X160824499Y-129414499D01*
%TO.N,PB6*%
X156708416Y-126036088D02*
X139093473Y-126036087D01*
X160824499Y-131954499D02*
X159395557Y-131954499D01*
X133250000Y-111750000D02*
X133250000Y-111000000D01*
X161790000Y-132920000D02*
X160824499Y-131954499D01*
X135565645Y-111987973D02*
X133487972Y-111987972D01*
X133487972Y-111987972D02*
X133250000Y-111750000D01*
X159395557Y-131954499D02*
X157495990Y-130054932D01*
X157495990Y-130054932D02*
X157495990Y-126823662D01*
X157495990Y-126823662D02*
X156708416Y-126036088D01*
X136500000Y-119500000D02*
X136500000Y-112922328D01*
X136987970Y-119987970D02*
X136500000Y-119500000D01*
X139093473Y-126036087D02*
X136987970Y-123930584D01*
X136987970Y-123930584D02*
X136987970Y-119987970D01*
X136500000Y-112922328D02*
X135565645Y-111987973D01*
%TO.N,Net-(J5-PadA6)*%
X138250000Y-142750000D02*
X138750000Y-142250000D01*
X138790500Y-142209500D02*
X138790500Y-139182998D01*
X138750000Y-142250000D02*
X138790500Y-142209500D01*
%TO.N,Net-(J5-PadA7)*%
X138500000Y-137750000D02*
X137500000Y-136750000D01*
X136938499Y-137311501D02*
X137500000Y-136750000D01*
X136938499Y-142188499D02*
X136938499Y-137311501D01*
X137500000Y-142750000D02*
X136938499Y-142188499D01*
%TO.N,Net-(J5-PadA5)*%
X143500000Y-140112051D02*
X143500000Y-140500000D01*
X142137949Y-138750000D02*
X143500000Y-140112051D01*
X137854000Y-138750000D02*
X142137949Y-138750000D01*
X137354000Y-139250000D02*
X137854000Y-138750000D01*
%TO.N,BOOT0*%
X132665501Y-110584499D02*
X132250000Y-111000000D01*
X134584499Y-110584499D02*
X132665501Y-110584499D01*
X135000000Y-111000000D02*
X134584499Y-110584499D01*
X132750000Y-116250000D02*
X132750000Y-119000000D01*
D16*
%TO.N,USB_D+*%
X149225000Y-126926588D02*
X149350000Y-126801588D01*
X149225000Y-129140500D02*
X149225000Y-126926588D01*
X149350000Y-129265500D02*
X149225000Y-129140500D01*
X149225000Y-121109500D02*
X149350000Y-120984500D01*
X149225000Y-122975000D02*
X149225000Y-121109500D01*
X149500000Y-123250000D02*
X149225000Y-122975000D01*
%TO.N,USB_D-*%
X148775000Y-129140500D02*
X148775000Y-126926588D01*
X148775000Y-126926588D02*
X148650000Y-126801588D01*
X148650000Y-129265500D02*
X148775000Y-129140500D01*
X148775000Y-122975000D02*
X148775000Y-121109500D01*
X148775000Y-121109500D02*
X148650000Y-120984500D01*
X148500000Y-123250000D02*
X148775000Y-122975000D01*
%TD*%
M02*
