M48
; DRILL file {KiCad (5.1.9)-1} date 07/09/21 22:50:24
; FORMAT={-:-/ absolute / inch / decimal}
; #@! TF.CreationDate,2021-07-09T22:50:24+02:00
; #@! TF.GenerationSoftware,Kicad,Pcbnew,(5.1.9)-1
; #@! TF.FileFunction,Plated,1,4,PTH
FMAT,2
INCH
T1C0.0079
T2C0.0236
T3C0.0394
T4C0.0402
%
G90
G05
T1
X4.5472Y-4.3406
X4.5472Y-4.3701
X4.5472Y-4.3996
X4.5571Y-5.2264
X4.5768Y-4.4094
X4.5866Y-4.9213
X4.5866Y-4.9705
X4.5965Y-4.4488
X4.6161Y-4.4094
X4.6161Y-4.9213
X4.6161Y-4.9705
X4.6457Y-4.9213
X4.6457Y-4.9705
X4.6654Y-4.4193
X4.6654Y-4.5669
X4.6654Y-4.5965
X4.6654Y-4.626
X4.8031Y-5.7283
X4.872Y-4.6358
X4.872Y-4.7933
X4.9705Y-4.3898
X4.9705Y-4.4291
X4.9705Y-4.6654
X4.9705Y-4.7047
X5.0Y-4.4587
X5.0Y-4.5571
X5.0Y-4.7736
X5.0Y-4.872
X5.0445Y-5.3602
X5.0492Y-4.2577
X5.0689Y-5.1476
X5.0689Y-5.1772
X5.0689Y-5.2067
X5.0787Y-4.3406
X5.1181Y-3.4547
X5.1181Y-3.7697
X5.1181Y-3.8287
X5.128Y-4.311
X5.1378Y-4.3996
X5.1378Y-4.5571
X5.1476Y-4.7736
X5.1476Y-4.813
X5.1476Y-5.128
X5.1656Y-4.5096
X5.1673Y-3.4547
X5.1673Y-3.7697
X5.1673Y-4.3701
X5.1673Y-4.5374
X5.1673Y-5.0984
X5.1772Y-4.1339
X5.187Y-4.3996
X5.187Y-4.7736
X5.187Y-5.0689
X5.1969Y-4.5768
X5.1969Y-4.685
X5.2067Y-4.3701
X5.2067Y-4.8622
X5.2165Y-3.4547
X5.2264Y-4.3996
X5.2264Y-4.5768
X5.2264Y-4.685
X5.2264Y-4.8327
X5.2461Y-4.3701
X5.2461Y-4.8622
X5.2559Y-5.4429
X5.2657Y-4.1535
X5.2756Y-5.3346
X5.2854Y-3.8681
X5.2854Y-4.1831
X5.2854Y-4.3898
X5.2953Y-4.5768
X5.315Y-4.3701
X5.315Y-4.4587
X5.315Y-4.4882
X5.315Y-4.5177
X5.315Y-4.5472
X5.3248Y-4.1732
X5.3346Y-4.6358
X5.3445Y-4.1535
X5.3445Y-4.6654
X5.3543Y-4.6949
X5.3642Y-4.1732
X5.3839Y-4.1929
X5.3839Y-5.3888
X5.3937Y-4.5177
X5.3937Y-4.5472
X5.3937Y-4.5768
X5.3937Y-4.6063
X5.3937Y-4.6358
X5.3937Y-4.6654
X5.3937Y-4.6949
X5.4035Y-4.2126
X5.4076Y-5.4823
X5.4134Y-4.1339
X5.4134Y-5.3839
X5.4134Y-5.6201
X5.4232Y-4.2323
X5.4331Y-5.315
X5.4429Y-4.1831
X5.4429Y-4.8622
X5.4429Y-5.6201
X5.4528Y-5.4232
X5.4626Y-4.2028
X5.4626Y-4.8327
X5.4642Y-5.4796
X5.4724Y-5.0984
X5.4823Y-4.2224
X5.4823Y-4.8031
X5.4921Y-4.626
X5.502Y-4.2421
X5.5118Y-4.7835
X5.5118Y-5.3839
X5.5217Y-4.2618
X5.5217Y-4.6063
X5.5413Y-4.2323
X5.5413Y-4.7638
X5.5413Y-4.8327
X5.5512Y-4.5866
X5.5512Y-5.0984
X5.561Y-4.2618
X5.561Y-4.626
X5.561Y-4.8622
X5.5709Y-4.7441
X5.5807Y-4.5669
X5.5807Y-4.8327
X5.6004Y-4.8622
X5.6102Y-4.5472
X5.6102Y-4.6161
X5.6102Y-4.6752
X5.6102Y-4.7146
X5.6398Y-4.2323
X5.6398Y-4.5965
X5.6398Y-4.6555
X5.6398Y-4.7343
X5.6496Y-5.5315
X5.6594Y-4.1831
X5.6693Y-5.2362
X5.7382Y-4.6063
X5.7677Y-4.626
X5.7677Y-4.685
X5.7677Y-4.7835
X5.8169Y-4.5374
X5.8465Y-4.5177
X5.8465Y-4.5571
X5.8465Y-4.8524
X5.8524Y-4.7632
X5.8524Y-4.9922
X5.8524Y-5.0892
X5.8661Y-4.3012
X5.8661Y-4.3799
X5.876Y-4.4193
X5.876Y-4.498
X5.8799Y-4.7632
X5.8799Y-4.9922
X5.8799Y-5.0892
X5.8858Y-4.8524
X5.8957Y-4.3012
X5.8957Y-4.3602
X5.9055Y-4.3996
X5.9055Y-4.439
X5.9055Y-4.4783
X5.9252Y-4.2421
X5.9252Y-4.3012
X5.9252Y-4.3406
X5.935Y-4.4587
X5.9547Y-4.3799
X5.9547Y-4.5768
X5.9744Y-4.3209
X6.0039Y-4.3209
X6.0236Y-3.9272
X6.0236Y-4.3799
X6.0433Y-3.9075
X6.0433Y-4.3602
X6.063Y-3.9272
X6.063Y-4.3799
X6.0827Y-3.9075
X6.0827Y-4.3307
X6.0827Y-4.3602
X6.1024Y-3.9272
X6.1057Y-4.3114
X6.122Y-3.9075
T3
X5.7843Y-3.526
X5.7843Y-3.626
X5.8843Y-3.526
X5.8843Y-3.626
X5.9843Y-3.526
X5.9843Y-3.626
T4
X4.339Y-3.5331
X4.339Y-3.6331
X4.339Y-3.7331
X4.339Y-3.8331
X4.339Y-3.9331
X4.339Y-4.0331
X4.339Y-4.1331
X4.339Y-4.2331
X4.339Y-4.3331
X4.339Y-4.4331
X4.339Y-4.5331
X4.339Y-4.6331
X4.339Y-4.7331
X4.339Y-4.8331
X4.339Y-4.9331
X4.339Y-5.0331
X4.339Y-5.1331
X4.339Y-5.2331
X4.339Y-5.3331
X4.339Y-5.4331
X4.439Y-3.5331
X4.439Y-3.6331
X4.439Y-3.7331
X4.439Y-3.8331
X4.439Y-3.9331
X4.439Y-4.0331
X4.439Y-4.1331
X4.439Y-4.2331
X4.439Y-4.3331
X4.439Y-4.4331
X4.439Y-4.5331
X4.439Y-4.6331
X4.439Y-4.7331
X4.439Y-4.8331
X4.439Y-4.9331
X4.439Y-5.0331
X4.439Y-5.1331
X4.439Y-5.2331
X4.439Y-5.3331
X4.439Y-5.4331
X6.2697Y-3.5331
X6.2697Y-3.6331
X6.2697Y-3.7331
X6.2697Y-3.8331
X6.2697Y-3.9331
X6.2697Y-4.0331
X6.2697Y-4.1331
X6.2697Y-4.2331
X6.2697Y-4.3331
X6.2697Y-4.4331
X6.2697Y-4.5331
X6.2697Y-4.6331
X6.2697Y-4.7331
X6.2697Y-4.8331
X6.2697Y-4.9331
X6.2697Y-5.0331
X6.2697Y-5.1331
X6.2697Y-5.2331
X6.2697Y-5.3331
X6.2697Y-5.4331
X6.3697Y-3.5331
X6.3697Y-3.6331
X6.3697Y-3.7331
X6.3697Y-3.8331
X6.3697Y-3.9331
X6.3697Y-4.0331
X6.3697Y-4.1331
X6.3697Y-4.2331
X6.3697Y-4.3331
X6.3697Y-4.4331
X6.3697Y-4.5331
X6.3697Y-4.6331
X6.3697Y-4.7331
X6.3697Y-4.8331
X6.3697Y-4.9331
X6.3697Y-5.0331
X6.3697Y-5.1331
X6.3697Y-5.2331
X6.3697Y-5.3331
X6.3697Y-5.4331
T2
G00X5.263Y-5.5138
M15
G01X5.263Y-5.565
M16
G05
G00X5.263Y-5.7126
M15
G01X5.263Y-5.7638
M16
G05
G00X5.6031Y-5.5138
M15
G01X5.6031Y-5.565
M16
G05
G00X5.6031Y-5.7126
M15
G01X5.6031Y-5.7638
M16
G05
T0
M30
