%TF.GenerationSoftware,KiCad,Pcbnew,(5.1.9)-1*%
%TF.CreationDate,2021-07-09T22:50:26+02:00*%
%TF.ProjectId,hyperboard,68797065-7262-46f6-9172-642e6b696361,rev?*%
%TF.SameCoordinates,Original*%
%TF.FileFunction,Copper,L1,Top*%
%TF.FilePolarity,Positive*%
%FSLAX46Y46*%
G04 Gerber Fmt 4.6, Leading zero omitted, Abs format (unit mm)*
G04 Created by KiCad (PCBNEW (5.1.9)-1) date 2021-07-09 22:50:26*
%MOMM*%
%LPD*%
G01*
G04 APERTURE LIST*
%TA.AperFunction,SMDPad,CuDef*%
%ADD10R,1.800000X1.100000*%
%TD*%
%TA.AperFunction,SMDPad,CuDef*%
%ADD11R,0.900000X0.700000*%
%TD*%
%TA.AperFunction,SMDPad,CuDef*%
%ADD12R,0.600000X0.510000*%
%TD*%
%TA.AperFunction,SMDPad,CuDef*%
%ADD13R,0.375000X0.500000*%
%TD*%
%TA.AperFunction,SMDPad,CuDef*%
%ADD14R,0.300000X0.650000*%
%TD*%
%TA.AperFunction,ComponentPad*%
%ADD15O,1.200000X2.500000*%
%TD*%
%TA.AperFunction,SMDPad,CuDef*%
%ADD16R,0.270000X1.000000*%
%TD*%
%TA.AperFunction,ComponentPad*%
%ADD17C,1.550000*%
%TD*%
%TA.AperFunction,SMDPad,CuDef*%
%ADD18R,1.400000X1.200000*%
%TD*%
%TA.AperFunction,SMDPad,CuDef*%
%ADD19R,1.600000X1.000000*%
%TD*%
%TA.AperFunction,SMDPad,CuDef*%
%ADD20R,0.350000X0.650000*%
%TD*%
%TA.AperFunction,SMDPad,CuDef*%
%ADD21R,0.740000X2.790000*%
%TD*%
%TA.AperFunction,ComponentPad*%
%ADD22O,1.700000X1.700000*%
%TD*%
%TA.AperFunction,ComponentPad*%
%ADD23R,1.700000X1.700000*%
%TD*%
%TA.AperFunction,ViaPad*%
%ADD24C,0.450000*%
%TD*%
%TA.AperFunction,Conductor*%
%ADD25C,0.254000*%
%TD*%
%TA.AperFunction,Conductor*%
%ADD26C,0.127000*%
%TD*%
%TA.AperFunction,Conductor*%
%ADD27C,0.200000*%
%TD*%
G04 APERTURE END LIST*
D10*
%TO.P,SW1,4*%
%TO.N,NRST*%
X126350000Y-139850000D03*
%TO.P,SW1,3*%
X120150000Y-139850000D03*
%TO.P,SW1,2*%
%TO.N,GND*%
X126350000Y-136150000D03*
%TO.P,SW1,1*%
X120150000Y-136150000D03*
%TD*%
D11*
%TO.P,SW2,MP2*%
%TO.N,GND*%
X126000000Y-147550000D03*
%TO.P,SW2,MP1*%
X120000000Y-147550000D03*
D12*
%TO.P,SW2,C1*%
%TO.N,Net-(R9-Pad1)*%
X123000000Y-146195000D03*
%TO.P,SW2,2*%
%TO.N,GND*%
X124000000Y-146195000D03*
%TO.P,SW2,1*%
%TO.N,+3V3*%
X122000000Y-146195000D03*
%TD*%
D13*
%TO.P,U3,6*%
%TO.N,USB_D-*%
X137462500Y-133900000D03*
%TO.P,U3,4*%
%TO.N,USB_D+*%
X138537500Y-133900000D03*
D14*
%TO.P,U3,2*%
%TO.N,GND*%
X138000000Y-135675000D03*
%TO.P,U3,5*%
%TO.N,+5V*%
X138000000Y-133825000D03*
D13*
%TO.P,U3,3*%
%TO.N,Net-(J5-PadA6)*%
X138537500Y-135600000D03*
%TO.P,U3,1*%
%TO.N,Net-(J5-PadA7)*%
X137462500Y-135600000D03*
%TD*%
%TO.P,C9,2*%
%TO.N,GND*%
%TA.AperFunction,SMDPad,CuDef*%
G36*
G01*
X143250000Y-132925000D02*
X142750000Y-132925000D01*
G75*
G02*
X142525000Y-132700000I0J225000D01*
G01*
X142525000Y-132250000D01*
G75*
G02*
X142750000Y-132025000I225000J0D01*
G01*
X143250000Y-132025000D01*
G75*
G02*
X143475000Y-132250000I0J-225000D01*
G01*
X143475000Y-132700000D01*
G75*
G02*
X143250000Y-132925000I-225000J0D01*
G01*
G37*
%TD.AperFunction*%
%TO.P,C9,1*%
%TO.N,+3V3*%
%TA.AperFunction,SMDPad,CuDef*%
G36*
G01*
X143250000Y-134475000D02*
X142750000Y-134475000D01*
G75*
G02*
X142525000Y-134250000I0J225000D01*
G01*
X142525000Y-133800000D01*
G75*
G02*
X142750000Y-133575000I225000J0D01*
G01*
X143250000Y-133575000D01*
G75*
G02*
X143475000Y-133800000I0J-225000D01*
G01*
X143475000Y-134250000D01*
G75*
G02*
X143250000Y-134475000I-225000J0D01*
G01*
G37*
%TD.AperFunction*%
%TD*%
D15*
%TO.P,J5,2*%
%TO.N,GND*%
X142320000Y-140700000D03*
%TO.P,J5,1*%
X133680000Y-140700000D03*
D16*
%TO.P,J5,A1*%
X135375000Y-140035000D03*
%TO.P,J5,A2*%
%TO.N,Net-(J5-PadA2)*%
X135875000Y-140035000D03*
%TO.P,J5,A3*%
%TO.N,Net-(J5-PadA3)*%
X136375000Y-140035000D03*
%TO.P,J5,A4*%
%TO.N,Net-(FB1-Pad2)*%
X136875000Y-140035000D03*
%TO.P,J5,A5*%
%TO.N,Net-(J5-PadA5)*%
X137375000Y-140035000D03*
%TO.P,J5,A6*%
%TO.N,Net-(J5-PadA6)*%
X137875000Y-140035000D03*
%TO.P,J5,A7*%
%TO.N,Net-(J5-PadA7)*%
X138375000Y-140035000D03*
%TO.P,J5,A8*%
%TO.N,Net-(J5-PadA8)*%
X138875000Y-140035000D03*
%TO.P,J5,A9*%
%TO.N,Net-(FB1-Pad2)*%
X139375000Y-140035000D03*
%TO.P,J5,A10*%
%TO.N,Net-(J5-PadA10)*%
X139875000Y-140035000D03*
%TO.P,J5,A11*%
%TO.N,Net-(J5-PadA11)*%
X140375000Y-140035000D03*
%TO.P,J5,A12*%
%TO.N,GND*%
X140875000Y-140035000D03*
%TO.P,J5,B1*%
X140625000Y-141685000D03*
%TO.P,J5,B2*%
%TO.N,Net-(J5-PadB2)*%
X140125000Y-141685000D03*
%TO.P,J5,B3*%
%TO.N,Net-(J5-PadB3)*%
X139625000Y-141685000D03*
%TO.P,J5,B4*%
%TO.N,Net-(FB1-Pad2)*%
X139125000Y-141685000D03*
%TO.P,J5,B5*%
%TO.N,Net-(J5-PadB5)*%
X138625000Y-141685000D03*
%TO.P,J5,B6*%
%TO.N,Net-(J5-PadA6)*%
X138125000Y-141685000D03*
%TO.P,J5,B7*%
%TO.N,Net-(J5-PadA7)*%
X137625000Y-141685000D03*
%TO.P,J5,B8*%
%TO.N,Net-(J5-PadB8)*%
X137125000Y-141685000D03*
%TO.P,J5,B9*%
%TO.N,Net-(FB1-Pad2)*%
X136625000Y-141685000D03*
%TO.P,J5,B10*%
%TO.N,Net-(J5-PadB10)*%
X136125000Y-141685000D03*
%TO.P,J5,B11*%
%TO.N,Net-(J5-PadB11)*%
X135625000Y-141685000D03*
%TO.P,J5,B12*%
%TO.N,GND*%
X135125000Y-141685000D03*
D15*
%TO.P,J5,3*%
X133680000Y-145750000D03*
%TO.P,J5,4*%
X142320000Y-145750000D03*
%TD*%
D17*
%TO.P,J3,40*%
%TO.N,GND*%
X112750000Y-89740000D03*
%TO.P,J3,39*%
%TO.N,+3V3*%
X110210000Y-89740000D03*
%TO.P,J3,38*%
%TO.N,GND*%
X112750000Y-92280000D03*
%TO.P,J3,37*%
%TO.N,+3V3*%
X110210000Y-92280000D03*
%TO.P,J3,36*%
%TO.N,PB5*%
X112750000Y-94820000D03*
%TO.P,J3,35*%
%TO.N,PD7*%
X110210000Y-94820000D03*
%TO.P,J3,34*%
%TO.N,PB4*%
X112750000Y-97360000D03*
%TO.P,J3,33*%
%TO.N,PD6*%
X110210000Y-97360000D03*
%TO.P,J3,32*%
%TO.N,PB2*%
X112750000Y-99900000D03*
%TO.P,J3,31*%
%TO.N,PD5*%
X110210000Y-99900000D03*
%TO.P,J3,30*%
%TO.N,PB1*%
X112750000Y-102440000D03*
%TO.P,J3,29*%
%TO.N,PD4*%
X110210000Y-102440000D03*
%TO.P,J3,28*%
%TO.N,PB0*%
X112750000Y-104980000D03*
%TO.P,J3,27*%
%TO.N,PD3*%
X110210000Y-104980000D03*
%TO.P,J3,26*%
%TO.N,PA15*%
X112750000Y-107520000D03*
%TO.P,J3,25*%
%TO.N,PD2*%
X110210000Y-107520000D03*
%TO.P,J3,24*%
%TO.N,PA10*%
X112750000Y-110060000D03*
%TO.P,J3,23*%
%TO.N,PD1*%
X110210000Y-110060000D03*
%TO.P,J3,22*%
%TO.N,PA9*%
X112750000Y-112600000D03*
%TO.P,J3,21*%
%TO.N,PD0*%
X110210000Y-112600000D03*
%TO.P,J3,20*%
%TO.N,PA8*%
X112750000Y-115140000D03*
%TO.P,J3,19*%
%TO.N,PC15*%
X110210000Y-115140000D03*
%TO.P,J3,18*%
%TO.N,PA7*%
X112750000Y-117680000D03*
%TO.P,J3,17*%
%TO.N,PC14*%
X110210000Y-117680000D03*
%TO.P,J3,16*%
%TO.N,PA6*%
X112750000Y-120220000D03*
%TO.P,J3,15*%
%TO.N,PC13*%
X110210000Y-120220000D03*
%TO.P,J3,14*%
%TO.N,PA5*%
X112750000Y-122760000D03*
%TO.P,J3,13*%
%TO.N,PC12*%
X110210000Y-122760000D03*
%TO.P,J3,12*%
%TO.N,PA4*%
X112750000Y-125300000D03*
%TO.P,J3,11*%
%TO.N,PC11*%
X110210000Y-125300000D03*
%TO.P,J3,10*%
%TO.N,PA3*%
X112750000Y-127840000D03*
%TO.P,J3,9*%
%TO.N,PC10*%
X110210000Y-127840000D03*
%TO.P,J3,8*%
%TO.N,PA2*%
X112750000Y-130380000D03*
%TO.P,J3,7*%
%TO.N,PC9*%
X110210000Y-130380000D03*
%TO.P,J3,6*%
%TO.N,PA1*%
X112750000Y-132920000D03*
%TO.P,J3,5*%
%TO.N,PC8*%
X110210000Y-132920000D03*
%TO.P,J3,4*%
%TO.N,GND*%
X112750000Y-135460000D03*
%TO.P,J3,3*%
%TO.N,+3V3*%
X110210000Y-135460000D03*
%TO.P,J3,2*%
%TO.N,GND*%
X112750000Y-138000000D03*
%TO.P,J3,1*%
%TO.N,+3V3*%
X110210000Y-138000000D03*
%TD*%
%TO.P,J4,40*%
%TO.N,GND*%
X161790000Y-89740000D03*
%TO.P,J4,39*%
%TO.N,+3V3*%
X159250000Y-89740000D03*
%TO.P,J4,38*%
%TO.N,GND*%
X161790000Y-92280000D03*
%TO.P,J4,37*%
%TO.N,+3V3*%
X159250000Y-92280000D03*
%TO.P,J4,36*%
%TO.N,PC7*%
X161790000Y-94820000D03*
%TO.P,J4,35*%
%TO.N,Net-(J4-Pad35)*%
X159250000Y-94820000D03*
%TO.P,J4,34*%
%TO.N,PC6*%
X161790000Y-97360000D03*
%TO.P,J4,33*%
%TO.N,PE15*%
X159250000Y-97360000D03*
%TO.P,J4,32*%
%TO.N,PC3*%
X161790000Y-99900000D03*
%TO.P,J4,31*%
%TO.N,PE14*%
X159250000Y-99900000D03*
%TO.P,J4,30*%
%TO.N,PC2*%
X161790000Y-102440000D03*
%TO.P,J4,29*%
%TO.N,PE13*%
X159250000Y-102440000D03*
%TO.P,J4,28*%
%TO.N,PC1*%
X161790000Y-104980000D03*
%TO.P,J4,27*%
%TO.N,PE12*%
X159250000Y-104980000D03*
%TO.P,J4,26*%
%TO.N,PC0*%
X161790000Y-107520000D03*
%TO.P,J4,25*%
%TO.N,PE11*%
X159250000Y-107520000D03*
%TO.P,J4,24*%
%TO.N,PB15*%
X161790000Y-110060000D03*
%TO.P,J4,23*%
%TO.N,PE10*%
X159250000Y-110060000D03*
%TO.P,J4,22*%
%TO.N,PB14*%
X161790000Y-112600000D03*
%TO.P,J4,21*%
%TO.N,PE9*%
X159250000Y-112600000D03*
%TO.P,J4,20*%
%TO.N,PB13*%
X161790000Y-115140000D03*
%TO.P,J4,19*%
%TO.N,PE8*%
X159250000Y-115140000D03*
%TO.P,J4,18*%
%TO.N,PB12*%
X161790000Y-117680000D03*
%TO.P,J4,17*%
%TO.N,PE7*%
X159250000Y-117680000D03*
%TO.P,J4,16*%
%TO.N,PB11*%
X161790000Y-120220000D03*
%TO.P,J4,15*%
%TO.N,PE2*%
X159250000Y-120220000D03*
%TO.P,J4,14*%
%TO.N,PB10*%
X161790000Y-122760000D03*
%TO.P,J4,13*%
%TO.N,PD15*%
X159250000Y-122760000D03*
%TO.P,J4,12*%
%TO.N,PB9*%
X161790000Y-125300000D03*
%TO.P,J4,11*%
%TO.N,PD14*%
X159250000Y-125300000D03*
%TO.P,J4,10*%
%TO.N,PB8*%
X161790000Y-127840000D03*
%TO.P,J4,9*%
%TO.N,PD10*%
X159250000Y-127840000D03*
%TO.P,J4,8*%
%TO.N,PB7*%
X161790000Y-130380000D03*
%TO.P,J4,7*%
%TO.N,PD9*%
X159250000Y-130380000D03*
%TO.P,J4,6*%
%TO.N,PB6*%
X161790000Y-132920000D03*
%TO.P,J4,5*%
%TO.N,PD8*%
X159250000Y-132920000D03*
%TO.P,J4,4*%
%TO.N,GND*%
X161790000Y-135460000D03*
%TO.P,J4,3*%
%TO.N,+3V3*%
X159250000Y-135460000D03*
%TO.P,J4,2*%
%TO.N,GND*%
X161790000Y-138000000D03*
%TO.P,J4,1*%
%TO.N,+3V3*%
X159250000Y-138000000D03*
%TD*%
%TO.P,U1,100*%
%TO.N,+3V3*%
%TA.AperFunction,SMDPad,CuDef*%
G36*
G01*
X130600000Y-110300000D02*
X130600000Y-108850000D01*
G75*
G02*
X130675000Y-108775000I75000J0D01*
G01*
X130825000Y-108775000D01*
G75*
G02*
X130900000Y-108850000I0J-75000D01*
G01*
X130900000Y-110300000D01*
G75*
G02*
X130825000Y-110375000I-75000J0D01*
G01*
X130675000Y-110375000D01*
G75*
G02*
X130600000Y-110300000I0J75000D01*
G01*
G37*
%TD.AperFunction*%
%TO.P,U1,99*%
%TO.N,PB9*%
%TA.AperFunction,SMDPad,CuDef*%
G36*
G01*
X131100000Y-110300000D02*
X131100000Y-108850000D01*
G75*
G02*
X131175000Y-108775000I75000J0D01*
G01*
X131325000Y-108775000D01*
G75*
G02*
X131400000Y-108850000I0J-75000D01*
G01*
X131400000Y-110300000D01*
G75*
G02*
X131325000Y-110375000I-75000J0D01*
G01*
X131175000Y-110375000D01*
G75*
G02*
X131100000Y-110300000I0J75000D01*
G01*
G37*
%TD.AperFunction*%
%TO.P,U1,98*%
%TO.N,PB8*%
%TA.AperFunction,SMDPad,CuDef*%
G36*
G01*
X131600000Y-110300000D02*
X131600000Y-108850000D01*
G75*
G02*
X131675000Y-108775000I75000J0D01*
G01*
X131825000Y-108775000D01*
G75*
G02*
X131900000Y-108850000I0J-75000D01*
G01*
X131900000Y-110300000D01*
G75*
G02*
X131825000Y-110375000I-75000J0D01*
G01*
X131675000Y-110375000D01*
G75*
G02*
X131600000Y-110300000I0J75000D01*
G01*
G37*
%TD.AperFunction*%
%TO.P,U1,97*%
%TO.N,BOOT0*%
%TA.AperFunction,SMDPad,CuDef*%
G36*
G01*
X132100000Y-110300000D02*
X132100000Y-108850000D01*
G75*
G02*
X132175000Y-108775000I75000J0D01*
G01*
X132325000Y-108775000D01*
G75*
G02*
X132400000Y-108850000I0J-75000D01*
G01*
X132400000Y-110300000D01*
G75*
G02*
X132325000Y-110375000I-75000J0D01*
G01*
X132175000Y-110375000D01*
G75*
G02*
X132100000Y-110300000I0J75000D01*
G01*
G37*
%TD.AperFunction*%
%TO.P,U1,96*%
%TO.N,PB7*%
%TA.AperFunction,SMDPad,CuDef*%
G36*
G01*
X132600000Y-110300000D02*
X132600000Y-108850000D01*
G75*
G02*
X132675000Y-108775000I75000J0D01*
G01*
X132825000Y-108775000D01*
G75*
G02*
X132900000Y-108850000I0J-75000D01*
G01*
X132900000Y-110300000D01*
G75*
G02*
X132825000Y-110375000I-75000J0D01*
G01*
X132675000Y-110375000D01*
G75*
G02*
X132600000Y-110300000I0J75000D01*
G01*
G37*
%TD.AperFunction*%
%TO.P,U1,95*%
%TO.N,PB6*%
%TA.AperFunction,SMDPad,CuDef*%
G36*
G01*
X133100000Y-110300000D02*
X133100000Y-108850000D01*
G75*
G02*
X133175000Y-108775000I75000J0D01*
G01*
X133325000Y-108775000D01*
G75*
G02*
X133400000Y-108850000I0J-75000D01*
G01*
X133400000Y-110300000D01*
G75*
G02*
X133325000Y-110375000I-75000J0D01*
G01*
X133175000Y-110375000D01*
G75*
G02*
X133100000Y-110300000I0J75000D01*
G01*
G37*
%TD.AperFunction*%
%TO.P,U1,94*%
%TO.N,PB5*%
%TA.AperFunction,SMDPad,CuDef*%
G36*
G01*
X133600000Y-110300000D02*
X133600000Y-108850000D01*
G75*
G02*
X133675000Y-108775000I75000J0D01*
G01*
X133825000Y-108775000D01*
G75*
G02*
X133900000Y-108850000I0J-75000D01*
G01*
X133900000Y-110300000D01*
G75*
G02*
X133825000Y-110375000I-75000J0D01*
G01*
X133675000Y-110375000D01*
G75*
G02*
X133600000Y-110300000I0J75000D01*
G01*
G37*
%TD.AperFunction*%
%TO.P,U1,93*%
%TO.N,PB4*%
%TA.AperFunction,SMDPad,CuDef*%
G36*
G01*
X134100000Y-110300000D02*
X134100000Y-108850000D01*
G75*
G02*
X134175000Y-108775000I75000J0D01*
G01*
X134325000Y-108775000D01*
G75*
G02*
X134400000Y-108850000I0J-75000D01*
G01*
X134400000Y-110300000D01*
G75*
G02*
X134325000Y-110375000I-75000J0D01*
G01*
X134175000Y-110375000D01*
G75*
G02*
X134100000Y-110300000I0J75000D01*
G01*
G37*
%TD.AperFunction*%
%TO.P,U1,92*%
%TO.N,SWO*%
%TA.AperFunction,SMDPad,CuDef*%
G36*
G01*
X134600000Y-110300000D02*
X134600000Y-108850000D01*
G75*
G02*
X134675000Y-108775000I75000J0D01*
G01*
X134825000Y-108775000D01*
G75*
G02*
X134900000Y-108850000I0J-75000D01*
G01*
X134900000Y-110300000D01*
G75*
G02*
X134825000Y-110375000I-75000J0D01*
G01*
X134675000Y-110375000D01*
G75*
G02*
X134600000Y-110300000I0J75000D01*
G01*
G37*
%TD.AperFunction*%
%TO.P,U1,91*%
%TO.N,PD7*%
%TA.AperFunction,SMDPad,CuDef*%
G36*
G01*
X135100000Y-110300000D02*
X135100000Y-108850000D01*
G75*
G02*
X135175000Y-108775000I75000J0D01*
G01*
X135325000Y-108775000D01*
G75*
G02*
X135400000Y-108850000I0J-75000D01*
G01*
X135400000Y-110300000D01*
G75*
G02*
X135325000Y-110375000I-75000J0D01*
G01*
X135175000Y-110375000D01*
G75*
G02*
X135100000Y-110300000I0J75000D01*
G01*
G37*
%TD.AperFunction*%
%TO.P,U1,90*%
%TO.N,PD6*%
%TA.AperFunction,SMDPad,CuDef*%
G36*
G01*
X135600000Y-110300000D02*
X135600000Y-108850000D01*
G75*
G02*
X135675000Y-108775000I75000J0D01*
G01*
X135825000Y-108775000D01*
G75*
G02*
X135900000Y-108850000I0J-75000D01*
G01*
X135900000Y-110300000D01*
G75*
G02*
X135825000Y-110375000I-75000J0D01*
G01*
X135675000Y-110375000D01*
G75*
G02*
X135600000Y-110300000I0J75000D01*
G01*
G37*
%TD.AperFunction*%
%TO.P,U1,89*%
%TO.N,PD5*%
%TA.AperFunction,SMDPad,CuDef*%
G36*
G01*
X136100000Y-110300000D02*
X136100000Y-108850000D01*
G75*
G02*
X136175000Y-108775000I75000J0D01*
G01*
X136325000Y-108775000D01*
G75*
G02*
X136400000Y-108850000I0J-75000D01*
G01*
X136400000Y-110300000D01*
G75*
G02*
X136325000Y-110375000I-75000J0D01*
G01*
X136175000Y-110375000D01*
G75*
G02*
X136100000Y-110300000I0J75000D01*
G01*
G37*
%TD.AperFunction*%
%TO.P,U1,88*%
%TO.N,PD4*%
%TA.AperFunction,SMDPad,CuDef*%
G36*
G01*
X136600000Y-110300000D02*
X136600000Y-108850000D01*
G75*
G02*
X136675000Y-108775000I75000J0D01*
G01*
X136825000Y-108775000D01*
G75*
G02*
X136900000Y-108850000I0J-75000D01*
G01*
X136900000Y-110300000D01*
G75*
G02*
X136825000Y-110375000I-75000J0D01*
G01*
X136675000Y-110375000D01*
G75*
G02*
X136600000Y-110300000I0J75000D01*
G01*
G37*
%TD.AperFunction*%
%TO.P,U1,87*%
%TO.N,PD3*%
%TA.AperFunction,SMDPad,CuDef*%
G36*
G01*
X137100000Y-110300000D02*
X137100000Y-108850000D01*
G75*
G02*
X137175000Y-108775000I75000J0D01*
G01*
X137325000Y-108775000D01*
G75*
G02*
X137400000Y-108850000I0J-75000D01*
G01*
X137400000Y-110300000D01*
G75*
G02*
X137325000Y-110375000I-75000J0D01*
G01*
X137175000Y-110375000D01*
G75*
G02*
X137100000Y-110300000I0J75000D01*
G01*
G37*
%TD.AperFunction*%
%TO.P,U1,86*%
%TO.N,PD2*%
%TA.AperFunction,SMDPad,CuDef*%
G36*
G01*
X137600000Y-110300000D02*
X137600000Y-108850000D01*
G75*
G02*
X137675000Y-108775000I75000J0D01*
G01*
X137825000Y-108775000D01*
G75*
G02*
X137900000Y-108850000I0J-75000D01*
G01*
X137900000Y-110300000D01*
G75*
G02*
X137825000Y-110375000I-75000J0D01*
G01*
X137675000Y-110375000D01*
G75*
G02*
X137600000Y-110300000I0J75000D01*
G01*
G37*
%TD.AperFunction*%
%TO.P,U1,85*%
%TO.N,PD1*%
%TA.AperFunction,SMDPad,CuDef*%
G36*
G01*
X138100000Y-110300000D02*
X138100000Y-108850000D01*
G75*
G02*
X138175000Y-108775000I75000J0D01*
G01*
X138325000Y-108775000D01*
G75*
G02*
X138400000Y-108850000I0J-75000D01*
G01*
X138400000Y-110300000D01*
G75*
G02*
X138325000Y-110375000I-75000J0D01*
G01*
X138175000Y-110375000D01*
G75*
G02*
X138100000Y-110300000I0J75000D01*
G01*
G37*
%TD.AperFunction*%
%TO.P,U1,84*%
%TO.N,PD0*%
%TA.AperFunction,SMDPad,CuDef*%
G36*
G01*
X138600000Y-110300000D02*
X138600000Y-108850000D01*
G75*
G02*
X138675000Y-108775000I75000J0D01*
G01*
X138825000Y-108775000D01*
G75*
G02*
X138900000Y-108850000I0J-75000D01*
G01*
X138900000Y-110300000D01*
G75*
G02*
X138825000Y-110375000I-75000J0D01*
G01*
X138675000Y-110375000D01*
G75*
G02*
X138600000Y-110300000I0J75000D01*
G01*
G37*
%TD.AperFunction*%
%TO.P,U1,83*%
%TO.N,PC12*%
%TA.AperFunction,SMDPad,CuDef*%
G36*
G01*
X139100000Y-110300000D02*
X139100000Y-108850000D01*
G75*
G02*
X139175000Y-108775000I75000J0D01*
G01*
X139325000Y-108775000D01*
G75*
G02*
X139400000Y-108850000I0J-75000D01*
G01*
X139400000Y-110300000D01*
G75*
G02*
X139325000Y-110375000I-75000J0D01*
G01*
X139175000Y-110375000D01*
G75*
G02*
X139100000Y-110300000I0J75000D01*
G01*
G37*
%TD.AperFunction*%
%TO.P,U1,82*%
%TO.N,PC11*%
%TA.AperFunction,SMDPad,CuDef*%
G36*
G01*
X139600000Y-110300000D02*
X139600000Y-108850000D01*
G75*
G02*
X139675000Y-108775000I75000J0D01*
G01*
X139825000Y-108775000D01*
G75*
G02*
X139900000Y-108850000I0J-75000D01*
G01*
X139900000Y-110300000D01*
G75*
G02*
X139825000Y-110375000I-75000J0D01*
G01*
X139675000Y-110375000D01*
G75*
G02*
X139600000Y-110300000I0J75000D01*
G01*
G37*
%TD.AperFunction*%
%TO.P,U1,81*%
%TO.N,PC10*%
%TA.AperFunction,SMDPad,CuDef*%
G36*
G01*
X140100000Y-110300000D02*
X140100000Y-108850000D01*
G75*
G02*
X140175000Y-108775000I75000J0D01*
G01*
X140325000Y-108775000D01*
G75*
G02*
X140400000Y-108850000I0J-75000D01*
G01*
X140400000Y-110300000D01*
G75*
G02*
X140325000Y-110375000I-75000J0D01*
G01*
X140175000Y-110375000D01*
G75*
G02*
X140100000Y-110300000I0J75000D01*
G01*
G37*
%TD.AperFunction*%
%TO.P,U1,80*%
%TO.N,PA15*%
%TA.AperFunction,SMDPad,CuDef*%
G36*
G01*
X140600000Y-110300000D02*
X140600000Y-108850000D01*
G75*
G02*
X140675000Y-108775000I75000J0D01*
G01*
X140825000Y-108775000D01*
G75*
G02*
X140900000Y-108850000I0J-75000D01*
G01*
X140900000Y-110300000D01*
G75*
G02*
X140825000Y-110375000I-75000J0D01*
G01*
X140675000Y-110375000D01*
G75*
G02*
X140600000Y-110300000I0J75000D01*
G01*
G37*
%TD.AperFunction*%
%TO.P,U1,79*%
%TO.N,SWCLK*%
%TA.AperFunction,SMDPad,CuDef*%
G36*
G01*
X141100000Y-110300000D02*
X141100000Y-108850000D01*
G75*
G02*
X141175000Y-108775000I75000J0D01*
G01*
X141325000Y-108775000D01*
G75*
G02*
X141400000Y-108850000I0J-75000D01*
G01*
X141400000Y-110300000D01*
G75*
G02*
X141325000Y-110375000I-75000J0D01*
G01*
X141175000Y-110375000D01*
G75*
G02*
X141100000Y-110300000I0J75000D01*
G01*
G37*
%TD.AperFunction*%
%TO.P,U1,78*%
%TO.N,GND*%
%TA.AperFunction,SMDPad,CuDef*%
G36*
G01*
X141600000Y-110300000D02*
X141600000Y-108850000D01*
G75*
G02*
X141675000Y-108775000I75000J0D01*
G01*
X141825000Y-108775000D01*
G75*
G02*
X141900000Y-108850000I0J-75000D01*
G01*
X141900000Y-110300000D01*
G75*
G02*
X141825000Y-110375000I-75000J0D01*
G01*
X141675000Y-110375000D01*
G75*
G02*
X141600000Y-110300000I0J75000D01*
G01*
G37*
%TD.AperFunction*%
%TO.P,U1,77*%
%TO.N,+3V3*%
%TA.AperFunction,SMDPad,CuDef*%
G36*
G01*
X142100000Y-110300000D02*
X142100000Y-108850000D01*
G75*
G02*
X142175000Y-108775000I75000J0D01*
G01*
X142325000Y-108775000D01*
G75*
G02*
X142400000Y-108850000I0J-75000D01*
G01*
X142400000Y-110300000D01*
G75*
G02*
X142325000Y-110375000I-75000J0D01*
G01*
X142175000Y-110375000D01*
G75*
G02*
X142100000Y-110300000I0J75000D01*
G01*
G37*
%TD.AperFunction*%
%TO.P,U1,76*%
%TO.N,Net-(C4-Pad1)*%
%TA.AperFunction,SMDPad,CuDef*%
G36*
G01*
X142600000Y-110300000D02*
X142600000Y-108850000D01*
G75*
G02*
X142675000Y-108775000I75000J0D01*
G01*
X142825000Y-108775000D01*
G75*
G02*
X142900000Y-108850000I0J-75000D01*
G01*
X142900000Y-110300000D01*
G75*
G02*
X142825000Y-110375000I-75000J0D01*
G01*
X142675000Y-110375000D01*
G75*
G02*
X142600000Y-110300000I0J75000D01*
G01*
G37*
%TD.AperFunction*%
%TO.P,U1,75*%
%TO.N,SWDIO*%
%TA.AperFunction,SMDPad,CuDef*%
G36*
G01*
X143625000Y-111325000D02*
X143625000Y-111175000D01*
G75*
G02*
X143700000Y-111100000I75000J0D01*
G01*
X145150000Y-111100000D01*
G75*
G02*
X145225000Y-111175000I0J-75000D01*
G01*
X145225000Y-111325000D01*
G75*
G02*
X145150000Y-111400000I-75000J0D01*
G01*
X143700000Y-111400000D01*
G75*
G02*
X143625000Y-111325000I0J75000D01*
G01*
G37*
%TD.AperFunction*%
%TO.P,U1,74*%
%TO.N,USB_D+*%
%TA.AperFunction,SMDPad,CuDef*%
G36*
G01*
X143625000Y-111825000D02*
X143625000Y-111675000D01*
G75*
G02*
X143700000Y-111600000I75000J0D01*
G01*
X145150000Y-111600000D01*
G75*
G02*
X145225000Y-111675000I0J-75000D01*
G01*
X145225000Y-111825000D01*
G75*
G02*
X145150000Y-111900000I-75000J0D01*
G01*
X143700000Y-111900000D01*
G75*
G02*
X143625000Y-111825000I0J75000D01*
G01*
G37*
%TD.AperFunction*%
%TO.P,U1,73*%
%TO.N,USB_D-*%
%TA.AperFunction,SMDPad,CuDef*%
G36*
G01*
X143625000Y-112325000D02*
X143625000Y-112175000D01*
G75*
G02*
X143700000Y-112100000I75000J0D01*
G01*
X145150000Y-112100000D01*
G75*
G02*
X145225000Y-112175000I0J-75000D01*
G01*
X145225000Y-112325000D01*
G75*
G02*
X145150000Y-112400000I-75000J0D01*
G01*
X143700000Y-112400000D01*
G75*
G02*
X143625000Y-112325000I0J75000D01*
G01*
G37*
%TD.AperFunction*%
%TO.P,U1,72*%
%TO.N,PA10*%
%TA.AperFunction,SMDPad,CuDef*%
G36*
G01*
X143625000Y-112825000D02*
X143625000Y-112675000D01*
G75*
G02*
X143700000Y-112600000I75000J0D01*
G01*
X145150000Y-112600000D01*
G75*
G02*
X145225000Y-112675000I0J-75000D01*
G01*
X145225000Y-112825000D01*
G75*
G02*
X145150000Y-112900000I-75000J0D01*
G01*
X143700000Y-112900000D01*
G75*
G02*
X143625000Y-112825000I0J75000D01*
G01*
G37*
%TD.AperFunction*%
%TO.P,U1,71*%
%TO.N,PA9*%
%TA.AperFunction,SMDPad,CuDef*%
G36*
G01*
X143625000Y-113325000D02*
X143625000Y-113175000D01*
G75*
G02*
X143700000Y-113100000I75000J0D01*
G01*
X145150000Y-113100000D01*
G75*
G02*
X145225000Y-113175000I0J-75000D01*
G01*
X145225000Y-113325000D01*
G75*
G02*
X145150000Y-113400000I-75000J0D01*
G01*
X143700000Y-113400000D01*
G75*
G02*
X143625000Y-113325000I0J75000D01*
G01*
G37*
%TD.AperFunction*%
%TO.P,U1,70*%
%TO.N,PA8*%
%TA.AperFunction,SMDPad,CuDef*%
G36*
G01*
X143625000Y-113825000D02*
X143625000Y-113675000D01*
G75*
G02*
X143700000Y-113600000I75000J0D01*
G01*
X145150000Y-113600000D01*
G75*
G02*
X145225000Y-113675000I0J-75000D01*
G01*
X145225000Y-113825000D01*
G75*
G02*
X145150000Y-113900000I-75000J0D01*
G01*
X143700000Y-113900000D01*
G75*
G02*
X143625000Y-113825000I0J75000D01*
G01*
G37*
%TD.AperFunction*%
%TO.P,U1,69*%
%TO.N,PC9*%
%TA.AperFunction,SMDPad,CuDef*%
G36*
G01*
X143625000Y-114325000D02*
X143625000Y-114175000D01*
G75*
G02*
X143700000Y-114100000I75000J0D01*
G01*
X145150000Y-114100000D01*
G75*
G02*
X145225000Y-114175000I0J-75000D01*
G01*
X145225000Y-114325000D01*
G75*
G02*
X145150000Y-114400000I-75000J0D01*
G01*
X143700000Y-114400000D01*
G75*
G02*
X143625000Y-114325000I0J75000D01*
G01*
G37*
%TD.AperFunction*%
%TO.P,U1,68*%
%TO.N,PC8*%
%TA.AperFunction,SMDPad,CuDef*%
G36*
G01*
X143625000Y-114825000D02*
X143625000Y-114675000D01*
G75*
G02*
X143700000Y-114600000I75000J0D01*
G01*
X145150000Y-114600000D01*
G75*
G02*
X145225000Y-114675000I0J-75000D01*
G01*
X145225000Y-114825000D01*
G75*
G02*
X145150000Y-114900000I-75000J0D01*
G01*
X143700000Y-114900000D01*
G75*
G02*
X143625000Y-114825000I0J75000D01*
G01*
G37*
%TD.AperFunction*%
%TO.P,U1,67*%
%TO.N,PC7*%
%TA.AperFunction,SMDPad,CuDef*%
G36*
G01*
X143625000Y-115325000D02*
X143625000Y-115175000D01*
G75*
G02*
X143700000Y-115100000I75000J0D01*
G01*
X145150000Y-115100000D01*
G75*
G02*
X145225000Y-115175000I0J-75000D01*
G01*
X145225000Y-115325000D01*
G75*
G02*
X145150000Y-115400000I-75000J0D01*
G01*
X143700000Y-115400000D01*
G75*
G02*
X143625000Y-115325000I0J75000D01*
G01*
G37*
%TD.AperFunction*%
%TO.P,U1,66*%
%TO.N,PC6*%
%TA.AperFunction,SMDPad,CuDef*%
G36*
G01*
X143625000Y-115825000D02*
X143625000Y-115675000D01*
G75*
G02*
X143700000Y-115600000I75000J0D01*
G01*
X145150000Y-115600000D01*
G75*
G02*
X145225000Y-115675000I0J-75000D01*
G01*
X145225000Y-115825000D01*
G75*
G02*
X145150000Y-115900000I-75000J0D01*
G01*
X143700000Y-115900000D01*
G75*
G02*
X143625000Y-115825000I0J75000D01*
G01*
G37*
%TD.AperFunction*%
%TO.P,U1,65*%
%TO.N,+3V3*%
%TA.AperFunction,SMDPad,CuDef*%
G36*
G01*
X143625000Y-116325000D02*
X143625000Y-116175000D01*
G75*
G02*
X143700000Y-116100000I75000J0D01*
G01*
X145150000Y-116100000D01*
G75*
G02*
X145225000Y-116175000I0J-75000D01*
G01*
X145225000Y-116325000D01*
G75*
G02*
X145150000Y-116400000I-75000J0D01*
G01*
X143700000Y-116400000D01*
G75*
G02*
X143625000Y-116325000I0J75000D01*
G01*
G37*
%TD.AperFunction*%
%TO.P,U1,64*%
%TO.N,DSIHOST_D1N*%
%TA.AperFunction,SMDPad,CuDef*%
G36*
G01*
X143625000Y-116825000D02*
X143625000Y-116675000D01*
G75*
G02*
X143700000Y-116600000I75000J0D01*
G01*
X145150000Y-116600000D01*
G75*
G02*
X145225000Y-116675000I0J-75000D01*
G01*
X145225000Y-116825000D01*
G75*
G02*
X145150000Y-116900000I-75000J0D01*
G01*
X143700000Y-116900000D01*
G75*
G02*
X143625000Y-116825000I0J75000D01*
G01*
G37*
%TD.AperFunction*%
%TO.P,U1,63*%
%TO.N,DSIHOST_D1P*%
%TA.AperFunction,SMDPad,CuDef*%
G36*
G01*
X143625000Y-117325000D02*
X143625000Y-117175000D01*
G75*
G02*
X143700000Y-117100000I75000J0D01*
G01*
X145150000Y-117100000D01*
G75*
G02*
X145225000Y-117175000I0J-75000D01*
G01*
X145225000Y-117325000D01*
G75*
G02*
X145150000Y-117400000I-75000J0D01*
G01*
X143700000Y-117400000D01*
G75*
G02*
X143625000Y-117325000I0J75000D01*
G01*
G37*
%TD.AperFunction*%
%TO.P,U1,62*%
%TO.N,VCAPDSI*%
%TA.AperFunction,SMDPad,CuDef*%
G36*
G01*
X143625000Y-117825000D02*
X143625000Y-117675000D01*
G75*
G02*
X143700000Y-117600000I75000J0D01*
G01*
X145150000Y-117600000D01*
G75*
G02*
X145225000Y-117675000I0J-75000D01*
G01*
X145225000Y-117825000D01*
G75*
G02*
X145150000Y-117900000I-75000J0D01*
G01*
X143700000Y-117900000D01*
G75*
G02*
X143625000Y-117825000I0J75000D01*
G01*
G37*
%TD.AperFunction*%
%TO.P,U1,61*%
%TO.N,DSIHOST_CKN*%
%TA.AperFunction,SMDPad,CuDef*%
G36*
G01*
X143625000Y-118325000D02*
X143625000Y-118175000D01*
G75*
G02*
X143700000Y-118100000I75000J0D01*
G01*
X145150000Y-118100000D01*
G75*
G02*
X145225000Y-118175000I0J-75000D01*
G01*
X145225000Y-118325000D01*
G75*
G02*
X145150000Y-118400000I-75000J0D01*
G01*
X143700000Y-118400000D01*
G75*
G02*
X143625000Y-118325000I0J75000D01*
G01*
G37*
%TD.AperFunction*%
%TO.P,U1,60*%
%TO.N,DSIHOST_CKP*%
%TA.AperFunction,SMDPad,CuDef*%
G36*
G01*
X143625000Y-118825000D02*
X143625000Y-118675000D01*
G75*
G02*
X143700000Y-118600000I75000J0D01*
G01*
X145150000Y-118600000D01*
G75*
G02*
X145225000Y-118675000I0J-75000D01*
G01*
X145225000Y-118825000D01*
G75*
G02*
X145150000Y-118900000I-75000J0D01*
G01*
X143700000Y-118900000D01*
G75*
G02*
X143625000Y-118825000I0J75000D01*
G01*
G37*
%TD.AperFunction*%
%TO.P,U1,59*%
%TO.N,GND*%
%TA.AperFunction,SMDPad,CuDef*%
G36*
G01*
X143625000Y-119325000D02*
X143625000Y-119175000D01*
G75*
G02*
X143700000Y-119100000I75000J0D01*
G01*
X145150000Y-119100000D01*
G75*
G02*
X145225000Y-119175000I0J-75000D01*
G01*
X145225000Y-119325000D01*
G75*
G02*
X145150000Y-119400000I-75000J0D01*
G01*
X143700000Y-119400000D01*
G75*
G02*
X143625000Y-119325000I0J75000D01*
G01*
G37*
%TD.AperFunction*%
%TO.P,U1,58*%
%TO.N,DSIHOST_D0N*%
%TA.AperFunction,SMDPad,CuDef*%
G36*
G01*
X143625000Y-119825000D02*
X143625000Y-119675000D01*
G75*
G02*
X143700000Y-119600000I75000J0D01*
G01*
X145150000Y-119600000D01*
G75*
G02*
X145225000Y-119675000I0J-75000D01*
G01*
X145225000Y-119825000D01*
G75*
G02*
X145150000Y-119900000I-75000J0D01*
G01*
X143700000Y-119900000D01*
G75*
G02*
X143625000Y-119825000I0J75000D01*
G01*
G37*
%TD.AperFunction*%
%TO.P,U1,57*%
%TO.N,DSIHOST_D0P*%
%TA.AperFunction,SMDPad,CuDef*%
G36*
G01*
X143625000Y-120325000D02*
X143625000Y-120175000D01*
G75*
G02*
X143700000Y-120100000I75000J0D01*
G01*
X145150000Y-120100000D01*
G75*
G02*
X145225000Y-120175000I0J-75000D01*
G01*
X145225000Y-120325000D01*
G75*
G02*
X145150000Y-120400000I-75000J0D01*
G01*
X143700000Y-120400000D01*
G75*
G02*
X143625000Y-120325000I0J75000D01*
G01*
G37*
%TD.AperFunction*%
%TO.P,U1,56*%
%TO.N,VCAPDSI*%
%TA.AperFunction,SMDPad,CuDef*%
G36*
G01*
X143625000Y-120825000D02*
X143625000Y-120675000D01*
G75*
G02*
X143700000Y-120600000I75000J0D01*
G01*
X145150000Y-120600000D01*
G75*
G02*
X145225000Y-120675000I0J-75000D01*
G01*
X145225000Y-120825000D01*
G75*
G02*
X145150000Y-120900000I-75000J0D01*
G01*
X143700000Y-120900000D01*
G75*
G02*
X143625000Y-120825000I0J75000D01*
G01*
G37*
%TD.AperFunction*%
%TO.P,U1,55*%
%TO.N,+3V3*%
%TA.AperFunction,SMDPad,CuDef*%
G36*
G01*
X143625000Y-121325000D02*
X143625000Y-121175000D01*
G75*
G02*
X143700000Y-121100000I75000J0D01*
G01*
X145150000Y-121100000D01*
G75*
G02*
X145225000Y-121175000I0J-75000D01*
G01*
X145225000Y-121325000D01*
G75*
G02*
X145150000Y-121400000I-75000J0D01*
G01*
X143700000Y-121400000D01*
G75*
G02*
X143625000Y-121325000I0J75000D01*
G01*
G37*
%TD.AperFunction*%
%TO.P,U1,54*%
%TO.N,PD15*%
%TA.AperFunction,SMDPad,CuDef*%
G36*
G01*
X143625000Y-121825000D02*
X143625000Y-121675000D01*
G75*
G02*
X143700000Y-121600000I75000J0D01*
G01*
X145150000Y-121600000D01*
G75*
G02*
X145225000Y-121675000I0J-75000D01*
G01*
X145225000Y-121825000D01*
G75*
G02*
X145150000Y-121900000I-75000J0D01*
G01*
X143700000Y-121900000D01*
G75*
G02*
X143625000Y-121825000I0J75000D01*
G01*
G37*
%TD.AperFunction*%
%TO.P,U1,53*%
%TO.N,PD14*%
%TA.AperFunction,SMDPad,CuDef*%
G36*
G01*
X143625000Y-122325000D02*
X143625000Y-122175000D01*
G75*
G02*
X143700000Y-122100000I75000J0D01*
G01*
X145150000Y-122100000D01*
G75*
G02*
X145225000Y-122175000I0J-75000D01*
G01*
X145225000Y-122325000D01*
G75*
G02*
X145150000Y-122400000I-75000J0D01*
G01*
X143700000Y-122400000D01*
G75*
G02*
X143625000Y-122325000I0J75000D01*
G01*
G37*
%TD.AperFunction*%
%TO.P,U1,52*%
%TO.N,PD10*%
%TA.AperFunction,SMDPad,CuDef*%
G36*
G01*
X143625000Y-122825000D02*
X143625000Y-122675000D01*
G75*
G02*
X143700000Y-122600000I75000J0D01*
G01*
X145150000Y-122600000D01*
G75*
G02*
X145225000Y-122675000I0J-75000D01*
G01*
X145225000Y-122825000D01*
G75*
G02*
X145150000Y-122900000I-75000J0D01*
G01*
X143700000Y-122900000D01*
G75*
G02*
X143625000Y-122825000I0J75000D01*
G01*
G37*
%TD.AperFunction*%
%TO.P,U1,51*%
%TO.N,PD9*%
%TA.AperFunction,SMDPad,CuDef*%
G36*
G01*
X143625000Y-123325000D02*
X143625000Y-123175000D01*
G75*
G02*
X143700000Y-123100000I75000J0D01*
G01*
X145150000Y-123100000D01*
G75*
G02*
X145225000Y-123175000I0J-75000D01*
G01*
X145225000Y-123325000D01*
G75*
G02*
X145150000Y-123400000I-75000J0D01*
G01*
X143700000Y-123400000D01*
G75*
G02*
X143625000Y-123325000I0J75000D01*
G01*
G37*
%TD.AperFunction*%
%TO.P,U1,50*%
%TO.N,PD8*%
%TA.AperFunction,SMDPad,CuDef*%
G36*
G01*
X142600000Y-125650000D02*
X142600000Y-124200000D01*
G75*
G02*
X142675000Y-124125000I75000J0D01*
G01*
X142825000Y-124125000D01*
G75*
G02*
X142900000Y-124200000I0J-75000D01*
G01*
X142900000Y-125650000D01*
G75*
G02*
X142825000Y-125725000I-75000J0D01*
G01*
X142675000Y-125725000D01*
G75*
G02*
X142600000Y-125650000I0J75000D01*
G01*
G37*
%TD.AperFunction*%
%TO.P,U1,49*%
%TO.N,PB15*%
%TA.AperFunction,SMDPad,CuDef*%
G36*
G01*
X142100000Y-125650000D02*
X142100000Y-124200000D01*
G75*
G02*
X142175000Y-124125000I75000J0D01*
G01*
X142325000Y-124125000D01*
G75*
G02*
X142400000Y-124200000I0J-75000D01*
G01*
X142400000Y-125650000D01*
G75*
G02*
X142325000Y-125725000I-75000J0D01*
G01*
X142175000Y-125725000D01*
G75*
G02*
X142100000Y-125650000I0J75000D01*
G01*
G37*
%TD.AperFunction*%
%TO.P,U1,48*%
%TO.N,PB14*%
%TA.AperFunction,SMDPad,CuDef*%
G36*
G01*
X141600000Y-125650000D02*
X141600000Y-124200000D01*
G75*
G02*
X141675000Y-124125000I75000J0D01*
G01*
X141825000Y-124125000D01*
G75*
G02*
X141900000Y-124200000I0J-75000D01*
G01*
X141900000Y-125650000D01*
G75*
G02*
X141825000Y-125725000I-75000J0D01*
G01*
X141675000Y-125725000D01*
G75*
G02*
X141600000Y-125650000I0J75000D01*
G01*
G37*
%TD.AperFunction*%
%TO.P,U1,47*%
%TO.N,PB13*%
%TA.AperFunction,SMDPad,CuDef*%
G36*
G01*
X141100000Y-125650000D02*
X141100000Y-124200000D01*
G75*
G02*
X141175000Y-124125000I75000J0D01*
G01*
X141325000Y-124125000D01*
G75*
G02*
X141400000Y-124200000I0J-75000D01*
G01*
X141400000Y-125650000D01*
G75*
G02*
X141325000Y-125725000I-75000J0D01*
G01*
X141175000Y-125725000D01*
G75*
G02*
X141100000Y-125650000I0J75000D01*
G01*
G37*
%TD.AperFunction*%
%TO.P,U1,46*%
%TO.N,PB12*%
%TA.AperFunction,SMDPad,CuDef*%
G36*
G01*
X140600000Y-125650000D02*
X140600000Y-124200000D01*
G75*
G02*
X140675000Y-124125000I75000J0D01*
G01*
X140825000Y-124125000D01*
G75*
G02*
X140900000Y-124200000I0J-75000D01*
G01*
X140900000Y-125650000D01*
G75*
G02*
X140825000Y-125725000I-75000J0D01*
G01*
X140675000Y-125725000D01*
G75*
G02*
X140600000Y-125650000I0J75000D01*
G01*
G37*
%TD.AperFunction*%
%TO.P,U1,45*%
%TO.N,+3V3*%
%TA.AperFunction,SMDPad,CuDef*%
G36*
G01*
X140100000Y-125650000D02*
X140100000Y-124200000D01*
G75*
G02*
X140175000Y-124125000I75000J0D01*
G01*
X140325000Y-124125000D01*
G75*
G02*
X140400000Y-124200000I0J-75000D01*
G01*
X140400000Y-125650000D01*
G75*
G02*
X140325000Y-125725000I-75000J0D01*
G01*
X140175000Y-125725000D01*
G75*
G02*
X140100000Y-125650000I0J75000D01*
G01*
G37*
%TD.AperFunction*%
%TO.P,U1,44*%
%TO.N,GND*%
%TA.AperFunction,SMDPad,CuDef*%
G36*
G01*
X139600000Y-125650000D02*
X139600000Y-124200000D01*
G75*
G02*
X139675000Y-124125000I75000J0D01*
G01*
X139825000Y-124125000D01*
G75*
G02*
X139900000Y-124200000I0J-75000D01*
G01*
X139900000Y-125650000D01*
G75*
G02*
X139825000Y-125725000I-75000J0D01*
G01*
X139675000Y-125725000D01*
G75*
G02*
X139600000Y-125650000I0J75000D01*
G01*
G37*
%TD.AperFunction*%
%TO.P,U1,43*%
%TO.N,Net-(C1-Pad1)*%
%TA.AperFunction,SMDPad,CuDef*%
G36*
G01*
X139100000Y-125650000D02*
X139100000Y-124200000D01*
G75*
G02*
X139175000Y-124125000I75000J0D01*
G01*
X139325000Y-124125000D01*
G75*
G02*
X139400000Y-124200000I0J-75000D01*
G01*
X139400000Y-125650000D01*
G75*
G02*
X139325000Y-125725000I-75000J0D01*
G01*
X139175000Y-125725000D01*
G75*
G02*
X139100000Y-125650000I0J75000D01*
G01*
G37*
%TD.AperFunction*%
%TO.P,U1,42*%
%TO.N,PB11*%
%TA.AperFunction,SMDPad,CuDef*%
G36*
G01*
X138600000Y-125650000D02*
X138600000Y-124200000D01*
G75*
G02*
X138675000Y-124125000I75000J0D01*
G01*
X138825000Y-124125000D01*
G75*
G02*
X138900000Y-124200000I0J-75000D01*
G01*
X138900000Y-125650000D01*
G75*
G02*
X138825000Y-125725000I-75000J0D01*
G01*
X138675000Y-125725000D01*
G75*
G02*
X138600000Y-125650000I0J75000D01*
G01*
G37*
%TD.AperFunction*%
%TO.P,U1,41*%
%TO.N,PB10*%
%TA.AperFunction,SMDPad,CuDef*%
G36*
G01*
X138100000Y-125650000D02*
X138100000Y-124200000D01*
G75*
G02*
X138175000Y-124125000I75000J0D01*
G01*
X138325000Y-124125000D01*
G75*
G02*
X138400000Y-124200000I0J-75000D01*
G01*
X138400000Y-125650000D01*
G75*
G02*
X138325000Y-125725000I-75000J0D01*
G01*
X138175000Y-125725000D01*
G75*
G02*
X138100000Y-125650000I0J75000D01*
G01*
G37*
%TD.AperFunction*%
%TO.P,U1,40*%
%TO.N,PE15*%
%TA.AperFunction,SMDPad,CuDef*%
G36*
G01*
X137600000Y-125650000D02*
X137600000Y-124200000D01*
G75*
G02*
X137675000Y-124125000I75000J0D01*
G01*
X137825000Y-124125000D01*
G75*
G02*
X137900000Y-124200000I0J-75000D01*
G01*
X137900000Y-125650000D01*
G75*
G02*
X137825000Y-125725000I-75000J0D01*
G01*
X137675000Y-125725000D01*
G75*
G02*
X137600000Y-125650000I0J75000D01*
G01*
G37*
%TD.AperFunction*%
%TO.P,U1,39*%
%TO.N,PE14*%
%TA.AperFunction,SMDPad,CuDef*%
G36*
G01*
X137100000Y-125650000D02*
X137100000Y-124200000D01*
G75*
G02*
X137175000Y-124125000I75000J0D01*
G01*
X137325000Y-124125000D01*
G75*
G02*
X137400000Y-124200000I0J-75000D01*
G01*
X137400000Y-125650000D01*
G75*
G02*
X137325000Y-125725000I-75000J0D01*
G01*
X137175000Y-125725000D01*
G75*
G02*
X137100000Y-125650000I0J75000D01*
G01*
G37*
%TD.AperFunction*%
%TO.P,U1,38*%
%TO.N,PE13*%
%TA.AperFunction,SMDPad,CuDef*%
G36*
G01*
X136600000Y-125650000D02*
X136600000Y-124200000D01*
G75*
G02*
X136675000Y-124125000I75000J0D01*
G01*
X136825000Y-124125000D01*
G75*
G02*
X136900000Y-124200000I0J-75000D01*
G01*
X136900000Y-125650000D01*
G75*
G02*
X136825000Y-125725000I-75000J0D01*
G01*
X136675000Y-125725000D01*
G75*
G02*
X136600000Y-125650000I0J75000D01*
G01*
G37*
%TD.AperFunction*%
%TO.P,U1,37*%
%TO.N,PE12*%
%TA.AperFunction,SMDPad,CuDef*%
G36*
G01*
X136100000Y-125650000D02*
X136100000Y-124200000D01*
G75*
G02*
X136175000Y-124125000I75000J0D01*
G01*
X136325000Y-124125000D01*
G75*
G02*
X136400000Y-124200000I0J-75000D01*
G01*
X136400000Y-125650000D01*
G75*
G02*
X136325000Y-125725000I-75000J0D01*
G01*
X136175000Y-125725000D01*
G75*
G02*
X136100000Y-125650000I0J75000D01*
G01*
G37*
%TD.AperFunction*%
%TO.P,U1,36*%
%TO.N,PE11*%
%TA.AperFunction,SMDPad,CuDef*%
G36*
G01*
X135600000Y-125650000D02*
X135600000Y-124200000D01*
G75*
G02*
X135675000Y-124125000I75000J0D01*
G01*
X135825000Y-124125000D01*
G75*
G02*
X135900000Y-124200000I0J-75000D01*
G01*
X135900000Y-125650000D01*
G75*
G02*
X135825000Y-125725000I-75000J0D01*
G01*
X135675000Y-125725000D01*
G75*
G02*
X135600000Y-125650000I0J75000D01*
G01*
G37*
%TD.AperFunction*%
%TO.P,U1,35*%
%TO.N,PE10*%
%TA.AperFunction,SMDPad,CuDef*%
G36*
G01*
X135100000Y-125650000D02*
X135100000Y-124200000D01*
G75*
G02*
X135175000Y-124125000I75000J0D01*
G01*
X135325000Y-124125000D01*
G75*
G02*
X135400000Y-124200000I0J-75000D01*
G01*
X135400000Y-125650000D01*
G75*
G02*
X135325000Y-125725000I-75000J0D01*
G01*
X135175000Y-125725000D01*
G75*
G02*
X135100000Y-125650000I0J75000D01*
G01*
G37*
%TD.AperFunction*%
%TO.P,U1,34*%
%TO.N,PE9*%
%TA.AperFunction,SMDPad,CuDef*%
G36*
G01*
X134600000Y-125650000D02*
X134600000Y-124200000D01*
G75*
G02*
X134675000Y-124125000I75000J0D01*
G01*
X134825000Y-124125000D01*
G75*
G02*
X134900000Y-124200000I0J-75000D01*
G01*
X134900000Y-125650000D01*
G75*
G02*
X134825000Y-125725000I-75000J0D01*
G01*
X134675000Y-125725000D01*
G75*
G02*
X134600000Y-125650000I0J75000D01*
G01*
G37*
%TD.AperFunction*%
%TO.P,U1,33*%
%TO.N,PE8*%
%TA.AperFunction,SMDPad,CuDef*%
G36*
G01*
X134100000Y-125650000D02*
X134100000Y-124200000D01*
G75*
G02*
X134175000Y-124125000I75000J0D01*
G01*
X134325000Y-124125000D01*
G75*
G02*
X134400000Y-124200000I0J-75000D01*
G01*
X134400000Y-125650000D01*
G75*
G02*
X134325000Y-125725000I-75000J0D01*
G01*
X134175000Y-125725000D01*
G75*
G02*
X134100000Y-125650000I0J75000D01*
G01*
G37*
%TD.AperFunction*%
%TO.P,U1,32*%
%TO.N,PE7*%
%TA.AperFunction,SMDPad,CuDef*%
G36*
G01*
X133600000Y-125650000D02*
X133600000Y-124200000D01*
G75*
G02*
X133675000Y-124125000I75000J0D01*
G01*
X133825000Y-124125000D01*
G75*
G02*
X133900000Y-124200000I0J-75000D01*
G01*
X133900000Y-125650000D01*
G75*
G02*
X133825000Y-125725000I-75000J0D01*
G01*
X133675000Y-125725000D01*
G75*
G02*
X133600000Y-125650000I0J75000D01*
G01*
G37*
%TD.AperFunction*%
%TO.P,U1,31*%
%TO.N,PB2*%
%TA.AperFunction,SMDPad,CuDef*%
G36*
G01*
X133100000Y-125650000D02*
X133100000Y-124200000D01*
G75*
G02*
X133175000Y-124125000I75000J0D01*
G01*
X133325000Y-124125000D01*
G75*
G02*
X133400000Y-124200000I0J-75000D01*
G01*
X133400000Y-125650000D01*
G75*
G02*
X133325000Y-125725000I-75000J0D01*
G01*
X133175000Y-125725000D01*
G75*
G02*
X133100000Y-125650000I0J75000D01*
G01*
G37*
%TD.AperFunction*%
%TO.P,U1,30*%
%TO.N,PB1*%
%TA.AperFunction,SMDPad,CuDef*%
G36*
G01*
X132600000Y-125650000D02*
X132600000Y-124200000D01*
G75*
G02*
X132675000Y-124125000I75000J0D01*
G01*
X132825000Y-124125000D01*
G75*
G02*
X132900000Y-124200000I0J-75000D01*
G01*
X132900000Y-125650000D01*
G75*
G02*
X132825000Y-125725000I-75000J0D01*
G01*
X132675000Y-125725000D01*
G75*
G02*
X132600000Y-125650000I0J75000D01*
G01*
G37*
%TD.AperFunction*%
%TO.P,U1,29*%
%TO.N,PB0*%
%TA.AperFunction,SMDPad,CuDef*%
G36*
G01*
X132100000Y-125650000D02*
X132100000Y-124200000D01*
G75*
G02*
X132175000Y-124125000I75000J0D01*
G01*
X132325000Y-124125000D01*
G75*
G02*
X132400000Y-124200000I0J-75000D01*
G01*
X132400000Y-125650000D01*
G75*
G02*
X132325000Y-125725000I-75000J0D01*
G01*
X132175000Y-125725000D01*
G75*
G02*
X132100000Y-125650000I0J75000D01*
G01*
G37*
%TD.AperFunction*%
%TO.P,U1,28*%
%TO.N,PA7*%
%TA.AperFunction,SMDPad,CuDef*%
G36*
G01*
X131600000Y-125650000D02*
X131600000Y-124200000D01*
G75*
G02*
X131675000Y-124125000I75000J0D01*
G01*
X131825000Y-124125000D01*
G75*
G02*
X131900000Y-124200000I0J-75000D01*
G01*
X131900000Y-125650000D01*
G75*
G02*
X131825000Y-125725000I-75000J0D01*
G01*
X131675000Y-125725000D01*
G75*
G02*
X131600000Y-125650000I0J75000D01*
G01*
G37*
%TD.AperFunction*%
%TO.P,U1,27*%
%TO.N,PA6*%
%TA.AperFunction,SMDPad,CuDef*%
G36*
G01*
X131100000Y-125650000D02*
X131100000Y-124200000D01*
G75*
G02*
X131175000Y-124125000I75000J0D01*
G01*
X131325000Y-124125000D01*
G75*
G02*
X131400000Y-124200000I0J-75000D01*
G01*
X131400000Y-125650000D01*
G75*
G02*
X131325000Y-125725000I-75000J0D01*
G01*
X131175000Y-125725000D01*
G75*
G02*
X131100000Y-125650000I0J75000D01*
G01*
G37*
%TD.AperFunction*%
%TO.P,U1,26*%
%TO.N,PA5*%
%TA.AperFunction,SMDPad,CuDef*%
G36*
G01*
X130600000Y-125650000D02*
X130600000Y-124200000D01*
G75*
G02*
X130675000Y-124125000I75000J0D01*
G01*
X130825000Y-124125000D01*
G75*
G02*
X130900000Y-124200000I0J-75000D01*
G01*
X130900000Y-125650000D01*
G75*
G02*
X130825000Y-125725000I-75000J0D01*
G01*
X130675000Y-125725000D01*
G75*
G02*
X130600000Y-125650000I0J75000D01*
G01*
G37*
%TD.AperFunction*%
%TO.P,U1,25*%
%TO.N,PA4*%
%TA.AperFunction,SMDPad,CuDef*%
G36*
G01*
X128275000Y-123325000D02*
X128275000Y-123175000D01*
G75*
G02*
X128350000Y-123100000I75000J0D01*
G01*
X129800000Y-123100000D01*
G75*
G02*
X129875000Y-123175000I0J-75000D01*
G01*
X129875000Y-123325000D01*
G75*
G02*
X129800000Y-123400000I-75000J0D01*
G01*
X128350000Y-123400000D01*
G75*
G02*
X128275000Y-123325000I0J75000D01*
G01*
G37*
%TD.AperFunction*%
%TO.P,U1,24*%
%TO.N,+3V3*%
%TA.AperFunction,SMDPad,CuDef*%
G36*
G01*
X128275000Y-122825000D02*
X128275000Y-122675000D01*
G75*
G02*
X128350000Y-122600000I75000J0D01*
G01*
X129800000Y-122600000D01*
G75*
G02*
X129875000Y-122675000I0J-75000D01*
G01*
X129875000Y-122825000D01*
G75*
G02*
X129800000Y-122900000I-75000J0D01*
G01*
X128350000Y-122900000D01*
G75*
G02*
X128275000Y-122825000I0J75000D01*
G01*
G37*
%TD.AperFunction*%
%TO.P,U1,23*%
%TO.N,GND*%
%TA.AperFunction,SMDPad,CuDef*%
G36*
G01*
X128275000Y-122325000D02*
X128275000Y-122175000D01*
G75*
G02*
X128350000Y-122100000I75000J0D01*
G01*
X129800000Y-122100000D01*
G75*
G02*
X129875000Y-122175000I0J-75000D01*
G01*
X129875000Y-122325000D01*
G75*
G02*
X129800000Y-122400000I-75000J0D01*
G01*
X128350000Y-122400000D01*
G75*
G02*
X128275000Y-122325000I0J75000D01*
G01*
G37*
%TD.AperFunction*%
%TO.P,U1,22*%
%TO.N,PA3*%
%TA.AperFunction,SMDPad,CuDef*%
G36*
G01*
X128275000Y-121825000D02*
X128275000Y-121675000D01*
G75*
G02*
X128350000Y-121600000I75000J0D01*
G01*
X129800000Y-121600000D01*
G75*
G02*
X129875000Y-121675000I0J-75000D01*
G01*
X129875000Y-121825000D01*
G75*
G02*
X129800000Y-121900000I-75000J0D01*
G01*
X128350000Y-121900000D01*
G75*
G02*
X128275000Y-121825000I0J75000D01*
G01*
G37*
%TD.AperFunction*%
%TO.P,U1,21*%
%TO.N,PA2*%
%TA.AperFunction,SMDPad,CuDef*%
G36*
G01*
X128275000Y-121325000D02*
X128275000Y-121175000D01*
G75*
G02*
X128350000Y-121100000I75000J0D01*
G01*
X129800000Y-121100000D01*
G75*
G02*
X129875000Y-121175000I0J-75000D01*
G01*
X129875000Y-121325000D01*
G75*
G02*
X129800000Y-121400000I-75000J0D01*
G01*
X128350000Y-121400000D01*
G75*
G02*
X128275000Y-121325000I0J75000D01*
G01*
G37*
%TD.AperFunction*%
%TO.P,U1,20*%
%TO.N,PA1*%
%TA.AperFunction,SMDPad,CuDef*%
G36*
G01*
X128275000Y-120825000D02*
X128275000Y-120675000D01*
G75*
G02*
X128350000Y-120600000I75000J0D01*
G01*
X129800000Y-120600000D01*
G75*
G02*
X129875000Y-120675000I0J-75000D01*
G01*
X129875000Y-120825000D01*
G75*
G02*
X129800000Y-120900000I-75000J0D01*
G01*
X128350000Y-120900000D01*
G75*
G02*
X128275000Y-120825000I0J75000D01*
G01*
G37*
%TD.AperFunction*%
%TO.P,U1,19*%
%TO.N,LED_STATUS*%
%TA.AperFunction,SMDPad,CuDef*%
G36*
G01*
X128275000Y-120325000D02*
X128275000Y-120175000D01*
G75*
G02*
X128350000Y-120100000I75000J0D01*
G01*
X129800000Y-120100000D01*
G75*
G02*
X129875000Y-120175000I0J-75000D01*
G01*
X129875000Y-120325000D01*
G75*
G02*
X129800000Y-120400000I-75000J0D01*
G01*
X128350000Y-120400000D01*
G75*
G02*
X128275000Y-120325000I0J75000D01*
G01*
G37*
%TD.AperFunction*%
%TO.P,U1,18*%
%TO.N,+3.3VA*%
%TA.AperFunction,SMDPad,CuDef*%
G36*
G01*
X128275000Y-119825000D02*
X128275000Y-119675000D01*
G75*
G02*
X128350000Y-119600000I75000J0D01*
G01*
X129800000Y-119600000D01*
G75*
G02*
X129875000Y-119675000I0J-75000D01*
G01*
X129875000Y-119825000D01*
G75*
G02*
X129800000Y-119900000I-75000J0D01*
G01*
X128350000Y-119900000D01*
G75*
G02*
X128275000Y-119825000I0J75000D01*
G01*
G37*
%TD.AperFunction*%
%TO.P,U1,17*%
%TO.N,+3V3*%
%TA.AperFunction,SMDPad,CuDef*%
G36*
G01*
X128275000Y-119325000D02*
X128275000Y-119175000D01*
G75*
G02*
X128350000Y-119100000I75000J0D01*
G01*
X129800000Y-119100000D01*
G75*
G02*
X129875000Y-119175000I0J-75000D01*
G01*
X129875000Y-119325000D01*
G75*
G02*
X129800000Y-119400000I-75000J0D01*
G01*
X128350000Y-119400000D01*
G75*
G02*
X128275000Y-119325000I0J75000D01*
G01*
G37*
%TD.AperFunction*%
%TO.P,U1,16*%
%TO.N,GND*%
%TA.AperFunction,SMDPad,CuDef*%
G36*
G01*
X128275000Y-118825000D02*
X128275000Y-118675000D01*
G75*
G02*
X128350000Y-118600000I75000J0D01*
G01*
X129800000Y-118600000D01*
G75*
G02*
X129875000Y-118675000I0J-75000D01*
G01*
X129875000Y-118825000D01*
G75*
G02*
X129800000Y-118900000I-75000J0D01*
G01*
X128350000Y-118900000D01*
G75*
G02*
X128275000Y-118825000I0J75000D01*
G01*
G37*
%TD.AperFunction*%
%TO.P,U1,15*%
%TO.N,PC3*%
%TA.AperFunction,SMDPad,CuDef*%
G36*
G01*
X128275000Y-118325000D02*
X128275000Y-118175000D01*
G75*
G02*
X128350000Y-118100000I75000J0D01*
G01*
X129800000Y-118100000D01*
G75*
G02*
X129875000Y-118175000I0J-75000D01*
G01*
X129875000Y-118325000D01*
G75*
G02*
X129800000Y-118400000I-75000J0D01*
G01*
X128350000Y-118400000D01*
G75*
G02*
X128275000Y-118325000I0J75000D01*
G01*
G37*
%TD.AperFunction*%
%TO.P,U1,14*%
%TO.N,PC2*%
%TA.AperFunction,SMDPad,CuDef*%
G36*
G01*
X128275000Y-117825000D02*
X128275000Y-117675000D01*
G75*
G02*
X128350000Y-117600000I75000J0D01*
G01*
X129800000Y-117600000D01*
G75*
G02*
X129875000Y-117675000I0J-75000D01*
G01*
X129875000Y-117825000D01*
G75*
G02*
X129800000Y-117900000I-75000J0D01*
G01*
X128350000Y-117900000D01*
G75*
G02*
X128275000Y-117825000I0J75000D01*
G01*
G37*
%TD.AperFunction*%
%TO.P,U1,13*%
%TO.N,PC1*%
%TA.AperFunction,SMDPad,CuDef*%
G36*
G01*
X128275000Y-117325000D02*
X128275000Y-117175000D01*
G75*
G02*
X128350000Y-117100000I75000J0D01*
G01*
X129800000Y-117100000D01*
G75*
G02*
X129875000Y-117175000I0J-75000D01*
G01*
X129875000Y-117325000D01*
G75*
G02*
X129800000Y-117400000I-75000J0D01*
G01*
X128350000Y-117400000D01*
G75*
G02*
X128275000Y-117325000I0J75000D01*
G01*
G37*
%TD.AperFunction*%
%TO.P,U1,12*%
%TO.N,PC0*%
%TA.AperFunction,SMDPad,CuDef*%
G36*
G01*
X128275000Y-116825000D02*
X128275000Y-116675000D01*
G75*
G02*
X128350000Y-116600000I75000J0D01*
G01*
X129800000Y-116600000D01*
G75*
G02*
X129875000Y-116675000I0J-75000D01*
G01*
X129875000Y-116825000D01*
G75*
G02*
X129800000Y-116900000I-75000J0D01*
G01*
X128350000Y-116900000D01*
G75*
G02*
X128275000Y-116825000I0J75000D01*
G01*
G37*
%TD.AperFunction*%
%TO.P,U1,11*%
%TO.N,NRST*%
%TA.AperFunction,SMDPad,CuDef*%
G36*
G01*
X128275000Y-116325000D02*
X128275000Y-116175000D01*
G75*
G02*
X128350000Y-116100000I75000J0D01*
G01*
X129800000Y-116100000D01*
G75*
G02*
X129875000Y-116175000I0J-75000D01*
G01*
X129875000Y-116325000D01*
G75*
G02*
X129800000Y-116400000I-75000J0D01*
G01*
X128350000Y-116400000D01*
G75*
G02*
X128275000Y-116325000I0J75000D01*
G01*
G37*
%TD.AperFunction*%
%TO.P,U1,10*%
%TO.N,HSE_OUT*%
%TA.AperFunction,SMDPad,CuDef*%
G36*
G01*
X128275000Y-115825000D02*
X128275000Y-115675000D01*
G75*
G02*
X128350000Y-115600000I75000J0D01*
G01*
X129800000Y-115600000D01*
G75*
G02*
X129875000Y-115675000I0J-75000D01*
G01*
X129875000Y-115825000D01*
G75*
G02*
X129800000Y-115900000I-75000J0D01*
G01*
X128350000Y-115900000D01*
G75*
G02*
X128275000Y-115825000I0J75000D01*
G01*
G37*
%TD.AperFunction*%
%TO.P,U1,9*%
%TO.N,HSE_IN*%
%TA.AperFunction,SMDPad,CuDef*%
G36*
G01*
X128275000Y-115325000D02*
X128275000Y-115175000D01*
G75*
G02*
X128350000Y-115100000I75000J0D01*
G01*
X129800000Y-115100000D01*
G75*
G02*
X129875000Y-115175000I0J-75000D01*
G01*
X129875000Y-115325000D01*
G75*
G02*
X129800000Y-115400000I-75000J0D01*
G01*
X128350000Y-115400000D01*
G75*
G02*
X128275000Y-115325000I0J75000D01*
G01*
G37*
%TD.AperFunction*%
%TO.P,U1,8*%
%TO.N,+3V3*%
%TA.AperFunction,SMDPad,CuDef*%
G36*
G01*
X128275000Y-114825000D02*
X128275000Y-114675000D01*
G75*
G02*
X128350000Y-114600000I75000J0D01*
G01*
X129800000Y-114600000D01*
G75*
G02*
X129875000Y-114675000I0J-75000D01*
G01*
X129875000Y-114825000D01*
G75*
G02*
X129800000Y-114900000I-75000J0D01*
G01*
X128350000Y-114900000D01*
G75*
G02*
X128275000Y-114825000I0J75000D01*
G01*
G37*
%TD.AperFunction*%
%TO.P,U1,7*%
%TO.N,GND*%
%TA.AperFunction,SMDPad,CuDef*%
G36*
G01*
X128275000Y-114325000D02*
X128275000Y-114175000D01*
G75*
G02*
X128350000Y-114100000I75000J0D01*
G01*
X129800000Y-114100000D01*
G75*
G02*
X129875000Y-114175000I0J-75000D01*
G01*
X129875000Y-114325000D01*
G75*
G02*
X129800000Y-114400000I-75000J0D01*
G01*
X128350000Y-114400000D01*
G75*
G02*
X128275000Y-114325000I0J75000D01*
G01*
G37*
%TD.AperFunction*%
%TO.P,U1,6*%
%TO.N,PC15*%
%TA.AperFunction,SMDPad,CuDef*%
G36*
G01*
X128275000Y-113825000D02*
X128275000Y-113675000D01*
G75*
G02*
X128350000Y-113600000I75000J0D01*
G01*
X129800000Y-113600000D01*
G75*
G02*
X129875000Y-113675000I0J-75000D01*
G01*
X129875000Y-113825000D01*
G75*
G02*
X129800000Y-113900000I-75000J0D01*
G01*
X128350000Y-113900000D01*
G75*
G02*
X128275000Y-113825000I0J75000D01*
G01*
G37*
%TD.AperFunction*%
%TO.P,U1,5*%
%TO.N,PC14*%
%TA.AperFunction,SMDPad,CuDef*%
G36*
G01*
X128275000Y-113325000D02*
X128275000Y-113175000D01*
G75*
G02*
X128350000Y-113100000I75000J0D01*
G01*
X129800000Y-113100000D01*
G75*
G02*
X129875000Y-113175000I0J-75000D01*
G01*
X129875000Y-113325000D01*
G75*
G02*
X129800000Y-113400000I-75000J0D01*
G01*
X128350000Y-113400000D01*
G75*
G02*
X128275000Y-113325000I0J75000D01*
G01*
G37*
%TD.AperFunction*%
%TO.P,U1,4*%
%TO.N,PC13*%
%TA.AperFunction,SMDPad,CuDef*%
G36*
G01*
X128275000Y-112825000D02*
X128275000Y-112675000D01*
G75*
G02*
X128350000Y-112600000I75000J0D01*
G01*
X129800000Y-112600000D01*
G75*
G02*
X129875000Y-112675000I0J-75000D01*
G01*
X129875000Y-112825000D01*
G75*
G02*
X129800000Y-112900000I-75000J0D01*
G01*
X128350000Y-112900000D01*
G75*
G02*
X128275000Y-112825000I0J75000D01*
G01*
G37*
%TD.AperFunction*%
%TO.P,U1,3*%
%TO.N,+3V3*%
%TA.AperFunction,SMDPad,CuDef*%
G36*
G01*
X128275000Y-112325000D02*
X128275000Y-112175000D01*
G75*
G02*
X128350000Y-112100000I75000J0D01*
G01*
X129800000Y-112100000D01*
G75*
G02*
X129875000Y-112175000I0J-75000D01*
G01*
X129875000Y-112325000D01*
G75*
G02*
X129800000Y-112400000I-75000J0D01*
G01*
X128350000Y-112400000D01*
G75*
G02*
X128275000Y-112325000I0J75000D01*
G01*
G37*
%TD.AperFunction*%
%TO.P,U1,2*%
%TO.N,GND*%
%TA.AperFunction,SMDPad,CuDef*%
G36*
G01*
X128275000Y-111825000D02*
X128275000Y-111675000D01*
G75*
G02*
X128350000Y-111600000I75000J0D01*
G01*
X129800000Y-111600000D01*
G75*
G02*
X129875000Y-111675000I0J-75000D01*
G01*
X129875000Y-111825000D01*
G75*
G02*
X129800000Y-111900000I-75000J0D01*
G01*
X128350000Y-111900000D01*
G75*
G02*
X128275000Y-111825000I0J75000D01*
G01*
G37*
%TD.AperFunction*%
%TO.P,U1,1*%
%TO.N,PE2*%
%TA.AperFunction,SMDPad,CuDef*%
G36*
G01*
X128275000Y-111325000D02*
X128275000Y-111175000D01*
G75*
G02*
X128350000Y-111100000I75000J0D01*
G01*
X129800000Y-111100000D01*
G75*
G02*
X129875000Y-111175000I0J-75000D01*
G01*
X129875000Y-111325000D01*
G75*
G02*
X129800000Y-111400000I-75000J0D01*
G01*
X128350000Y-111400000D01*
G75*
G02*
X128275000Y-111325000I0J75000D01*
G01*
G37*
%TD.AperFunction*%
%TD*%
%TO.P,C17,2*%
%TO.N,GND*%
%TA.AperFunction,SMDPad,CuDef*%
G36*
G01*
X127170000Y-114300000D02*
X126830000Y-114300000D01*
G75*
G02*
X126690000Y-114160000I0J140000D01*
G01*
X126690000Y-113880000D01*
G75*
G02*
X126830000Y-113740000I140000J0D01*
G01*
X127170000Y-113740000D01*
G75*
G02*
X127310000Y-113880000I0J-140000D01*
G01*
X127310000Y-114160000D01*
G75*
G02*
X127170000Y-114300000I-140000J0D01*
G01*
G37*
%TD.AperFunction*%
%TO.P,C17,1*%
%TO.N,+3V3*%
%TA.AperFunction,SMDPad,CuDef*%
G36*
G01*
X127170000Y-115260000D02*
X126830000Y-115260000D01*
G75*
G02*
X126690000Y-115120000I0J140000D01*
G01*
X126690000Y-114840000D01*
G75*
G02*
X126830000Y-114700000I140000J0D01*
G01*
X127170000Y-114700000D01*
G75*
G02*
X127310000Y-114840000I0J-140000D01*
G01*
X127310000Y-115120000D01*
G75*
G02*
X127170000Y-115260000I-140000J0D01*
G01*
G37*
%TD.AperFunction*%
%TD*%
%TO.P,C16,1*%
%TO.N,+3V3*%
%TA.AperFunction,SMDPad,CuDef*%
G36*
G01*
X127170000Y-112760000D02*
X126830000Y-112760000D01*
G75*
G02*
X126690000Y-112620000I0J140000D01*
G01*
X126690000Y-112340000D01*
G75*
G02*
X126830000Y-112200000I140000J0D01*
G01*
X127170000Y-112200000D01*
G75*
G02*
X127310000Y-112340000I0J-140000D01*
G01*
X127310000Y-112620000D01*
G75*
G02*
X127170000Y-112760000I-140000J0D01*
G01*
G37*
%TD.AperFunction*%
%TO.P,C16,2*%
%TO.N,GND*%
%TA.AperFunction,SMDPad,CuDef*%
G36*
G01*
X127170000Y-111800000D02*
X126830000Y-111800000D01*
G75*
G02*
X126690000Y-111660000I0J140000D01*
G01*
X126690000Y-111380000D01*
G75*
G02*
X126830000Y-111240000I140000J0D01*
G01*
X127170000Y-111240000D01*
G75*
G02*
X127310000Y-111380000I0J-140000D01*
G01*
X127310000Y-111660000D01*
G75*
G02*
X127170000Y-111800000I-140000J0D01*
G01*
G37*
%TD.AperFunction*%
%TD*%
%TO.P,C6,2*%
%TO.N,GND*%
%TA.AperFunction,SMDPad,CuDef*%
G36*
G01*
X124050000Y-120830000D02*
X124050000Y-121170000D01*
G75*
G02*
X123910000Y-121310000I-140000J0D01*
G01*
X123630000Y-121310000D01*
G75*
G02*
X123490000Y-121170000I0J140000D01*
G01*
X123490000Y-120830000D01*
G75*
G02*
X123630000Y-120690000I140000J0D01*
G01*
X123910000Y-120690000D01*
G75*
G02*
X124050000Y-120830000I0J-140000D01*
G01*
G37*
%TD.AperFunction*%
%TO.P,C6,1*%
%TO.N,+3.3VA*%
%TA.AperFunction,SMDPad,CuDef*%
G36*
G01*
X125010000Y-120830000D02*
X125010000Y-121170000D01*
G75*
G02*
X124870000Y-121310000I-140000J0D01*
G01*
X124590000Y-121310000D01*
G75*
G02*
X124450000Y-121170000I0J140000D01*
G01*
X124450000Y-120830000D01*
G75*
G02*
X124590000Y-120690000I140000J0D01*
G01*
X124870000Y-120690000D01*
G75*
G02*
X125010000Y-120830000I0J-140000D01*
G01*
G37*
%TD.AperFunction*%
%TD*%
%TO.P,C7,2*%
%TO.N,GND*%
%TA.AperFunction,SMDPad,CuDef*%
G36*
G01*
X124050000Y-119580000D02*
X124050000Y-119920000D01*
G75*
G02*
X123910000Y-120060000I-140000J0D01*
G01*
X123630000Y-120060000D01*
G75*
G02*
X123490000Y-119920000I0J140000D01*
G01*
X123490000Y-119580000D01*
G75*
G02*
X123630000Y-119440000I140000J0D01*
G01*
X123910000Y-119440000D01*
G75*
G02*
X124050000Y-119580000I0J-140000D01*
G01*
G37*
%TD.AperFunction*%
%TO.P,C7,1*%
%TO.N,+3.3VA*%
%TA.AperFunction,SMDPad,CuDef*%
G36*
G01*
X125010000Y-119580000D02*
X125010000Y-119920000D01*
G75*
G02*
X124870000Y-120060000I-140000J0D01*
G01*
X124590000Y-120060000D01*
G75*
G02*
X124450000Y-119920000I0J140000D01*
G01*
X124450000Y-119580000D01*
G75*
G02*
X124590000Y-119440000I140000J0D01*
G01*
X124870000Y-119440000D01*
G75*
G02*
X125010000Y-119580000I0J-140000D01*
G01*
G37*
%TD.AperFunction*%
%TD*%
%TO.P,L1,2*%
%TO.N,+3.3VA*%
%TA.AperFunction,SMDPad,CuDef*%
G36*
G01*
X124440000Y-118672500D02*
X124440000Y-118327500D01*
G75*
G02*
X124587500Y-118180000I147500J0D01*
G01*
X124882500Y-118180000D01*
G75*
G02*
X125030000Y-118327500I0J-147500D01*
G01*
X125030000Y-118672500D01*
G75*
G02*
X124882500Y-118820000I-147500J0D01*
G01*
X124587500Y-118820000D01*
G75*
G02*
X124440000Y-118672500I0J147500D01*
G01*
G37*
%TD.AperFunction*%
%TO.P,L1,1*%
%TO.N,+3V3*%
%TA.AperFunction,SMDPad,CuDef*%
G36*
G01*
X123470000Y-118672500D02*
X123470000Y-118327500D01*
G75*
G02*
X123617500Y-118180000I147500J0D01*
G01*
X123912500Y-118180000D01*
G75*
G02*
X124060000Y-118327500I0J-147500D01*
G01*
X124060000Y-118672500D01*
G75*
G02*
X123912500Y-118820000I-147500J0D01*
G01*
X123617500Y-118820000D01*
G75*
G02*
X123470000Y-118672500I0J147500D01*
G01*
G37*
%TD.AperFunction*%
%TD*%
%TO.P,R4,2*%
%TO.N,Net-(R3-Pad1)*%
%TA.AperFunction,SMDPad,CuDef*%
G36*
G01*
X145025000Y-136075000D02*
X144475000Y-136075000D01*
G75*
G02*
X144275000Y-135875000I0J200000D01*
G01*
X144275000Y-135475000D01*
G75*
G02*
X144475000Y-135275000I200000J0D01*
G01*
X145025000Y-135275000D01*
G75*
G02*
X145225000Y-135475000I0J-200000D01*
G01*
X145225000Y-135875000D01*
G75*
G02*
X145025000Y-136075000I-200000J0D01*
G01*
G37*
%TD.AperFunction*%
%TO.P,R4,1*%
%TO.N,Net-(R4-Pad1)*%
%TA.AperFunction,SMDPad,CuDef*%
G36*
G01*
X145025000Y-137725000D02*
X144475000Y-137725000D01*
G75*
G02*
X144275000Y-137525000I0J200000D01*
G01*
X144275000Y-137125000D01*
G75*
G02*
X144475000Y-136925000I200000J0D01*
G01*
X145025000Y-136925000D01*
G75*
G02*
X145225000Y-137125000I0J-200000D01*
G01*
X145225000Y-137525000D01*
G75*
G02*
X145025000Y-137725000I-200000J0D01*
G01*
G37*
%TD.AperFunction*%
%TD*%
%TO.P,C8,2*%
%TO.N,GND*%
%TA.AperFunction,SMDPad,CuDef*%
G36*
G01*
X133830000Y-134430000D02*
X134170000Y-134430000D01*
G75*
G02*
X134310000Y-134570000I0J-140000D01*
G01*
X134310000Y-134850000D01*
G75*
G02*
X134170000Y-134990000I-140000J0D01*
G01*
X133830000Y-134990000D01*
G75*
G02*
X133690000Y-134850000I0J140000D01*
G01*
X133690000Y-134570000D01*
G75*
G02*
X133830000Y-134430000I140000J0D01*
G01*
G37*
%TD.AperFunction*%
%TO.P,C8,1*%
%TO.N,+5V*%
%TA.AperFunction,SMDPad,CuDef*%
G36*
G01*
X133830000Y-133470000D02*
X134170000Y-133470000D01*
G75*
G02*
X134310000Y-133610000I0J-140000D01*
G01*
X134310000Y-133890000D01*
G75*
G02*
X134170000Y-134030000I-140000J0D01*
G01*
X133830000Y-134030000D01*
G75*
G02*
X133690000Y-133890000I0J140000D01*
G01*
X133690000Y-133610000D01*
G75*
G02*
X133830000Y-133470000I140000J0D01*
G01*
G37*
%TD.AperFunction*%
%TD*%
D18*
%TO.P,Y1,4*%
%TO.N,GND*%
X123850000Y-114850000D03*
%TO.P,Y1,3*%
%TO.N,Net-(C5-Pad1)*%
X121650000Y-114850000D03*
%TO.P,Y1,2*%
%TO.N,GND*%
X121650000Y-113150000D03*
%TO.P,Y1,1*%
%TO.N,HSE_IN*%
X123850000Y-113150000D03*
%TD*%
D19*
%TO.P,U2,7*%
%TO.N,GND*%
X140750000Y-134750000D03*
D20*
%TO.P,U2,6*%
%TO.N,+5V*%
X140100000Y-133700000D03*
%TO.P,U2,5*%
%TO.N,Net-(U2-Pad5)*%
X140750000Y-133700000D03*
%TO.P,U2,4*%
%TO.N,+5V*%
X141400000Y-133700000D03*
%TO.P,U2,3*%
%TO.N,+3V3*%
X141400000Y-135800000D03*
%TO.P,U2,2*%
%TO.N,Net-(R4-Pad1)*%
X140750000Y-135800000D03*
%TO.P,U2,1*%
%TO.N,GND*%
X140100000Y-135800000D03*
%TD*%
%TO.P,R8,2*%
%TO.N,GND*%
%TA.AperFunction,SMDPad,CuDef*%
G36*
G01*
X146775000Y-139325000D02*
X146225000Y-139325000D01*
G75*
G02*
X146025000Y-139125000I0J200000D01*
G01*
X146025000Y-138725000D01*
G75*
G02*
X146225000Y-138525000I200000J0D01*
G01*
X146775000Y-138525000D01*
G75*
G02*
X146975000Y-138725000I0J-200000D01*
G01*
X146975000Y-139125000D01*
G75*
G02*
X146775000Y-139325000I-200000J0D01*
G01*
G37*
%TD.AperFunction*%
%TO.P,R8,1*%
%TO.N,Net-(J5-PadB5)*%
%TA.AperFunction,SMDPad,CuDef*%
G36*
G01*
X146775000Y-140975000D02*
X146225000Y-140975000D01*
G75*
G02*
X146025000Y-140775000I0J200000D01*
G01*
X146025000Y-140375000D01*
G75*
G02*
X146225000Y-140175000I200000J0D01*
G01*
X146775000Y-140175000D01*
G75*
G02*
X146975000Y-140375000I0J-200000D01*
G01*
X146975000Y-140775000D01*
G75*
G02*
X146775000Y-140975000I-200000J0D01*
G01*
G37*
%TD.AperFunction*%
%TD*%
%TO.P,R7,2*%
%TO.N,GND*%
%TA.AperFunction,SMDPad,CuDef*%
G36*
G01*
X145025000Y-139325000D02*
X144475000Y-139325000D01*
G75*
G02*
X144275000Y-139125000I0J200000D01*
G01*
X144275000Y-138725000D01*
G75*
G02*
X144475000Y-138525000I200000J0D01*
G01*
X145025000Y-138525000D01*
G75*
G02*
X145225000Y-138725000I0J-200000D01*
G01*
X145225000Y-139125000D01*
G75*
G02*
X145025000Y-139325000I-200000J0D01*
G01*
G37*
%TD.AperFunction*%
%TO.P,R7,1*%
%TO.N,Net-(J5-PadA5)*%
%TA.AperFunction,SMDPad,CuDef*%
G36*
G01*
X145025000Y-140975000D02*
X144475000Y-140975000D01*
G75*
G02*
X144275000Y-140775000I0J200000D01*
G01*
X144275000Y-140375000D01*
G75*
G02*
X144475000Y-140175000I200000J0D01*
G01*
X145025000Y-140175000D01*
G75*
G02*
X145225000Y-140375000I0J-200000D01*
G01*
X145225000Y-140775000D01*
G75*
G02*
X145025000Y-140975000I-200000J0D01*
G01*
G37*
%TD.AperFunction*%
%TD*%
%TO.P,R2,2*%
%TO.N,Net-(D1-Pad1)*%
%TA.AperFunction,SMDPad,CuDef*%
G36*
G01*
X131525000Y-139325000D02*
X130975000Y-139325000D01*
G75*
G02*
X130775000Y-139125000I0J200000D01*
G01*
X130775000Y-138725000D01*
G75*
G02*
X130975000Y-138525000I200000J0D01*
G01*
X131525000Y-138525000D01*
G75*
G02*
X131725000Y-138725000I0J-200000D01*
G01*
X131725000Y-139125000D01*
G75*
G02*
X131525000Y-139325000I-200000J0D01*
G01*
G37*
%TD.AperFunction*%
%TO.P,R2,1*%
%TO.N,GND*%
%TA.AperFunction,SMDPad,CuDef*%
G36*
G01*
X131525000Y-140975000D02*
X130975000Y-140975000D01*
G75*
G02*
X130775000Y-140775000I0J200000D01*
G01*
X130775000Y-140375000D01*
G75*
G02*
X130975000Y-140175000I200000J0D01*
G01*
X131525000Y-140175000D01*
G75*
G02*
X131725000Y-140375000I0J-200000D01*
G01*
X131725000Y-140775000D01*
G75*
G02*
X131525000Y-140975000I-200000J0D01*
G01*
G37*
%TD.AperFunction*%
%TD*%
%TO.P,R6,2*%
%TO.N,Net-(D2-Pad1)*%
%TA.AperFunction,SMDPad,CuDef*%
G36*
G01*
X125825000Y-124725000D02*
X125825000Y-125275000D01*
G75*
G02*
X125625000Y-125475000I-200000J0D01*
G01*
X125225000Y-125475000D01*
G75*
G02*
X125025000Y-125275000I0J200000D01*
G01*
X125025000Y-124725000D01*
G75*
G02*
X125225000Y-124525000I200000J0D01*
G01*
X125625000Y-124525000D01*
G75*
G02*
X125825000Y-124725000I0J-200000D01*
G01*
G37*
%TD.AperFunction*%
%TO.P,R6,1*%
%TO.N,GND*%
%TA.AperFunction,SMDPad,CuDef*%
G36*
G01*
X127475000Y-124725000D02*
X127475000Y-125275000D01*
G75*
G02*
X127275000Y-125475000I-200000J0D01*
G01*
X126875000Y-125475000D01*
G75*
G02*
X126675000Y-125275000I0J200000D01*
G01*
X126675000Y-124725000D01*
G75*
G02*
X126875000Y-124525000I200000J0D01*
G01*
X127275000Y-124525000D01*
G75*
G02*
X127475000Y-124725000I0J-200000D01*
G01*
G37*
%TD.AperFunction*%
%TD*%
%TO.P,R5,2*%
%TO.N,Net-(R4-Pad1)*%
%TA.AperFunction,SMDPad,CuDef*%
G36*
G01*
X142725000Y-136925000D02*
X143275000Y-136925000D01*
G75*
G02*
X143475000Y-137125000I0J-200000D01*
G01*
X143475000Y-137525000D01*
G75*
G02*
X143275000Y-137725000I-200000J0D01*
G01*
X142725000Y-137725000D01*
G75*
G02*
X142525000Y-137525000I0J200000D01*
G01*
X142525000Y-137125000D01*
G75*
G02*
X142725000Y-136925000I200000J0D01*
G01*
G37*
%TD.AperFunction*%
%TO.P,R5,1*%
%TO.N,+3V3*%
%TA.AperFunction,SMDPad,CuDef*%
G36*
G01*
X142725000Y-135275000D02*
X143275000Y-135275000D01*
G75*
G02*
X143475000Y-135475000I0J-200000D01*
G01*
X143475000Y-135875000D01*
G75*
G02*
X143275000Y-136075000I-200000J0D01*
G01*
X142725000Y-136075000D01*
G75*
G02*
X142525000Y-135875000I0J200000D01*
G01*
X142525000Y-135475000D01*
G75*
G02*
X142725000Y-135275000I200000J0D01*
G01*
G37*
%TD.AperFunction*%
%TD*%
%TO.P,R3,2*%
%TO.N,GND*%
%TA.AperFunction,SMDPad,CuDef*%
G36*
G01*
X146225000Y-136925000D02*
X146775000Y-136925000D01*
G75*
G02*
X146975000Y-137125000I0J-200000D01*
G01*
X146975000Y-137525000D01*
G75*
G02*
X146775000Y-137725000I-200000J0D01*
G01*
X146225000Y-137725000D01*
G75*
G02*
X146025000Y-137525000I0J200000D01*
G01*
X146025000Y-137125000D01*
G75*
G02*
X146225000Y-136925000I200000J0D01*
G01*
G37*
%TD.AperFunction*%
%TO.P,R3,1*%
%TO.N,Net-(R3-Pad1)*%
%TA.AperFunction,SMDPad,CuDef*%
G36*
G01*
X146225000Y-135275000D02*
X146775000Y-135275000D01*
G75*
G02*
X146975000Y-135475000I0J-200000D01*
G01*
X146975000Y-135875000D01*
G75*
G02*
X146775000Y-136075000I-200000J0D01*
G01*
X146225000Y-136075000D01*
G75*
G02*
X146025000Y-135875000I0J200000D01*
G01*
X146025000Y-135475000D01*
G75*
G02*
X146225000Y-135275000I200000J0D01*
G01*
G37*
%TD.AperFunction*%
%TD*%
%TO.P,R9,2*%
%TO.N,BOOT0*%
%TA.AperFunction,SMDPad,CuDef*%
G36*
G01*
X124175000Y-143775000D02*
X124175000Y-143225000D01*
G75*
G02*
X124375000Y-143025000I200000J0D01*
G01*
X124775000Y-143025000D01*
G75*
G02*
X124975000Y-143225000I0J-200000D01*
G01*
X124975000Y-143775000D01*
G75*
G02*
X124775000Y-143975000I-200000J0D01*
G01*
X124375000Y-143975000D01*
G75*
G02*
X124175000Y-143775000I0J200000D01*
G01*
G37*
%TD.AperFunction*%
%TO.P,R9,1*%
%TO.N,Net-(R9-Pad1)*%
%TA.AperFunction,SMDPad,CuDef*%
G36*
G01*
X122525000Y-143775000D02*
X122525000Y-143225000D01*
G75*
G02*
X122725000Y-143025000I200000J0D01*
G01*
X123125000Y-143025000D01*
G75*
G02*
X123325000Y-143225000I0J-200000D01*
G01*
X123325000Y-143775000D01*
G75*
G02*
X123125000Y-143975000I-200000J0D01*
G01*
X122725000Y-143975000D01*
G75*
G02*
X122525000Y-143775000I0J200000D01*
G01*
G37*
%TD.AperFunction*%
%TD*%
%TO.P,R1,2*%
%TO.N,HSE_OUT*%
%TA.AperFunction,SMDPad,CuDef*%
G36*
G01*
X122925000Y-117025000D02*
X122925000Y-116475000D01*
G75*
G02*
X123125000Y-116275000I200000J0D01*
G01*
X123525000Y-116275000D01*
G75*
G02*
X123725000Y-116475000I0J-200000D01*
G01*
X123725000Y-117025000D01*
G75*
G02*
X123525000Y-117225000I-200000J0D01*
G01*
X123125000Y-117225000D01*
G75*
G02*
X122925000Y-117025000I0J200000D01*
G01*
G37*
%TD.AperFunction*%
%TO.P,R1,1*%
%TO.N,Net-(C5-Pad1)*%
%TA.AperFunction,SMDPad,CuDef*%
G36*
G01*
X121275000Y-117025000D02*
X121275000Y-116475000D01*
G75*
G02*
X121475000Y-116275000I200000J0D01*
G01*
X121875000Y-116275000D01*
G75*
G02*
X122075000Y-116475000I0J-200000D01*
G01*
X122075000Y-117025000D01*
G75*
G02*
X121875000Y-117225000I-200000J0D01*
G01*
X121475000Y-117225000D01*
G75*
G02*
X121275000Y-117025000I0J200000D01*
G01*
G37*
%TD.AperFunction*%
%TD*%
D21*
%TO.P,J2,10*%
%TO.N,NRST*%
X135040000Y-89715000D03*
%TO.P,J2,9*%
%TO.N,GND*%
X135040000Y-93785000D03*
%TO.P,J2,8*%
%TO.N,Net-(J2-Pad8)*%
X133770000Y-89715000D03*
%TO.P,J2,7*%
%TO.N,Net-(J2-Pad7)*%
X133770000Y-93785000D03*
%TO.P,J2,6*%
%TO.N,SWO*%
X132500000Y-89715000D03*
%TO.P,J2,5*%
%TO.N,GND*%
X132500000Y-93785000D03*
%TO.P,J2,4*%
%TO.N,SWCLK*%
X131230000Y-89715000D03*
%TO.P,J2,3*%
%TO.N,GND*%
X131230000Y-93785000D03*
%TO.P,J2,2*%
%TO.N,SWDIO*%
X129960000Y-89715000D03*
%TO.P,J2,1*%
%TO.N,+3V3*%
X129960000Y-93785000D03*
%TD*%
D22*
%TO.P,J1,6*%
%TO.N,DSIHOST_D1N*%
X146920000Y-89560000D03*
%TO.P,J1,5*%
%TO.N,DSIHOST_D1P*%
X146920000Y-92100000D03*
%TO.P,J1,4*%
%TO.N,DSIHOST_CKN*%
X149460000Y-89560000D03*
%TO.P,J1,3*%
%TO.N,DSIHOST_CKP*%
X149460000Y-92100000D03*
%TO.P,J1,2*%
%TO.N,DSIHOST_D0N*%
X152000000Y-89560000D03*
D23*
%TO.P,J1,1*%
%TO.N,DSIHOST_D0P*%
X152000000Y-92100000D03*
%TD*%
%TO.P,FB1,1*%
%TO.N,+5V*%
%TA.AperFunction,SMDPad,CuDef*%
G36*
G01*
X135368750Y-133312500D02*
X136131250Y-133312500D01*
G75*
G02*
X136350000Y-133531250I0J-218750D01*
G01*
X136350000Y-133968750D01*
G75*
G02*
X136131250Y-134187500I-218750J0D01*
G01*
X135368750Y-134187500D01*
G75*
G02*
X135150000Y-133968750I0J218750D01*
G01*
X135150000Y-133531250D01*
G75*
G02*
X135368750Y-133312500I218750J0D01*
G01*
G37*
%TD.AperFunction*%
%TO.P,FB1,2*%
%TO.N,Net-(FB1-Pad2)*%
%TA.AperFunction,SMDPad,CuDef*%
G36*
G01*
X135368750Y-135437500D02*
X136131250Y-135437500D01*
G75*
G02*
X136350000Y-135656250I0J-218750D01*
G01*
X136350000Y-136093750D01*
G75*
G02*
X136131250Y-136312500I-218750J0D01*
G01*
X135368750Y-136312500D01*
G75*
G02*
X135150000Y-136093750I0J218750D01*
G01*
X135150000Y-135656250D01*
G75*
G02*
X135368750Y-135437500I218750J0D01*
G01*
G37*
%TD.AperFunction*%
%TD*%
%TO.P,D1,2*%
%TO.N,+3V3*%
%TA.AperFunction,SMDPad,CuDef*%
G36*
G01*
X133200000Y-137456250D02*
X133200000Y-136543750D01*
G75*
G02*
X133443750Y-136300000I243750J0D01*
G01*
X133931250Y-136300000D01*
G75*
G02*
X134175000Y-136543750I0J-243750D01*
G01*
X134175000Y-137456250D01*
G75*
G02*
X133931250Y-137700000I-243750J0D01*
G01*
X133443750Y-137700000D01*
G75*
G02*
X133200000Y-137456250I0J243750D01*
G01*
G37*
%TD.AperFunction*%
%TO.P,D1,1*%
%TO.N,Net-(D1-Pad1)*%
%TA.AperFunction,SMDPad,CuDef*%
G36*
G01*
X131325000Y-137456250D02*
X131325000Y-136543750D01*
G75*
G02*
X131568750Y-136300000I243750J0D01*
G01*
X132056250Y-136300000D01*
G75*
G02*
X132300000Y-136543750I0J-243750D01*
G01*
X132300000Y-137456250D01*
G75*
G02*
X132056250Y-137700000I-243750J0D01*
G01*
X131568750Y-137700000D01*
G75*
G02*
X131325000Y-137456250I0J243750D01*
G01*
G37*
%TD.AperFunction*%
%TD*%
%TO.P,D2,2*%
%TO.N,LED_STATUS*%
%TA.AperFunction,SMDPad,CuDef*%
G36*
G01*
X123956250Y-123300000D02*
X123043750Y-123300000D01*
G75*
G02*
X122800000Y-123056250I0J243750D01*
G01*
X122800000Y-122568750D01*
G75*
G02*
X123043750Y-122325000I243750J0D01*
G01*
X123956250Y-122325000D01*
G75*
G02*
X124200000Y-122568750I0J-243750D01*
G01*
X124200000Y-123056250D01*
G75*
G02*
X123956250Y-123300000I-243750J0D01*
G01*
G37*
%TD.AperFunction*%
%TO.P,D2,1*%
%TO.N,Net-(D2-Pad1)*%
%TA.AperFunction,SMDPad,CuDef*%
G36*
G01*
X123956250Y-125175000D02*
X123043750Y-125175000D01*
G75*
G02*
X122800000Y-124931250I0J243750D01*
G01*
X122800000Y-124443750D01*
G75*
G02*
X123043750Y-124200000I243750J0D01*
G01*
X123956250Y-124200000D01*
G75*
G02*
X124200000Y-124443750I0J-243750D01*
G01*
X124200000Y-124931250D01*
G75*
G02*
X123956250Y-125175000I-243750J0D01*
G01*
G37*
%TD.AperFunction*%
%TD*%
%TO.P,C15,2*%
%TO.N,GND*%
%TA.AperFunction,SMDPad,CuDef*%
G36*
G01*
X141800000Y-107330000D02*
X141800000Y-107670000D01*
G75*
G02*
X141660000Y-107810000I-140000J0D01*
G01*
X141380000Y-107810000D01*
G75*
G02*
X141240000Y-107670000I0J140000D01*
G01*
X141240000Y-107330000D01*
G75*
G02*
X141380000Y-107190000I140000J0D01*
G01*
X141660000Y-107190000D01*
G75*
G02*
X141800000Y-107330000I0J-140000D01*
G01*
G37*
%TD.AperFunction*%
%TO.P,C15,1*%
%TO.N,+3V3*%
%TA.AperFunction,SMDPad,CuDef*%
G36*
G01*
X142760000Y-107330000D02*
X142760000Y-107670000D01*
G75*
G02*
X142620000Y-107810000I-140000J0D01*
G01*
X142340000Y-107810000D01*
G75*
G02*
X142200000Y-107670000I0J140000D01*
G01*
X142200000Y-107330000D01*
G75*
G02*
X142340000Y-107190000I140000J0D01*
G01*
X142620000Y-107190000D01*
G75*
G02*
X142760000Y-107330000I0J-140000D01*
G01*
G37*
%TD.AperFunction*%
%TD*%
%TO.P,C14,2*%
%TO.N,GND*%
%TA.AperFunction,SMDPad,CuDef*%
G36*
G01*
X146670000Y-120050000D02*
X146330000Y-120050000D01*
G75*
G02*
X146190000Y-119910000I0J140000D01*
G01*
X146190000Y-119630000D01*
G75*
G02*
X146330000Y-119490000I140000J0D01*
G01*
X146670000Y-119490000D01*
G75*
G02*
X146810000Y-119630000I0J-140000D01*
G01*
X146810000Y-119910000D01*
G75*
G02*
X146670000Y-120050000I-140000J0D01*
G01*
G37*
%TD.AperFunction*%
%TO.P,C14,1*%
%TO.N,+3V3*%
%TA.AperFunction,SMDPad,CuDef*%
G36*
G01*
X146670000Y-121010000D02*
X146330000Y-121010000D01*
G75*
G02*
X146190000Y-120870000I0J140000D01*
G01*
X146190000Y-120590000D01*
G75*
G02*
X146330000Y-120450000I140000J0D01*
G01*
X146670000Y-120450000D01*
G75*
G02*
X146810000Y-120590000I0J-140000D01*
G01*
X146810000Y-120870000D01*
G75*
G02*
X146670000Y-121010000I-140000J0D01*
G01*
G37*
%TD.AperFunction*%
%TD*%
%TO.P,C13,2*%
%TO.N,GND*%
%TA.AperFunction,SMDPad,CuDef*%
G36*
G01*
X127170000Y-122280000D02*
X126830000Y-122280000D01*
G75*
G02*
X126690000Y-122140000I0J140000D01*
G01*
X126690000Y-121860000D01*
G75*
G02*
X126830000Y-121720000I140000J0D01*
G01*
X127170000Y-121720000D01*
G75*
G02*
X127310000Y-121860000I0J-140000D01*
G01*
X127310000Y-122140000D01*
G75*
G02*
X127170000Y-122280000I-140000J0D01*
G01*
G37*
%TD.AperFunction*%
%TO.P,C13,1*%
%TO.N,+3V3*%
%TA.AperFunction,SMDPad,CuDef*%
G36*
G01*
X127170000Y-123240000D02*
X126830000Y-123240000D01*
G75*
G02*
X126690000Y-123100000I0J140000D01*
G01*
X126690000Y-122820000D01*
G75*
G02*
X126830000Y-122680000I140000J0D01*
G01*
X127170000Y-122680000D01*
G75*
G02*
X127310000Y-122820000I0J-140000D01*
G01*
X127310000Y-123100000D01*
G75*
G02*
X127170000Y-123240000I-140000J0D01*
G01*
G37*
%TD.AperFunction*%
%TD*%
%TO.P,C5,2*%
%TO.N,GND*%
%TA.AperFunction,SMDPad,CuDef*%
G36*
G01*
X119750000Y-113675000D02*
X119250000Y-113675000D01*
G75*
G02*
X119025000Y-113450000I0J225000D01*
G01*
X119025000Y-113000000D01*
G75*
G02*
X119250000Y-112775000I225000J0D01*
G01*
X119750000Y-112775000D01*
G75*
G02*
X119975000Y-113000000I0J-225000D01*
G01*
X119975000Y-113450000D01*
G75*
G02*
X119750000Y-113675000I-225000J0D01*
G01*
G37*
%TD.AperFunction*%
%TO.P,C5,1*%
%TO.N,Net-(C5-Pad1)*%
%TA.AperFunction,SMDPad,CuDef*%
G36*
G01*
X119750000Y-115225000D02*
X119250000Y-115225000D01*
G75*
G02*
X119025000Y-115000000I0J225000D01*
G01*
X119025000Y-114550000D01*
G75*
G02*
X119250000Y-114325000I225000J0D01*
G01*
X119750000Y-114325000D01*
G75*
G02*
X119975000Y-114550000I0J-225000D01*
G01*
X119975000Y-115000000D01*
G75*
G02*
X119750000Y-115225000I-225000J0D01*
G01*
G37*
%TD.AperFunction*%
%TD*%
%TO.P,C12,2*%
%TO.N,GND*%
%TA.AperFunction,SMDPad,CuDef*%
G36*
G01*
X127170000Y-118800000D02*
X126830000Y-118800000D01*
G75*
G02*
X126690000Y-118660000I0J140000D01*
G01*
X126690000Y-118380000D01*
G75*
G02*
X126830000Y-118240000I140000J0D01*
G01*
X127170000Y-118240000D01*
G75*
G02*
X127310000Y-118380000I0J-140000D01*
G01*
X127310000Y-118660000D01*
G75*
G02*
X127170000Y-118800000I-140000J0D01*
G01*
G37*
%TD.AperFunction*%
%TO.P,C12,1*%
%TO.N,+3V3*%
%TA.AperFunction,SMDPad,CuDef*%
G36*
G01*
X127170000Y-119760000D02*
X126830000Y-119760000D01*
G75*
G02*
X126690000Y-119620000I0J140000D01*
G01*
X126690000Y-119340000D01*
G75*
G02*
X126830000Y-119200000I140000J0D01*
G01*
X127170000Y-119200000D01*
G75*
G02*
X127310000Y-119340000I0J-140000D01*
G01*
X127310000Y-119620000D01*
G75*
G02*
X127170000Y-119760000I-140000J0D01*
G01*
G37*
%TD.AperFunction*%
%TD*%
%TO.P,C4,2*%
%TO.N,GND*%
%TA.AperFunction,SMDPad,CuDef*%
G36*
G01*
X145000000Y-107425000D02*
X144500000Y-107425000D01*
G75*
G02*
X144275000Y-107200000I0J225000D01*
G01*
X144275000Y-106750000D01*
G75*
G02*
X144500000Y-106525000I225000J0D01*
G01*
X145000000Y-106525000D01*
G75*
G02*
X145225000Y-106750000I0J-225000D01*
G01*
X145225000Y-107200000D01*
G75*
G02*
X145000000Y-107425000I-225000J0D01*
G01*
G37*
%TD.AperFunction*%
%TO.P,C4,1*%
%TO.N,Net-(C4-Pad1)*%
%TA.AperFunction,SMDPad,CuDef*%
G36*
G01*
X145000000Y-108975000D02*
X144500000Y-108975000D01*
G75*
G02*
X144275000Y-108750000I0J225000D01*
G01*
X144275000Y-108300000D01*
G75*
G02*
X144500000Y-108075000I225000J0D01*
G01*
X145000000Y-108075000D01*
G75*
G02*
X145225000Y-108300000I0J-225000D01*
G01*
X145225000Y-108750000D01*
G75*
G02*
X145000000Y-108975000I-225000J0D01*
G01*
G37*
%TD.AperFunction*%
%TD*%
%TO.P,C3,2*%
%TO.N,NRST*%
%TA.AperFunction,SMDPad,CuDef*%
G36*
G01*
X128830000Y-137700000D02*
X129170000Y-137700000D01*
G75*
G02*
X129310000Y-137840000I0J-140000D01*
G01*
X129310000Y-138120000D01*
G75*
G02*
X129170000Y-138260000I-140000J0D01*
G01*
X128830000Y-138260000D01*
G75*
G02*
X128690000Y-138120000I0J140000D01*
G01*
X128690000Y-137840000D01*
G75*
G02*
X128830000Y-137700000I140000J0D01*
G01*
G37*
%TD.AperFunction*%
%TO.P,C3,1*%
%TO.N,GND*%
%TA.AperFunction,SMDPad,CuDef*%
G36*
G01*
X128830000Y-136740000D02*
X129170000Y-136740000D01*
G75*
G02*
X129310000Y-136880000I0J-140000D01*
G01*
X129310000Y-137160000D01*
G75*
G02*
X129170000Y-137300000I-140000J0D01*
G01*
X128830000Y-137300000D01*
G75*
G02*
X128690000Y-137160000I0J140000D01*
G01*
X128690000Y-136880000D01*
G75*
G02*
X128830000Y-136740000I140000J0D01*
G01*
G37*
%TD.AperFunction*%
%TD*%
%TO.P,C11,1*%
%TO.N,+3V3*%
%TA.AperFunction,SMDPad,CuDef*%
G36*
G01*
X140760000Y-126830000D02*
X140760000Y-127170000D01*
G75*
G02*
X140620000Y-127310000I-140000J0D01*
G01*
X140340000Y-127310000D01*
G75*
G02*
X140200000Y-127170000I0J140000D01*
G01*
X140200000Y-126830000D01*
G75*
G02*
X140340000Y-126690000I140000J0D01*
G01*
X140620000Y-126690000D01*
G75*
G02*
X140760000Y-126830000I0J-140000D01*
G01*
G37*
%TD.AperFunction*%
%TO.P,C11,2*%
%TO.N,GND*%
%TA.AperFunction,SMDPad,CuDef*%
G36*
G01*
X139800000Y-126830000D02*
X139800000Y-127170000D01*
G75*
G02*
X139660000Y-127310000I-140000J0D01*
G01*
X139380000Y-127310000D01*
G75*
G02*
X139240000Y-127170000I0J140000D01*
G01*
X139240000Y-126830000D01*
G75*
G02*
X139380000Y-126690000I140000J0D01*
G01*
X139660000Y-126690000D01*
G75*
G02*
X139800000Y-126830000I0J-140000D01*
G01*
G37*
%TD.AperFunction*%
%TD*%
%TO.P,C2,2*%
%TO.N,GND*%
%TA.AperFunction,SMDPad,CuDef*%
G36*
G01*
X122400000Y-111000000D02*
X122400000Y-111500000D01*
G75*
G02*
X122175000Y-111725000I-225000J0D01*
G01*
X121725000Y-111725000D01*
G75*
G02*
X121500000Y-111500000I0J225000D01*
G01*
X121500000Y-111000000D01*
G75*
G02*
X121725000Y-110775000I225000J0D01*
G01*
X122175000Y-110775000D01*
G75*
G02*
X122400000Y-111000000I0J-225000D01*
G01*
G37*
%TD.AperFunction*%
%TO.P,C2,1*%
%TO.N,HSE_IN*%
%TA.AperFunction,SMDPad,CuDef*%
G36*
G01*
X123950000Y-111000000D02*
X123950000Y-111500000D01*
G75*
G02*
X123725000Y-111725000I-225000J0D01*
G01*
X123275000Y-111725000D01*
G75*
G02*
X123050000Y-111500000I0J225000D01*
G01*
X123050000Y-111000000D01*
G75*
G02*
X123275000Y-110775000I225000J0D01*
G01*
X123725000Y-110775000D01*
G75*
G02*
X123950000Y-111000000I0J-225000D01*
G01*
G37*
%TD.AperFunction*%
%TD*%
%TO.P,C1,2*%
%TO.N,GND*%
%TA.AperFunction,SMDPad,CuDef*%
G36*
G01*
X137250000Y-128075000D02*
X137750000Y-128075000D01*
G75*
G02*
X137975000Y-128300000I0J-225000D01*
G01*
X137975000Y-128750000D01*
G75*
G02*
X137750000Y-128975000I-225000J0D01*
G01*
X137250000Y-128975000D01*
G75*
G02*
X137025000Y-128750000I0J225000D01*
G01*
X137025000Y-128300000D01*
G75*
G02*
X137250000Y-128075000I225000J0D01*
G01*
G37*
%TD.AperFunction*%
%TO.P,C1,1*%
%TO.N,Net-(C1-Pad1)*%
%TA.AperFunction,SMDPad,CuDef*%
G36*
G01*
X137250000Y-126525000D02*
X137750000Y-126525000D01*
G75*
G02*
X137975000Y-126750000I0J-225000D01*
G01*
X137975000Y-127200000D01*
G75*
G02*
X137750000Y-127425000I-225000J0D01*
G01*
X137250000Y-127425000D01*
G75*
G02*
X137025000Y-127200000I0J225000D01*
G01*
X137025000Y-126750000D01*
G75*
G02*
X137250000Y-126525000I225000J0D01*
G01*
G37*
%TD.AperFunction*%
%TD*%
%TO.P,C10,2*%
%TO.N,GND*%
%TA.AperFunction,SMDPad,CuDef*%
G36*
G01*
X139675000Y-128250000D02*
X139675000Y-128750000D01*
G75*
G02*
X139450000Y-128975000I-225000J0D01*
G01*
X139000000Y-128975000D01*
G75*
G02*
X138775000Y-128750000I0J225000D01*
G01*
X138775000Y-128250000D01*
G75*
G02*
X139000000Y-128025000I225000J0D01*
G01*
X139450000Y-128025000D01*
G75*
G02*
X139675000Y-128250000I0J-225000D01*
G01*
G37*
%TD.AperFunction*%
%TO.P,C10,1*%
%TO.N,+3V3*%
%TA.AperFunction,SMDPad,CuDef*%
G36*
G01*
X141225000Y-128250000D02*
X141225000Y-128750000D01*
G75*
G02*
X141000000Y-128975000I-225000J0D01*
G01*
X140550000Y-128975000D01*
G75*
G02*
X140325000Y-128750000I0J225000D01*
G01*
X140325000Y-128250000D01*
G75*
G02*
X140550000Y-128025000I225000J0D01*
G01*
X141000000Y-128025000D01*
G75*
G02*
X141225000Y-128250000I0J-225000D01*
G01*
G37*
%TD.AperFunction*%
%TD*%
D24*
%TO.N,+3V3*%
X123750000Y-117750000D03*
X141000000Y-129500000D03*
X126250000Y-119500000D03*
X127000000Y-123750000D03*
X146500000Y-121500000D03*
X143250000Y-107500000D03*
X127000000Y-115750000D03*
X126250000Y-112500000D03*
X133500000Y-138250000D03*
X130250000Y-109500000D03*
X130000000Y-95750000D03*
X141250000Y-117500000D03*
X144000000Y-133000000D03*
X122000000Y-145500000D03*
%TO.N,GND*%
X138000000Y-135000000D03*
X134000000Y-135500000D03*
X123750000Y-121750000D03*
X139000000Y-129500000D03*
X126250000Y-118500000D03*
X127000000Y-121250000D03*
X146500000Y-119000000D03*
X140750000Y-107500000D03*
X127000000Y-113250000D03*
X126250000Y-111500000D03*
X143750000Y-106250000D03*
X118500000Y-112250000D03*
X140000000Y-136750000D03*
X131250000Y-95750000D03*
X128130000Y-136150000D03*
%TO.N,NRST*%
X132000000Y-119000000D03*
X132000000Y-116250000D03*
X130500000Y-111750000D03*
X129000000Y-110250000D03*
%TO.N,Net-(FB1-Pad2)*%
X136750000Y-136875000D03*
%TO.N,DSIHOST_D1N*%
X143250000Y-116750000D03*
X153000000Y-111250000D03*
X153000000Y-99750000D03*
%TO.N,DSIHOST_D1P*%
X142500000Y-117250000D03*
X153500000Y-110750000D03*
X153500000Y-99250000D03*
%TO.N,DSIHOST_CKN*%
X143250000Y-118250000D03*
X154000000Y-111250000D03*
X154000000Y-99750000D03*
%TO.N,DSIHOST_CKP*%
X142500000Y-118750000D03*
X154500000Y-110750000D03*
X154500000Y-99250000D03*
%TO.N,DSIHOST_D0N*%
X142500000Y-119750000D03*
X154500000Y-110000000D03*
X155000000Y-99750000D03*
%TO.N,DSIHOST_D0P*%
X143250000Y-120250000D03*
X155084500Y-109509999D03*
X155500000Y-99250000D03*
%TO.N,SWO*%
X134250000Y-98250000D03*
X132500000Y-87750000D03*
%TO.N,SWCLK*%
X141250000Y-108250000D03*
X131250000Y-87750000D03*
%TO.N,SWDIO*%
X130000000Y-97250000D03*
X130000000Y-87750000D03*
%TO.N,PB5*%
X133750000Y-105500000D03*
%TO.N,PD7*%
X135250000Y-106000000D03*
%TO.N,PB4*%
X134250000Y-106250000D03*
%TO.N,PD6*%
X135750000Y-105500000D03*
%TO.N,PB2*%
X117250000Y-112000000D03*
X133250000Y-123500000D03*
%TO.N,PD5*%
X136250000Y-106000000D03*
%TO.N,PB1*%
X116750000Y-113000000D03*
X132750000Y-122750000D03*
%TO.N,PD4*%
X136750000Y-106500000D03*
%TO.N,PB0*%
X116250000Y-112000000D03*
X132250000Y-123500000D03*
%TO.N,PD3*%
X137250000Y-107000000D03*
%TO.N,PA15*%
X128250000Y-108145450D03*
X131500000Y-105000000D03*
X137500000Y-105000000D03*
%TO.N,PD2*%
X137750000Y-107500000D03*
%TO.N,PA10*%
X115500000Y-110250000D03*
X135000000Y-113250000D03*
%TO.N,PD1*%
X138250000Y-106250000D03*
%TO.N,PA9*%
X115500000Y-111000000D03*
X135000000Y-114000000D03*
%TO.N,PD0*%
X138750000Y-106750000D03*
%TO.N,PA8*%
X135000000Y-114750000D03*
X115500000Y-111750000D03*
%TO.N,PC15*%
X130500000Y-115750000D03*
X118500000Y-116000000D03*
%TO.N,PA7*%
X131750000Y-128750000D03*
X128750000Y-130750000D03*
X118000000Y-125000000D03*
X118000000Y-126250000D03*
%TO.N,PC14*%
X131250000Y-115250000D03*
X118500000Y-116750000D03*
%TO.N,PA6*%
X131250000Y-129500000D03*
X128750000Y-131500000D03*
X117250000Y-125000000D03*
X117250000Y-126250000D03*
%TO.N,PC13*%
X131206197Y-114543803D03*
X118500000Y-117500000D03*
%TO.N,PA5*%
X130750000Y-130250000D03*
X128750000Y-132250000D03*
X116500000Y-126250000D03*
X116500000Y-125000000D03*
%TO.N,PC12*%
X139250000Y-107250000D03*
%TO.N,PC11*%
X139750000Y-107750000D03*
%TO.N,PA3*%
X130750000Y-122250000D03*
%TO.N,PC10*%
X140250000Y-108250000D03*
%TO.N,PA2*%
X130750000Y-121250000D03*
%TO.N,PC9*%
X135000000Y-115500000D03*
%TO.N,PA1*%
X131750000Y-121250000D03*
X115750000Y-132750000D03*
%TO.N,PC8*%
X134500000Y-116250000D03*
%TO.N,PC7*%
X146500000Y-117500000D03*
X151750000Y-109750000D03*
%TO.N,PC6*%
X145750000Y-117000000D03*
X152500000Y-109750000D03*
%TO.N,PE15*%
X139250000Y-122000000D03*
X150000000Y-111750000D03*
%TO.N,PC3*%
X137000000Y-117000000D03*
X149000000Y-111250000D03*
X149000000Y-109250000D03*
%TO.N,PE14*%
X140000000Y-121500000D03*
X149250000Y-112250000D03*
%TO.N,PC2*%
X137000000Y-116250000D03*
X149750000Y-110750000D03*
X149750000Y-109250000D03*
%TO.N,PE13*%
X140750000Y-121000000D03*
X150000000Y-112750000D03*
%TO.N,PC1*%
X137000000Y-115500000D03*
X150500000Y-110250000D03*
X150500000Y-109250000D03*
%TO.N,PE12*%
X141500000Y-120500000D03*
X150750000Y-113250000D03*
%TO.N,PC0*%
X137000000Y-114750000D03*
%TO.N,PE11*%
X139500000Y-117500000D03*
X150000000Y-113750000D03*
%TO.N,PB15*%
X142250000Y-123500000D03*
%TO.N,PE10*%
X140250000Y-117000000D03*
X149250000Y-114250000D03*
%TO.N,PB14*%
X141750000Y-122750000D03*
%TO.N,PE9*%
X141000000Y-116500000D03*
X148500000Y-114750000D03*
%TO.N,PB13*%
X141250000Y-123500000D03*
%TO.N,PE8*%
X141750000Y-116000000D03*
X147750000Y-115250000D03*
%TO.N,PB12*%
X140750000Y-122750000D03*
%TO.N,PE7*%
X142500000Y-115500000D03*
X148500000Y-115750000D03*
%TO.N,PB11*%
X138750000Y-122750000D03*
%TO.N,PE2*%
X150500000Y-107750000D03*
X134250000Y-111500000D03*
X151250000Y-111250000D03*
X151250000Y-116250000D03*
%TO.N,PB10*%
X138250000Y-123500000D03*
%TO.N,PB9*%
X137000000Y-117750000D03*
X135500000Y-117750000D03*
X131250000Y-111000000D03*
%TO.N,PB8*%
X131750000Y-111750000D03*
X137000000Y-118500000D03*
X135750000Y-118500000D03*
%TO.N,PB7*%
X137000000Y-119250000D03*
X136000000Y-119250000D03*
X132750000Y-111750000D03*
%TO.N,PB6*%
X133250000Y-111000000D03*
%TO.N,Net-(J5-PadA6)*%
X138250000Y-142750000D03*
X138790500Y-139182998D03*
%TO.N,Net-(J5-PadA7)*%
X137500000Y-136750000D03*
X137500000Y-142750000D03*
X138500000Y-137750000D03*
%TO.N,Net-(J5-PadA5)*%
X143500000Y-140500000D03*
X137354000Y-139250000D03*
%TO.N,BOOT0*%
X135000000Y-111000000D03*
X132250000Y-111000000D03*
X132750000Y-116250000D03*
X132750000Y-119000000D03*
%TO.N,USB_D+*%
X149350000Y-129265500D03*
X149350000Y-126801588D03*
X149500000Y-123250000D03*
X149350000Y-120984500D03*
%TO.N,USB_D-*%
X148650000Y-129265500D03*
X148650000Y-126801588D03*
X148500000Y-123250000D03*
X148650000Y-120984500D03*
%TD*%
D25*
%TO.N,+3V3*%
X141400000Y-135800000D02*
X141457202Y-135800000D01*
X123765000Y-117765000D02*
X123750000Y-117750000D01*
X123765000Y-118500000D02*
X123765000Y-117765000D01*
X140250000Y-126770000D02*
X140250000Y-124925000D01*
X140480000Y-127000000D02*
X140250000Y-126770000D01*
X140480000Y-128205000D02*
X140775000Y-128500000D01*
X140480000Y-127000000D02*
X140480000Y-128205000D01*
X140775000Y-129275000D02*
X141000000Y-129500000D01*
X140775000Y-128500000D02*
X140775000Y-129275000D01*
X127000000Y-119480000D02*
X127230000Y-119250000D01*
X127230000Y-119250000D02*
X129075000Y-119250000D01*
X126270000Y-119480000D02*
X126250000Y-119500000D01*
X127000000Y-119480000D02*
X126270000Y-119480000D01*
X127210000Y-122750000D02*
X129075000Y-122750000D01*
X127000000Y-122960000D02*
X127210000Y-122750000D01*
X127000000Y-122960000D02*
X127000000Y-123750000D01*
X145980000Y-121250000D02*
X146500000Y-120730000D01*
X146500000Y-120730000D02*
X146500000Y-121500000D01*
X144425000Y-121250000D02*
X145000000Y-121250000D01*
X145000000Y-121250000D02*
X145980000Y-121250000D01*
X144675000Y-121250000D02*
X145000000Y-121250000D01*
X142250000Y-107730000D02*
X142250000Y-109575000D01*
X142480000Y-107500000D02*
X142250000Y-107730000D01*
X142480000Y-107500000D02*
X143250000Y-107500000D01*
X127230000Y-114750000D02*
X129075000Y-114750000D01*
X127000000Y-114980000D02*
X127230000Y-114750000D01*
X127000000Y-114980000D02*
X127000000Y-115750000D01*
X127230000Y-112250000D02*
X129075000Y-112250000D01*
X127000000Y-112480000D02*
X127230000Y-112250000D01*
X126270000Y-112480000D02*
X126250000Y-112500000D01*
X127000000Y-112480000D02*
X126270000Y-112480000D01*
X133437500Y-138187500D02*
X133500000Y-138250000D01*
X133437500Y-137000000D02*
X133437500Y-138187500D01*
X141525000Y-135675000D02*
X141400000Y-135800000D01*
X143000000Y-135675000D02*
X141525000Y-135675000D01*
X143000000Y-134230000D02*
X143000000Y-135675000D01*
X130325000Y-109575000D02*
X130250000Y-109500000D01*
X130750000Y-109575000D02*
X130325000Y-109575000D01*
X129960000Y-95710000D02*
X130000000Y-95750000D01*
X129960000Y-93785000D02*
X129960000Y-95710000D01*
X142500000Y-116250000D02*
X141250000Y-117500000D01*
X144425000Y-116250000D02*
X142500000Y-116250000D01*
X143000000Y-134000000D02*
X144000000Y-133000000D01*
X143000000Y-134025000D02*
X143000000Y-134000000D01*
X122000000Y-146195000D02*
X122000000Y-145500000D01*
%TO.N,GND*%
X138000000Y-135675000D02*
X138000000Y-135000000D01*
X134000000Y-134710000D02*
X134000000Y-135500000D01*
X140100000Y-135400000D02*
X140100000Y-135800000D01*
X140750000Y-134750000D02*
X140100000Y-135400000D01*
X144750000Y-138925000D02*
X146500000Y-138925000D01*
X140875000Y-141435000D02*
X140875000Y-140035000D01*
X140625000Y-141685000D02*
X140875000Y-141435000D01*
X135125000Y-140285000D02*
X135125000Y-141685000D01*
X135375000Y-140035000D02*
X135125000Y-140285000D01*
X134710000Y-140700000D02*
X135125000Y-140285000D01*
X133680000Y-140700000D02*
X134710000Y-140700000D01*
X141610000Y-140700000D02*
X140875000Y-141435000D01*
X142320000Y-140700000D02*
X141610000Y-140700000D01*
X123770000Y-121000000D02*
X123770000Y-119750000D01*
X123770000Y-121730000D02*
X123750000Y-121750000D01*
X123770000Y-121000000D02*
X123770000Y-121730000D01*
X139750000Y-126770000D02*
X139750000Y-124925000D01*
X139520000Y-127000000D02*
X139750000Y-126770000D01*
X139520000Y-128205000D02*
X139225000Y-128500000D01*
X139520000Y-127000000D02*
X139520000Y-128205000D01*
X139225000Y-129275000D02*
X139000000Y-129500000D01*
X139225000Y-128500000D02*
X139225000Y-129275000D01*
X127000000Y-118520000D02*
X127230000Y-118750000D01*
X127230000Y-118750000D02*
X129075000Y-118750000D01*
X126270000Y-118520000D02*
X126250000Y-118500000D01*
X127000000Y-118520000D02*
X126270000Y-118520000D01*
X127250000Y-122250000D02*
X129075000Y-122250000D01*
X127000000Y-122000000D02*
X127250000Y-122250000D01*
X127000000Y-122000000D02*
X127000000Y-121250000D01*
X146500000Y-119770000D02*
X146500000Y-119000000D01*
X145980000Y-119250000D02*
X146500000Y-119770000D01*
X144425000Y-119250000D02*
X145980000Y-119250000D01*
X141750000Y-107730000D02*
X141750000Y-109575000D01*
X141520000Y-107500000D02*
X141750000Y-107730000D01*
X141520000Y-107500000D02*
X140750000Y-107500000D01*
X127230000Y-114250000D02*
X129075000Y-114250000D01*
X127000000Y-114020000D02*
X127230000Y-114250000D01*
X127000000Y-114020000D02*
X127000000Y-113250000D01*
X127230000Y-111750000D02*
X129075000Y-111750000D01*
X127000000Y-111520000D02*
X127230000Y-111750000D01*
X126270000Y-111520000D02*
X126250000Y-111500000D01*
X127000000Y-111520000D02*
X126270000Y-111520000D01*
X144475000Y-106975000D02*
X143750000Y-106250000D01*
X144750000Y-106975000D02*
X144475000Y-106975000D01*
X121575000Y-113225000D02*
X121650000Y-113150000D01*
X119500000Y-113225000D02*
X121575000Y-113225000D01*
X122150000Y-113150000D02*
X123850000Y-114850000D01*
X121650000Y-113150000D02*
X122150000Y-113150000D01*
X121950000Y-112850000D02*
X121650000Y-113150000D01*
X121950000Y-111250000D02*
X121950000Y-112850000D01*
X119475000Y-113225000D02*
X118500000Y-112250000D01*
X119500000Y-113225000D02*
X119475000Y-113225000D01*
X140100000Y-136650000D02*
X140000000Y-136750000D01*
X140100000Y-135800000D02*
X140100000Y-136650000D01*
X133555000Y-140575000D02*
X133680000Y-140700000D01*
X131250000Y-140575000D02*
X133555000Y-140575000D01*
X126435990Y-124360990D02*
X126435990Y-122564010D01*
X126435990Y-122564010D02*
X127000000Y-122000000D01*
X127075000Y-125000000D02*
X126435990Y-124360990D01*
X139200000Y-128525000D02*
X139225000Y-128500000D01*
X137500000Y-128525000D02*
X139200000Y-128525000D01*
X140750000Y-134750000D02*
X141307202Y-134750000D01*
X146500000Y-138925000D02*
X146500000Y-137325000D01*
X144095000Y-138925000D02*
X142320000Y-140700000D01*
X144750000Y-138925000D02*
X144095000Y-138925000D01*
X132500000Y-94810000D02*
X132500000Y-93785000D01*
X133124000Y-95434000D02*
X132500000Y-94810000D01*
X134415999Y-95434001D02*
X133124000Y-95434000D01*
X135040000Y-94810000D02*
X134415999Y-95434001D01*
X135040000Y-93785000D02*
X135040000Y-94810000D01*
X132500000Y-93785000D02*
X131230000Y-93785000D01*
X131230000Y-95730000D02*
X131250000Y-95750000D01*
X131230000Y-93785000D02*
X131230000Y-95730000D01*
X141804000Y-134750000D02*
X142000000Y-134554000D01*
X140750000Y-134750000D02*
X141804000Y-134750000D01*
X142000000Y-134554000D02*
X142000000Y-132750000D01*
X142275000Y-132475000D02*
X143000000Y-132475000D01*
X142000000Y-132750000D02*
X142275000Y-132475000D01*
X122645000Y-147550000D02*
X124000000Y-146195000D01*
X120000000Y-147550000D02*
X122645000Y-147550000D01*
X125355000Y-147550000D02*
X124000000Y-146195000D01*
X126000000Y-147550000D02*
X125355000Y-147550000D01*
X128130000Y-136150000D02*
X129000000Y-137020000D01*
X126350000Y-136150000D02*
X128130000Y-136150000D01*
X126350000Y-136150000D02*
X120150000Y-136150000D01*
X131880000Y-147550000D02*
X133680000Y-145750000D01*
X126000000Y-147550000D02*
X131880000Y-147550000D01*
D26*
%TO.N,HSE_IN*%
X123500000Y-112800000D02*
X123850000Y-113150000D01*
X123500000Y-111250000D02*
X123500000Y-112800000D01*
X128275000Y-115250000D02*
X129075000Y-115250000D01*
X123850000Y-113207098D02*
X123850000Y-113150000D01*
X126808403Y-116165501D02*
X123850000Y-113207098D01*
X127199441Y-116165501D02*
X126808403Y-116165501D01*
X128114942Y-115250000D02*
X127199441Y-116165501D01*
X129075000Y-115250000D02*
X128114942Y-115250000D01*
%TO.N,NRST*%
X129500510Y-137479490D02*
X129500510Y-124249490D01*
X129000000Y-137980000D02*
X129500510Y-137479490D01*
X132165501Y-119165501D02*
X132000000Y-119000000D01*
X132165501Y-121584499D02*
X132165501Y-119165501D01*
X129500510Y-124249490D02*
X132165501Y-121584499D01*
X132000000Y-116250000D02*
X129075000Y-116250000D01*
X132000000Y-113250000D02*
X130500000Y-111750000D01*
X132000000Y-116250000D02*
X132000000Y-113250000D01*
X129000000Y-110250000D02*
X127834499Y-109084499D01*
X128980000Y-138000000D02*
X129000000Y-137980000D01*
X120150000Y-139850000D02*
X126350000Y-139850000D01*
X127130000Y-139850000D02*
X129000000Y-137980000D01*
X126350000Y-139850000D02*
X127130000Y-139850000D01*
X135040000Y-88193000D02*
X135040000Y-89715000D01*
X134181499Y-87334499D02*
X135040000Y-88193000D01*
X129800559Y-87334499D02*
X134181499Y-87334499D01*
X127834499Y-89300559D02*
X129800559Y-87334499D01*
X127834499Y-109084499D02*
X127834499Y-89300559D01*
D25*
%TO.N,+3.3VA*%
X124730000Y-121000000D02*
X124730000Y-119750000D01*
X124735000Y-119745000D02*
X124730000Y-119750000D01*
X124735000Y-118500000D02*
X124735000Y-119745000D01*
X124994010Y-120014010D02*
X124730000Y-119750000D01*
X127750000Y-119750000D02*
X127485990Y-120014010D01*
X129075000Y-119750000D02*
X127750000Y-119750000D01*
X124994010Y-120014010D02*
X127485990Y-120014010D01*
%TO.N,+5V*%
X138000000Y-134257202D02*
X137853201Y-134404001D01*
X138000000Y-133825000D02*
X138000000Y-134257202D01*
X135750000Y-134250000D02*
X135750000Y-133750000D01*
X135904001Y-134404001D02*
X135750000Y-134250000D01*
X137095999Y-134404001D02*
X135904001Y-134404001D01*
X137853201Y-134404001D02*
X137095999Y-134404001D01*
X134000000Y-133750000D02*
X135750000Y-133750000D01*
X139395999Y-134404001D02*
X140100000Y-133700000D01*
X137853201Y-134404001D02*
X139395999Y-134404001D01*
X140100000Y-133392798D02*
X140100000Y-133700000D01*
X140371799Y-133120999D02*
X140100000Y-133392798D01*
X141128201Y-133120999D02*
X140371799Y-133120999D01*
X141400000Y-133392798D02*
X141128201Y-133120999D01*
X141400000Y-133700000D02*
X141400000Y-133392798D01*
D26*
%TO.N,LED_STATUS*%
X124200000Y-122812500D02*
X123500000Y-122812500D01*
X126512500Y-120500000D02*
X124200000Y-122812500D01*
X127449026Y-120500000D02*
X126512500Y-120500000D01*
X127699026Y-120250000D02*
X127449026Y-120500000D01*
X129075000Y-120250000D02*
X127699026Y-120250000D01*
D25*
%TO.N,Net-(D1-Pad1)*%
X131812500Y-138362500D02*
X131250000Y-138925000D01*
X131812500Y-137000000D02*
X131812500Y-138362500D01*
D26*
%TO.N,Net-(D2-Pad1)*%
X125112500Y-124687500D02*
X125425000Y-125000000D01*
X123500000Y-124687500D02*
X125112500Y-124687500D01*
D25*
%TO.N,Net-(FB1-Pad2)*%
X135750000Y-135875000D02*
X136750000Y-136875000D01*
X136875000Y-140539001D02*
X136875000Y-140035000D01*
X136625000Y-140789001D02*
X136875000Y-140539001D01*
X136625000Y-141685000D02*
X136625000Y-140789001D01*
X139375000Y-140539001D02*
X139375000Y-140035000D01*
X139125000Y-140789001D02*
X139375000Y-140539001D01*
X139125000Y-141685000D02*
X139125000Y-140789001D01*
X136625000Y-140789001D02*
X139125000Y-140789001D01*
X136875000Y-137000000D02*
X136750000Y-136875000D01*
X136875000Y-140035000D02*
X136875000Y-137000000D01*
D26*
%TO.N,DSIHOST_D1N*%
X144425000Y-116750000D02*
X143250000Y-116750000D01*
X153000000Y-111250000D02*
X153000000Y-107500000D01*
X153000000Y-107500000D02*
X153000000Y-99750000D01*
%TO.N,DSIHOST_D1P*%
X144425000Y-117250000D02*
X142500000Y-117250000D01*
X153500000Y-110750000D02*
X153254010Y-110504010D01*
X153254010Y-110504010D02*
X153254010Y-107500000D01*
X153500000Y-99864942D02*
X153500000Y-99250000D01*
X153254010Y-100110932D02*
X153500000Y-99864942D01*
X153254010Y-107500000D02*
X153254010Y-100110932D01*
%TO.N,DSIHOST_CKN*%
X144425000Y-118250000D02*
X143250000Y-118250000D01*
X154000000Y-110635058D02*
X153508020Y-110143078D01*
X154000000Y-111250000D02*
X154000000Y-110635058D01*
X153508020Y-110143078D02*
X153508020Y-107500000D01*
X153974166Y-99750000D02*
X154000000Y-99750000D01*
X153508020Y-100216146D02*
X153974166Y-99750000D01*
X153508020Y-107500000D02*
X153508020Y-100216146D01*
%TO.N,DSIHOST_CKP*%
X144425000Y-118750000D02*
X142500000Y-118750000D01*
X154500000Y-110750000D02*
X153762030Y-110012030D01*
X153762030Y-110012030D02*
X153762030Y-107500000D01*
X154500000Y-99864942D02*
X154500000Y-99250000D01*
X153762030Y-100602912D02*
X154500000Y-99864942D01*
X153762030Y-107500000D02*
X153762030Y-100602912D01*
%TO.N,DSIHOST_D0N*%
X144425000Y-119750000D02*
X142500000Y-119750000D01*
X154500000Y-110000000D02*
X154016040Y-109516040D01*
X154016040Y-109516040D02*
X154016040Y-107500000D01*
X154016040Y-100733960D02*
X155000000Y-99750000D01*
X154016040Y-107500000D02*
X154016040Y-100733960D01*
%TO.N,DSIHOST_D0P*%
X144425000Y-120250000D02*
X143250000Y-120250000D01*
X155084500Y-109509999D02*
X154270050Y-108695549D01*
X154270050Y-108695549D02*
X154270050Y-107500000D01*
X155500000Y-99864942D02*
X155500000Y-99250000D01*
X154270050Y-101094892D02*
X155500000Y-99864942D01*
X154270050Y-107500000D02*
X154270050Y-101094892D01*
%TO.N,SWO*%
X134750000Y-105750000D02*
X134750000Y-106500000D01*
X134750000Y-106500000D02*
X134750000Y-105885058D01*
X134750000Y-109575000D02*
X134750000Y-106500000D01*
X134750000Y-98750000D02*
X134250000Y-98250000D01*
X134750000Y-105750000D02*
X134750000Y-98750000D01*
X132500000Y-87750000D02*
X132500000Y-89715000D01*
%TO.N,SWCLK*%
X141250000Y-109575000D02*
X141250000Y-108250000D01*
X131230000Y-87770000D02*
X131250000Y-87750000D01*
X131230000Y-89715000D02*
X131230000Y-87770000D01*
%TO.N,SWDIO*%
X146000000Y-111250000D02*
X144425000Y-111250000D01*
X146750000Y-110500000D02*
X146000000Y-111250000D01*
X142250000Y-105250000D02*
X145500000Y-105250000D01*
X146750000Y-106500000D02*
X146750000Y-110500000D01*
X145500000Y-105250000D02*
X146750000Y-106500000D01*
X134790000Y-97790000D02*
X141125000Y-104125000D01*
X141125000Y-104125000D02*
X142250000Y-105250000D01*
X130540000Y-97790000D02*
X130000000Y-97250000D01*
X134790000Y-97790000D02*
X130540000Y-97790000D01*
X129960000Y-87790000D02*
X130000000Y-87750000D01*
X129960000Y-89715000D02*
X129960000Y-87790000D01*
%TO.N,PB5*%
X133750000Y-109575000D02*
X133750000Y-105500000D01*
%TO.N,PD7*%
X135250000Y-109575000D02*
X135250000Y-106000000D01*
%TO.N,PB4*%
X134250000Y-109575000D02*
X134250000Y-106250000D01*
%TO.N,PD6*%
X135750000Y-105500000D02*
X135750000Y-109575000D01*
%TO.N,PB2*%
X112750000Y-99900000D02*
X117250000Y-104400000D01*
X117250000Y-104400000D02*
X117250000Y-112000000D01*
X133250000Y-124925000D02*
X133250000Y-123500000D01*
%TO.N,PD5*%
X136250000Y-109575000D02*
X136250000Y-106000000D01*
%TO.N,PB1*%
X116750000Y-106440000D02*
X116750000Y-113000000D01*
X112750000Y-102440000D02*
X116750000Y-106440000D01*
X132750000Y-124925000D02*
X132750000Y-122750000D01*
%TO.N,PD4*%
X136750000Y-109575000D02*
X136750000Y-106500000D01*
%TO.N,PB0*%
X116250000Y-108480000D02*
X116250000Y-112000000D01*
X112750000Y-104980000D02*
X116250000Y-108480000D01*
X132250000Y-123500000D02*
X132250000Y-124925000D01*
%TO.N,PD3*%
X137250000Y-109575000D02*
X137250000Y-107000000D01*
%TO.N,PA15*%
X140750000Y-108114942D02*
X140334499Y-107699441D01*
X140750000Y-109575000D02*
X140750000Y-108114942D01*
X131395450Y-105000000D02*
X131500000Y-105000000D01*
X128250000Y-108145450D02*
X131395450Y-105000000D01*
X137635058Y-105000000D02*
X137500000Y-105000000D01*
X140334499Y-107699441D02*
X137635058Y-105000000D01*
%TO.N,PD2*%
X137750000Y-109575000D02*
X137750000Y-107500000D01*
%TO.N,PA10*%
X115310000Y-110060000D02*
X115500000Y-110250000D01*
X112750000Y-110060000D02*
X115310000Y-110060000D01*
X135500000Y-112750000D02*
X144425000Y-112750000D01*
X135000000Y-113250000D02*
X135500000Y-112750000D01*
%TO.N,PD1*%
X138250000Y-109575000D02*
X138250000Y-106250000D01*
%TO.N,PA9*%
X113900000Y-112600000D02*
X115500000Y-111000000D01*
X112750000Y-112600000D02*
X113900000Y-112600000D01*
X135750000Y-113250000D02*
X144425000Y-113250000D01*
X135000000Y-114000000D02*
X135750000Y-113250000D01*
%TO.N,PD0*%
X138750000Y-109575000D02*
X138750000Y-106750000D01*
%TO.N,PA8*%
X136000000Y-113750000D02*
X135000000Y-114750000D01*
X144425000Y-113750000D02*
X136000000Y-113750000D01*
X112750000Y-114500000D02*
X112750000Y-115140000D01*
X115500000Y-111750000D02*
X112750000Y-114500000D01*
%TO.N,PC15*%
X130500000Y-114375000D02*
X130500000Y-115750000D01*
X129875000Y-113750000D02*
X130500000Y-114375000D01*
X129075000Y-113750000D02*
X129875000Y-113750000D01*
X111276480Y-116206480D02*
X110210000Y-115140000D01*
X117975322Y-116206480D02*
X111276480Y-116206480D01*
X118181802Y-116000000D02*
X117975322Y-116206480D01*
X118500000Y-116000000D02*
X118181802Y-116000000D01*
%TO.N,PA7*%
X131750000Y-124925000D02*
X131750000Y-128750000D01*
X118000000Y-122930000D02*
X118000000Y-125000000D01*
X112750000Y-117680000D02*
X118000000Y-122930000D01*
X118000000Y-126250000D02*
X118000000Y-129750000D01*
X119000000Y-130750000D02*
X128750000Y-130750000D01*
X118000000Y-129750000D02*
X119000000Y-130750000D01*
%TO.N,PC14*%
X130790696Y-114790696D02*
X131250000Y-115250000D01*
X130790696Y-114165696D02*
X130790696Y-114790696D01*
X129875000Y-113250000D02*
X130790696Y-114165696D01*
X129075000Y-113250000D02*
X129875000Y-113250000D01*
X111429510Y-116460490D02*
X110210000Y-117680000D01*
X118210490Y-116460490D02*
X111429510Y-116460490D01*
X118500000Y-116750000D02*
X118210490Y-116460490D01*
%TO.N,PA6*%
X131250000Y-124925000D02*
X131250000Y-129500000D01*
X117250000Y-123623985D02*
X117250000Y-125000000D01*
X113846015Y-120220000D02*
X117250000Y-123623985D01*
X112750000Y-120220000D02*
X113846015Y-120220000D01*
X117250000Y-126250000D02*
X117250000Y-130000000D01*
X118750000Y-131500000D02*
X128750000Y-131500000D01*
X117250000Y-130000000D02*
X118750000Y-131500000D01*
%TO.N,PC13*%
X131206197Y-114081197D02*
X131206197Y-114543803D01*
X129875000Y-112750000D02*
X131206197Y-114081197D01*
X129075000Y-112750000D02*
X129875000Y-112750000D01*
X117714499Y-116714499D02*
X111785501Y-116714499D01*
X118500000Y-117500000D02*
X117714499Y-116714499D01*
X111785501Y-116714499D02*
X111500000Y-117000000D01*
X111500000Y-118930000D02*
X110210000Y-120220000D01*
X111500000Y-117000000D02*
X111500000Y-118930000D01*
%TO.N,PA5*%
X130750000Y-124925000D02*
X130750000Y-130250000D01*
X128750000Y-132250000D02*
X118750000Y-132250000D01*
X118750000Y-132250000D02*
X118250000Y-132250000D01*
X116500000Y-130500000D02*
X116500000Y-126250000D01*
X118250000Y-132250000D02*
X116500000Y-130500000D01*
X112750000Y-122760000D02*
X115510000Y-122760000D01*
X116500000Y-123750000D02*
X116500000Y-125000000D01*
X115510000Y-122760000D02*
X116500000Y-123750000D01*
%TO.N,PC12*%
X139250000Y-109575000D02*
X139250000Y-107250000D01*
%TO.N,PA4*%
X113115510Y-125665510D02*
X112750000Y-125300000D01*
X127436754Y-125665510D02*
X113115510Y-125665510D01*
X129075000Y-124027264D02*
X127436754Y-125665510D01*
X129075000Y-123250000D02*
X129075000Y-124027264D01*
%TO.N,PC11*%
X139750000Y-109575000D02*
X139750000Y-107750000D01*
%TO.N,PA3*%
X130375000Y-122250000D02*
X130750000Y-122250000D01*
X129875000Y-121750000D02*
X130375000Y-122250000D01*
X129075000Y-121750000D02*
X129875000Y-121750000D01*
%TO.N,PC10*%
X140250000Y-109575000D02*
X140250000Y-108250000D01*
%TO.N,PA2*%
X129875000Y-121250000D02*
X130750000Y-121250000D01*
X129075000Y-121250000D02*
X129875000Y-121250000D01*
%TO.N,PC9*%
X144425000Y-114250000D02*
X143245990Y-114250000D01*
X143245990Y-114250000D02*
X143000000Y-114004010D01*
X135114942Y-115385058D02*
X135000000Y-115500000D01*
X136495990Y-114004010D02*
X135000000Y-115500000D01*
X143000000Y-114004010D02*
X136495990Y-114004010D01*
%TO.N,PA1*%
X129075000Y-120750000D02*
X131000000Y-120750000D01*
X131250000Y-120750000D02*
X131750000Y-121250000D01*
X131000000Y-120750000D02*
X131250000Y-120750000D01*
X112920000Y-132750000D02*
X112750000Y-132920000D01*
X115750000Y-132750000D02*
X112920000Y-132750000D01*
%TO.N,PC8*%
X144425000Y-114750000D02*
X143241980Y-114750000D01*
X143241980Y-114741980D02*
X142758020Y-114258020D01*
X143241980Y-114750000D02*
X143241980Y-114741980D01*
X134864942Y-116250000D02*
X134500000Y-116250000D01*
X136856922Y-114258020D02*
X134864942Y-116250000D01*
X142758020Y-114258020D02*
X136856922Y-114258020D01*
%TO.N,PC7*%
X146500000Y-116025834D02*
X146500000Y-117500000D01*
X145724166Y-115250000D02*
X146500000Y-116025834D01*
X144425000Y-115250000D02*
X145724166Y-115250000D01*
X160824499Y-95785501D02*
X161790000Y-94820000D01*
X151750000Y-97500000D02*
X153464499Y-95785501D01*
X153464499Y-95785501D02*
X160824499Y-95785501D01*
X151750000Y-109750000D02*
X151750000Y-97500000D01*
%TO.N,PC6*%
X146165501Y-116584499D02*
X145750000Y-117000000D01*
X146165501Y-116050559D02*
X146165501Y-116584499D01*
X145864942Y-115750000D02*
X146165501Y-116050559D01*
X144425000Y-115750000D02*
X145864942Y-115750000D01*
X160824499Y-96394499D02*
X161790000Y-97360000D01*
X152500000Y-109750000D02*
X152500000Y-97750000D01*
X152500000Y-97750000D02*
X153855501Y-96394499D01*
X153855501Y-96394499D02*
X159894499Y-96394499D01*
X159894499Y-96394499D02*
X160824499Y-96394499D01*
X158786559Y-96394499D02*
X159894499Y-96394499D01*
%TO.N,PE15*%
X137750000Y-124925000D02*
X137750000Y-123135058D01*
X137750000Y-123135058D02*
X137750000Y-122750000D01*
X138500000Y-122000000D02*
X139250000Y-122000000D01*
X137750000Y-122750000D02*
X138500000Y-122000000D01*
X155500000Y-101110000D02*
X159250000Y-97360000D01*
X155500000Y-111500000D02*
X155500000Y-101110000D01*
X155250000Y-111750000D02*
X155500000Y-111500000D01*
X150000000Y-111750000D02*
X155250000Y-111750000D01*
%TO.N,PC3*%
X135635058Y-117000000D02*
X137000000Y-117000000D01*
X134385058Y-118250000D02*
X135635058Y-117000000D01*
X129075000Y-118250000D02*
X134385058Y-118250000D01*
X149000000Y-111250000D02*
X149000000Y-110750000D01*
X149000000Y-110750000D02*
X149000000Y-110531552D01*
X149000000Y-110531552D02*
X149000000Y-109250000D01*
%TO.N,PE14*%
X138640776Y-121500000D02*
X140000000Y-121500000D01*
X137250000Y-122890776D02*
X138640776Y-121500000D01*
X137250000Y-124925000D02*
X137250000Y-122890776D01*
X156000000Y-103150000D02*
X159250000Y-99900000D01*
X156000000Y-112000000D02*
X156000000Y-103150000D01*
X155750000Y-112250000D02*
X156000000Y-112000000D01*
X149250000Y-112250000D02*
X155750000Y-112250000D01*
%TO.N,PC2*%
X136025834Y-116250000D02*
X137000000Y-116250000D01*
X134525834Y-117750000D02*
X136025834Y-116250000D01*
X129075000Y-117750000D02*
X134525834Y-117750000D01*
X149750000Y-110750000D02*
X149750000Y-110140776D01*
X149750000Y-110140776D02*
X149750000Y-109250000D01*
%TO.N,PE13*%
X138781552Y-121000000D02*
X140750000Y-121000000D01*
X136750000Y-123031552D02*
X138781552Y-121000000D01*
X136750000Y-124925000D02*
X136750000Y-123031552D01*
X156500000Y-105190000D02*
X159250000Y-102440000D01*
X156500000Y-112500000D02*
X156500000Y-105190000D01*
X156250000Y-112750000D02*
X156500000Y-112500000D01*
X150000000Y-112750000D02*
X156250000Y-112750000D01*
%TO.N,PC1*%
X136416610Y-115500000D02*
X137000000Y-115500000D01*
X134666610Y-117250000D02*
X136416610Y-115500000D01*
X129075000Y-117250000D02*
X134666610Y-117250000D01*
X150500000Y-110250000D02*
X150500000Y-109750000D01*
X150500000Y-109750000D02*
X150500000Y-109250000D01*
%TO.N,PE12*%
X138922328Y-120500000D02*
X141500000Y-120500000D01*
X136250000Y-123172328D02*
X138922328Y-120500000D01*
X136250000Y-124925000D02*
X136250000Y-123172328D01*
X157000000Y-107230000D02*
X159250000Y-104980000D01*
X156750000Y-113250000D02*
X157000000Y-113000000D01*
X157000000Y-113000000D02*
X157000000Y-107230000D01*
X150750000Y-113250000D02*
X156750000Y-113250000D01*
%TO.N,PC0*%
X136807386Y-114750000D02*
X137000000Y-114750000D01*
X134807386Y-116750000D02*
X136807386Y-114750000D01*
X129075000Y-116750000D02*
X134807386Y-116750000D01*
%TO.N,PE11*%
X135750000Y-124925000D02*
X135750000Y-123313104D01*
X139500000Y-119563104D02*
X139500000Y-118250000D01*
X135750000Y-123313104D02*
X139500000Y-119563104D01*
X157500000Y-109270000D02*
X159250000Y-107520000D01*
X157500000Y-111000000D02*
X157500000Y-109270000D01*
X150000000Y-113750000D02*
X154750000Y-113750000D01*
X139500000Y-118250000D02*
X139500000Y-117500000D01*
X156750000Y-113750000D02*
X157495990Y-113004010D01*
X154750000Y-113750000D02*
X156750000Y-113750000D01*
X157495990Y-113004010D02*
X157495990Y-111004010D01*
%TO.N,PB15*%
X142250000Y-124925000D02*
X142250000Y-123500000D01*
%TO.N,PE10*%
X139385058Y-117000000D02*
X140250000Y-117000000D01*
X139000000Y-117385058D02*
X139385058Y-117000000D01*
X139000000Y-119703880D02*
X139000000Y-117385058D01*
X135250000Y-123453880D02*
X139000000Y-119703880D01*
X135250000Y-124925000D02*
X135250000Y-123453880D01*
X157750000Y-113250000D02*
X157750000Y-111560000D01*
X156750000Y-114250000D02*
X157750000Y-113250000D01*
X157750000Y-111560000D02*
X159250000Y-110060000D01*
X149250000Y-114250000D02*
X156750000Y-114250000D01*
%TO.N,PB14*%
X141750000Y-124925000D02*
X141750000Y-122750000D01*
%TO.N,PE9*%
X157100000Y-114750000D02*
X159250000Y-112600000D01*
X148500000Y-114750000D02*
X157100000Y-114750000D01*
X139525834Y-116500000D02*
X141000000Y-116500000D01*
X138745991Y-117279843D02*
X139525834Y-116500000D01*
X134750000Y-123594656D02*
X138745990Y-119598666D01*
X138745990Y-119598666D02*
X138745991Y-117279843D01*
X134750000Y-124925000D02*
X134750000Y-123594656D01*
%TO.N,PB13*%
X141250000Y-124925000D02*
X141250000Y-123500000D01*
%TO.N,PE8*%
X159140000Y-115250000D02*
X159250000Y-115140000D01*
X147750000Y-115250000D02*
X159140000Y-115250000D01*
X139666610Y-116000000D02*
X141750000Y-116000000D01*
X138484696Y-117181914D02*
X139666610Y-116000000D01*
X138484696Y-119500000D02*
X138484696Y-117181914D01*
X134250000Y-123734696D02*
X138484696Y-119500000D01*
X134250000Y-124925000D02*
X134250000Y-123734696D01*
%TO.N,PB12*%
X140750000Y-124925000D02*
X140750000Y-122750000D01*
%TO.N,PE7*%
X157570000Y-116000000D02*
X159250000Y-117680000D01*
X157320000Y-115750000D02*
X157570000Y-116000000D01*
X148500000Y-115750000D02*
X157320000Y-115750000D01*
X139807386Y-115500000D02*
X142500000Y-115500000D01*
X138230686Y-119394786D02*
X138230687Y-117076699D01*
X133750000Y-123875472D02*
X138230686Y-119394786D01*
X138230687Y-117076699D02*
X139807386Y-115500000D01*
X133750000Y-124925000D02*
X133750000Y-123875472D01*
%TO.N,PB11*%
X138750000Y-124925000D02*
X138750000Y-122750000D01*
%TO.N,PE2*%
X131550559Y-112165501D02*
X133084499Y-112165501D01*
X130635058Y-111250000D02*
X131550559Y-112165501D01*
X129075000Y-111250000D02*
X130635058Y-111250000D01*
X155280000Y-116250000D02*
X159250000Y-120220000D01*
X133084499Y-112165501D02*
X133406972Y-112165501D01*
X133584499Y-112165501D02*
X134250000Y-111500000D01*
X133406972Y-112165501D02*
X133584499Y-112165501D01*
X151250000Y-108500000D02*
X151250000Y-111250000D01*
X150500000Y-107750000D02*
X151250000Y-108500000D01*
X151250000Y-116250000D02*
X154000000Y-116250000D01*
X154000000Y-116250000D02*
X155280000Y-116250000D01*
X153750000Y-116250000D02*
X154000000Y-116250000D01*
%TO.N,PB10*%
X138250000Y-124925000D02*
X138250000Y-123500000D01*
%TO.N,PD15*%
X158485990Y-121995990D02*
X159250000Y-122760000D01*
X144425000Y-121750000D02*
X146135058Y-121750000D01*
X146300559Y-121915501D02*
X146834499Y-121915501D01*
X146135058Y-121750000D02*
X146300559Y-121915501D01*
X146834499Y-121915501D02*
X147000000Y-121750000D01*
X147000000Y-121750000D02*
X158250000Y-121750000D01*
X158250000Y-121760000D02*
X158485990Y-121995990D01*
X158250000Y-121750000D02*
X158250000Y-121760000D01*
%TO.N,PB9*%
X137000000Y-117750000D02*
X135500000Y-117750000D01*
X131250000Y-109575000D02*
X131250000Y-111000000D01*
%TO.N,PD14*%
X156200000Y-122250000D02*
X159250000Y-125300000D01*
X144425000Y-122250000D02*
X146859224Y-122250000D01*
X146859224Y-122250000D02*
X147105214Y-122004010D01*
X155954010Y-122004010D02*
X156200000Y-122250000D01*
X147105214Y-122004010D02*
X155954010Y-122004010D01*
%TO.N,PB8*%
X131750000Y-109575000D02*
X131750000Y-111750000D01*
X137000000Y-118500000D02*
X135750000Y-118500000D01*
%TO.N,PD10*%
X154160000Y-122750000D02*
X159250000Y-127840000D01*
X147241980Y-122258020D02*
X153668020Y-122258020D01*
X153668020Y-122258020D02*
X154160000Y-122750000D01*
X146995990Y-122504010D02*
X147241980Y-122258020D01*
X146000000Y-122504010D02*
X146995990Y-122504010D01*
X145754010Y-122750000D02*
X146000000Y-122504010D01*
X144425000Y-122750000D02*
X145754010Y-122750000D01*
%TO.N,PB7*%
X137000000Y-119250000D02*
X136000000Y-119250000D01*
X132750000Y-109575000D02*
X132750000Y-111750000D01*
%TO.N,PD9*%
X152120000Y-123250000D02*
X159250000Y-130380000D01*
X151382030Y-122512030D02*
X152120000Y-123250000D01*
X147487970Y-122512030D02*
X151382030Y-122512030D01*
X147241980Y-122758020D02*
X147487970Y-122512030D01*
X146250000Y-122758020D02*
X147241980Y-122758020D01*
X145758020Y-123250000D02*
X146250000Y-122758020D01*
X144425000Y-123250000D02*
X145758020Y-123250000D01*
%TO.N,PB6*%
X133250000Y-109575000D02*
X133250000Y-111000000D01*
%TO.N,PD8*%
X154830000Y-128500000D02*
X159250000Y-132920000D01*
X145000000Y-128500000D02*
X154830000Y-128500000D01*
X142750000Y-126250000D02*
X145000000Y-128500000D01*
X142750000Y-124925000D02*
X142750000Y-126250000D01*
%TO.N,Net-(J5-PadB5)*%
X144014490Y-143060510D02*
X146500000Y-140575000D01*
X139373510Y-143060510D02*
X144014490Y-143060510D01*
X138625000Y-142312000D02*
X139373510Y-143060510D01*
X138625000Y-141685000D02*
X138625000Y-142312000D01*
%TO.N,Net-(J5-PadA6)*%
X138537500Y-136597558D02*
X138537500Y-135600000D01*
X137875000Y-137260058D02*
X137875000Y-140035000D01*
X138537500Y-136597558D02*
X137875000Y-137260058D01*
X138125000Y-142625000D02*
X138250000Y-142750000D01*
X138125000Y-141685000D02*
X138125000Y-142625000D01*
X138915501Y-136975559D02*
X138537500Y-136597558D01*
X138915501Y-139057997D02*
X138915501Y-136975559D01*
X138790500Y-139182998D02*
X138915501Y-139057997D01*
%TO.N,Net-(J5-PadA7)*%
X137462500Y-136712500D02*
X137500000Y-136750000D01*
X137462500Y-135600000D02*
X137462500Y-136712500D01*
X137625000Y-142625000D02*
X137500000Y-142750000D01*
X137625000Y-141685000D02*
X137625000Y-142625000D01*
X138375000Y-140035000D02*
X138375000Y-139408000D01*
X138375000Y-137875000D02*
X138500000Y-137750000D01*
X138375000Y-140035000D02*
X138375000Y-137875000D01*
%TO.N,Net-(J5-PadA5)*%
X143575000Y-140575000D02*
X143500000Y-140500000D01*
X144750000Y-140575000D02*
X143575000Y-140575000D01*
X137375000Y-139271000D02*
X137354000Y-139250000D01*
X137375000Y-140035000D02*
X137375000Y-139271000D01*
%TO.N,HSE_OUT*%
X128399510Y-115750000D02*
X129075000Y-115750000D01*
X127399510Y-116750000D02*
X128399510Y-115750000D01*
X123325000Y-116750000D02*
X127399510Y-116750000D01*
%TO.N,BOOT0*%
X135139068Y-111139068D02*
X135000000Y-111000000D01*
X135139068Y-112495990D02*
X135139068Y-111139068D01*
X132250000Y-111000000D02*
X132250000Y-109575000D01*
X129754520Y-141820480D02*
X128075000Y-143500000D01*
X129754520Y-124354704D02*
X129754520Y-141820480D01*
X132750000Y-121359224D02*
X129754520Y-124354704D01*
X132750000Y-119000000D02*
X132750000Y-121359224D01*
X132750000Y-116250000D02*
X132750000Y-113250000D01*
X134885058Y-112750000D02*
X135139068Y-112495990D01*
X133250000Y-112750000D02*
X134885058Y-112750000D01*
X132750000Y-113250000D02*
X133250000Y-112750000D01*
X124575000Y-143500000D02*
X128075000Y-143500000D01*
D25*
%TO.N,Net-(R3-Pad1)*%
X144750000Y-135675000D02*
X146500000Y-135675000D01*
D26*
%TO.N,USB_D+*%
X138537500Y-133900000D02*
X138537500Y-133787500D01*
D27*
X149225000Y-129390500D02*
X149350000Y-129265500D01*
D26*
X149350000Y-123400000D02*
X149500000Y-123250000D01*
X149350000Y-126801588D02*
X149350000Y-123400000D01*
D27*
X149225000Y-120859500D02*
X149225000Y-117656800D01*
X149350000Y-120984500D02*
X149225000Y-120859500D01*
X149225000Y-117656800D02*
X146725000Y-115156800D01*
X146725000Y-115156800D02*
X146725000Y-112406800D01*
X144450000Y-111775000D02*
X144425000Y-111750000D01*
X146093200Y-111775000D02*
X144450000Y-111775000D01*
X146725000Y-112406800D02*
X146093200Y-111775000D01*
X138225000Y-133212499D02*
X138225000Y-132593200D01*
X138537500Y-133524999D02*
X138225000Y-133212499D01*
X138537500Y-133900000D02*
X138537500Y-133524999D01*
X138225000Y-132593200D02*
X139593200Y-131225000D01*
X139593200Y-131225000D02*
X148343200Y-131225000D01*
X149225000Y-130343200D02*
X149225000Y-129390500D01*
X148343200Y-131225000D02*
X149225000Y-130343200D01*
%TO.N,USB_D-*%
X148775000Y-129390500D02*
X148650000Y-129265500D01*
D26*
X148650000Y-123400000D02*
X148500000Y-123250000D01*
X148650000Y-126801588D02*
X148650000Y-123400000D01*
D27*
X148775000Y-120859500D02*
X148775000Y-117843200D01*
X148650000Y-120984500D02*
X148775000Y-120859500D01*
X148775000Y-117843200D02*
X146275000Y-115343200D01*
X146275000Y-115343200D02*
X146275000Y-112593200D01*
X144450000Y-112225000D02*
X144425000Y-112250000D01*
X145906800Y-112225000D02*
X144450000Y-112225000D01*
X146275000Y-112593200D02*
X145906800Y-112225000D01*
X137775000Y-133212499D02*
X137775000Y-132406800D01*
X137462500Y-133524999D02*
X137775000Y-133212499D01*
X137462500Y-133900000D02*
X137462500Y-133524999D01*
X137775000Y-132406800D02*
X139406800Y-130775000D01*
X139406800Y-130775000D02*
X148156800Y-130775000D01*
X148775000Y-130156800D02*
X148775000Y-129390500D01*
X148156800Y-130775000D02*
X148775000Y-130156800D01*
D26*
%TO.N,VCAPDSI*%
X142250000Y-117750000D02*
X144425000Y-117750000D01*
X142000000Y-118000000D02*
X142250000Y-117750000D01*
X142000000Y-120500000D02*
X142000000Y-118000000D01*
X142250000Y-120750000D02*
X142000000Y-120500000D01*
X144425000Y-120750000D02*
X142250000Y-120750000D01*
D25*
%TO.N,Net-(R9-Pad1)*%
X123000000Y-143575000D02*
X122925000Y-143500000D01*
X123000000Y-146195000D02*
X123000000Y-143575000D01*
%TO.N,Net-(R4-Pad1)*%
X143000000Y-137325000D02*
X144750000Y-137325000D01*
X141366078Y-137325000D02*
X143000000Y-137325000D01*
X140750000Y-136708922D02*
X141366078Y-137325000D01*
X140750000Y-135800000D02*
X140750000Y-136708922D01*
D26*
%TO.N,Net-(C1-Pad1)*%
X139250000Y-125750000D02*
X139250000Y-124925000D01*
X138025000Y-126975000D02*
X139250000Y-125750000D01*
X137500000Y-126975000D02*
X138025000Y-126975000D01*
%TO.N,Net-(C4-Pad1)*%
X143700000Y-109575000D02*
X144750000Y-108525000D01*
X142750000Y-109575000D02*
X143700000Y-109575000D01*
%TO.N,Net-(C5-Pad1)*%
X121575000Y-114775000D02*
X121650000Y-114850000D01*
X119500000Y-114775000D02*
X121575000Y-114775000D01*
X121650000Y-116725000D02*
X121675000Y-116750000D01*
X121650000Y-114850000D02*
X121650000Y-116725000D01*
%TD*%
M02*
